<svg version="1.1" id="Layer_1" xmlns="http://www.w3.org/2000/svg" xmlns:xlink="http://www.w3.org/1999/xlink" x="0px" y="0px"
	 width="100%" viewBox="0 0 499 500" enable-background="new 0 0 499 500" xml:space="preserve">
<path fill="#FEFEFE" opacity="1.000000" stroke="none" 
	d="
M275.000000,501.000000 
	C183.333359,501.000000 92.166710,501.000000 1.000049,501.000000 
	C1.000033,334.333405 1.000033,167.666794 1.000016,1.000138 
	C167.333237,1.000092 333.666473,1.000092 499.999756,1.000046 
	C499.999847,167.666519 499.999847,334.333038 499.999939,500.999786 
	C425.166656,501.000000 350.333344,501.000000 275.000000,501.000000 
M444.974609,210.493958 
	C444.630371,210.618500 444.286133,210.743042 443.224792,211.113052 
	C443.224792,219.725159 443.224792,228.337250 443.224792,237.700195 
	C440.394897,237.700195 438.259613,237.486969 436.206940,237.805695 
	C435.391602,237.932266 434.759430,239.238068 433.909515,240.801315 
	C433.956909,241.870941 434.004303,242.940567 433.834961,244.568985 
	C434.839294,245.427536 435.724670,246.737457 436.875366,247.040680 
	C438.679077,247.516052 440.661987,247.311554 442.976074,247.412827 
	C442.976074,250.729126 442.943207,253.503998 442.982025,256.277863 
	C443.115540,265.818970 443.274139,275.359772 443.350647,285.462555 
	C443.546631,285.985565 443.742615,286.508575 443.900024,287.745026 
	C446.059723,289.372101 448.103882,292.176910 450.401062,292.402222 
	C456.917786,293.041412 463.537903,292.626221 470.670288,292.626221 
	C470.502258,289.785492 470.358643,287.357422 469.988220,284.053101 
	C464.239502,283.760040 458.490814,283.466980 452.850708,283.179474 
	C452.667755,282.866241 452.511963,282.723419 452.510071,282.578583 
	C452.360687,271.112335 452.223358,259.645966 452.832092,247.559875 
	C457.597992,247.421371 462.373138,247.406265 467.122589,247.049042 
	C468.178833,246.969589 469.144501,245.685211 470.401062,244.165665 
	C470.341034,242.793182 470.281006,241.420685 470.490631,239.494354 
	C469.225159,238.894943 467.999481,237.898575 466.687103,237.767029 
	C461.842987,237.281464 456.970245,237.081909 452.218781,235.871445 
	C452.223083,228.948929 452.291412,222.025391 452.179565,215.104752 
	C452.156281,213.662552 451.466675,212.231110 450.590332,210.514359 
	C450.219330,210.557861 449.848328,210.601364 449.090179,210.265167 
	C447.901001,210.392593 446.711853,210.520035 444.974609,210.493958 
M327.404602,240.402542 
	C327.877106,236.950211 325.340668,237.723587 323.507141,237.712936 
	C315.938690,237.668930 308.369781,237.694489 299.634613,237.694489 
	C300.306244,231.023560 300.900055,225.125214 302.347351,219.438766 
	C313.557343,219.271713 324.767334,219.104660 336.567413,218.641357 
	C337.563629,210.103790 337.563629,210.109436 329.140839,210.112411 
	C318.160767,210.116302 307.180695,210.094589 296.200684,210.124176 
	C294.460114,210.128860 292.720154,210.345200 290.994202,210.462708 
	C290.994202,238.127563 290.994202,265.175446 290.994202,292.392029 
	C294.134735,292.392029 297.020264,292.392029 300.216705,292.392029 
	C300.216705,278.850006 300.386108,265.561066 300.118591,252.280930 
	C300.032837,248.022964 301.418854,246.852173 305.490967,247.060928 
	C311.630341,247.375671 317.798523,247.192474 323.952423,247.093994 
	C324.923737,247.078461 325.884369,246.395691 327.196869,245.238312 
	C327.151611,243.817444 327.106354,242.396561 327.404602,240.402542 
M36.845028,249.309479 
	C41.561890,253.444412 44.913364,253.072922 49.485870,248.194687 
	C50.067799,248.430145 50.649723,248.665604 51.754486,249.334824 
	C53.021198,250.527817 54.287910,251.720825 55.195766,252.575836 
	C53.761963,254.305527 51.219944,255.996384 51.177261,257.748138 
	C51.114246,260.334442 52.086891,263.896118 53.945435,265.376129 
	C57.528236,268.229187 61.117771,266.397400 64.580864,262.981293 
	C65.118011,262.976288 65.655159,262.971283 66.690460,263.384399 
	C67.930649,264.368805 69.170837,265.353241 70.413261,266.339417 
	C64.332527,272.269440 64.317703,274.737640 69.588982,280.849335 
	C68.009888,283.092896 66.464417,285.288666 64.766006,287.701752 
	C63.086823,283.494080 60.564083,279.749939 55.707935,281.582306 
	C53.512775,282.410614 50.987690,285.807404 50.989906,288.036591 
	C50.992081,290.214355 53.601482,293.502533 55.809525,294.337128 
	C60.641785,296.163635 63.185032,292.496002 64.809654,288.149475 
	C69.046104,296.125366 73.526978,296.914032 79.673317,290.975189 
	C80.185951,290.962006 80.698593,290.948792 81.683403,291.423187 
	C85.429207,295.317352 88.817139,295.871002 92.035698,293.114929 
	C95.469551,290.174500 95.040154,286.681671 90.510391,280.707916 
	C95.887108,274.676849 95.827934,272.734558 90.078773,266.540161 
	C96.246788,261.469574 96.017509,257.975830 89.154724,252.459396 
	C95.328331,247.976334 95.853096,245.681366 92.004570,239.111679 
	C91.921577,238.244736 91.838593,237.377777 92.035225,236.057526 
	C92.432594,235.705627 92.829964,235.353745 93.642929,234.769730 
	C93.887253,234.528946 93.990547,234.238052 94.016403,233.210587 
	C95.335426,228.513550 92.927887,225.686951 89.002609,223.661377 
	C94.607628,219.478577 95.889641,215.249786 92.743622,211.731415 
	C89.634903,208.254761 85.368103,208.767471 80.454765,213.051208 
	C79.916557,213.043076 79.378342,213.034943 78.328636,212.591522 
	C74.552864,208.904465 70.941956,208.412170 67.918411,211.172241 
	C64.715569,214.095993 65.233780,217.210251 69.275223,222.886032 
	C68.122337,224.721344 67.088547,226.367065 65.340599,228.009689 
	C64.864532,228.013412 64.388466,228.017120 63.439911,227.514511 
	C59.150124,222.801315 56.417679,222.721985 50.661041,227.262985 
	C50.044155,227.525436 49.427273,227.787903 48.346317,227.550858 
	C44.387173,223.260315 39.997704,222.791092 37.220512,226.590057 
	C34.345634,230.522644 35.680836,233.969009 39.008137,237.716721 
	C39.042381,238.223801 39.076622,238.730865 38.756016,239.696121 
	C37.937843,240.514023 37.119671,241.331940 35.497894,242.070755 
	C34.959843,242.057251 34.421795,242.043732 33.376301,241.591980 
	C30.464550,238.091934 26.932232,237.345779 23.371607,240.184052 
	C20.430880,242.528214 20.078562,245.886459 22.015505,249.149094 
	C24.369820,253.114761 29.539202,252.973907 34.694843,248.957703 
	C35.242519,248.916473 35.790195,248.875244 36.845028,249.309479 
M216.693954,236.614029 
	C216.674316,234.616028 216.695221,232.616669 216.627609,230.620285 
	C216.406509,224.091599 216.153152,217.564026 215.445435,210.632263 
	C212.818756,211.106033 210.192093,211.579803 207.330200,212.954620 
	C207.404480,220.692154 207.478775,228.429672 206.943848,236.851517 
	C204.118088,237.314819 201.292313,237.778122 198.363434,238.258316 
	C198.363434,241.158295 198.363434,243.987411 198.363434,246.729248 
	C201.645035,247.139389 204.529831,247.499924 207.306183,248.808640 
	C207.486679,261.189240 207.667175,273.569855 207.741867,286.546539 
	C208.497849,287.672577 209.253830,288.798645 210.324402,290.450714 
	C210.851944,290.734406 211.379486,291.018097 212.355896,291.855133 
	C219.737854,292.338104 227.119827,292.821075 235.580078,293.374603 
	C234.920425,289.426056 234.463577,286.691498 233.149780,283.546570 
	C227.745880,283.546570 222.341980,283.546570 216.635254,283.546570 
	C216.635254,276.902863 216.653687,271.102173 216.630081,265.301636 
	C216.606384,259.483154 216.540787,253.664841 217.375641,247.318848 
	C223.111771,247.318848 228.847916,247.318848 234.794403,247.318848 
	C234.794403,243.783524 234.794403,241.052856 234.794403,237.621170 
	C228.648575,237.621170 222.742310,237.621170 216.693954,236.614029 
M148.773148,240.838165 
	C148.857773,242.556946 148.942413,244.275742 149.182281,246.732468 
	C161.054657,246.732468 172.927017,246.732468 185.139893,246.732468 
	C185.139893,250.191864 185.139893,252.741089 185.139893,255.855530 
	C176.442917,255.855530 168.029068,255.711594 159.626114,255.950500 
	C157.351257,256.015198 155.109360,257.238098 152.309067,258.117035 
	C151.858765,258.715118 151.408478,259.313202 150.370575,260.282104 
	C150.116333,269.207642 149.719589,278.133850 149.764191,287.057892 
	C149.770752,288.369873 151.872192,289.671326 153.490341,291.418945 
	C154.306885,291.681152 155.123444,291.943329 156.514938,292.640930 
	C169.267502,292.640930 182.020050,292.640930 195.043716,292.640930 
	C195.043716,277.047119 195.104706,261.922424 194.955627,246.799789 
	C194.939545,245.168808 193.704514,243.549835 192.880447,241.369400 
	C192.298828,240.891357 191.717209,240.413315 190.821899,239.298828 
	C189.442184,238.788757 188.067459,237.851791 186.681976,237.835632 
	C174.750473,237.696289 162.816696,237.686539 150.885101,237.798004 
	C150.220779,237.804199 149.569656,239.222549 148.773148,240.838165 
M386.965454,292.514740 
	C398.990997,292.376099 411.016571,292.237457 423.772583,292.198059 
	C428.193451,290.728394 429.964722,287.393707 430.024689,283.014374 
	C430.104462,277.190521 430.193634,271.359436 429.994995,265.541138 
	C429.784851,259.386475 426.292694,256.060425 420.177155,255.979889 
	C413.354645,255.890045 406.529999,255.964661 399.706299,255.960953 
	C392.503571,255.957047 391.690765,254.698181 394.307343,246.839783 
	C406.014069,246.839783 417.901215,246.839783 429.759766,246.839783 
	C429.759766,243.571091 429.759766,240.827499 429.759766,237.841949 
	C417.150879,237.841949 404.846100,237.723587 392.545685,237.904633 
	C388.094574,237.970123 384.875031,241.367722 384.383240,245.874802 
	C384.149689,248.015030 384.269684,250.196182 384.266937,252.358841 
	C384.253479,262.949951 386.511108,265.193939 397.173553,265.200226 
	C404.927277,265.204803 412.681000,265.201111 420.468689,265.201111 
	C420.468689,271.677795 420.468689,277.375549 420.468689,283.518066 
	C408.371155,283.518066 396.620667,283.518066 383.434509,283.518066 
	C384.473663,286.976959 385.268585,289.622925 386.965454,292.514740 
M340.865845,292.401886 
	C353.277039,292.334900 365.688263,292.267944 378.838684,292.058258 
	C378.974457,289.313660 379.110260,286.569092 379.270752,283.324890 
	C366.725677,283.324890 354.830170,283.324890 342.812134,283.324890 
	C342.812134,277.120056 342.812134,271.407776 342.812134,265.147339 
	C355.043823,265.147339 366.927765,265.147339 379.175995,265.147339 
	C379.175995,258.477661 379.401398,252.344055 379.105347,246.235733 
	C378.864594,241.268738 374.957031,237.914185 369.673218,237.843811 
	C360.691498,237.724182 351.705414,237.709702 342.724274,237.850739 
	C336.931793,237.941681 333.257355,241.490738 333.191406,247.180832 
	C333.050659,259.323364 333.056793,271.469757 333.199554,283.612244 
	C333.250916,287.981506 335.223450,291.249603 340.865845,292.401886 
M239.942902,246.136795 
	C239.942902,246.136795 239.830780,246.269104 240.239334,246.880051 
	C252.007767,246.880051 263.776215,246.880051 275.759644,246.880051 
	C275.759644,250.205872 275.759644,252.814667 275.759644,255.954666 
	C266.750214,255.954666 257.964783,255.893112 249.180679,255.976364 
	C243.355759,256.031586 239.704926,259.033783 239.456055,264.471100 
	C239.152130,271.111267 239.212006,277.783264 239.461792,284.428406 
	C239.632980,288.982849 242.347046,292.301086 246.881546,292.420441 
	C259.467499,292.751831 272.067902,292.535400 285.033508,292.535400 
	C285.033508,276.700897 285.197937,261.264984 284.930695,245.836563 
	C284.853149,241.359894 281.660980,238.129120 277.234894,238.008209 
	C264.643463,237.664291 252.036514,237.887543 238.522858,237.887543 
	C239.001740,241.030899 239.397446,243.628403 239.942902,246.136795 
M144.004150,241.500000 
	C144.003769,234.675354 144.057968,227.850143 143.988113,221.026215 
	C143.913452,213.730591 140.564209,210.435272 133.190186,210.380844 
	C125.533653,210.324310 117.876396,210.365952 110.219452,210.365067 
	C106.310806,210.364609 102.402161,210.364990 98.517326,210.364990 
	C98.517326,238.202301 98.517326,265.218811 98.517326,292.639526 
	C110.187439,292.639526 121.481827,292.668396 132.775986,292.629822 
	C140.875427,292.602142 143.970230,289.524078 143.994446,281.450500 
	C144.033386,268.467102 144.004425,255.483505 144.004150,241.500000 
M174.506348,233.349213 
	C175.059525,229.089798 176.023056,224.811981 175.833511,220.585876 
	C175.793686,219.697861 171.473679,219.101685 169.209259,218.168793 
	C168.175461,217.742889 167.344086,216.825684 166.420883,216.131302 
	C167.395309,215.343826 168.270370,214.103836 169.364929,213.863464 
	C171.613861,213.369629 173.980316,213.410873 176.298386,213.231873 
	C170.937912,209.736984 164.257065,210.191071 163.627121,212.938004 
	C163.161316,214.969223 162.784393,218.439865 163.797333,219.110611 
	C166.293381,220.763519 169.612869,221.173004 172.859039,222.160858 
	C172.859039,224.578445 172.859039,227.310791 172.859039,230.036102 
	C169.455994,230.535660 166.395462,230.984955 163.334930,231.434235 
	C163.414642,232.149750 163.494370,232.865280 163.574081,233.580795 
	C166.950562,233.580795 170.327026,233.580795 174.506348,233.349213 
M187.918533,228.238190 
	C188.156525,229.963379 188.394516,231.688568 188.632507,233.413757 
	C189.021042,233.318878 189.409592,233.223984 189.798126,233.129089 
	C189.798126,226.106567 189.798126,219.084045 189.798126,212.156891 
	C185.955948,212.156891 182.536789,212.156891 179.170654,212.156891 
	C177.802124,220.997192 178.384171,230.965454 181.206863,234.126648 
	C181.206863,229.234833 181.206863,225.279236 181.206863,221.314011 
	C183.861557,221.314011 185.642319,221.314011 187.918320,221.314011 
	C187.918320,223.447937 187.918320,225.398315 187.918533,228.238190 
M157.853912,221.576614 
	C158.328445,224.963577 158.802979,228.350555 159.277512,231.737518 
	C159.483871,231.715500 159.690216,231.693481 159.896561,231.671463 
	C159.896561,225.168640 159.896561,218.665802 159.896561,212.158707 
	C156.139999,212.158707 152.741547,212.158707 149.633759,212.158707 
	C149.633759,219.394058 149.633759,226.314545 149.633759,233.235016 
	C150.117172,233.227142 150.600586,233.219269 151.084000,233.211395 
	C151.084000,229.338623 151.084000,225.465851 151.084000,221.195480 
	C153.523636,221.195480 155.302414,221.195480 157.853912,221.576614 
z"/>
<path fill="#201E1E" opacity="1.000000" stroke="none" 
	d="
M144.004150,242.000000 
	C144.004425,255.483505 144.033386,268.467102 143.994446,281.450500 
	C143.970230,289.524078 140.875427,292.602142 132.775986,292.629822 
	C121.481827,292.668396 110.187439,292.639526 98.517326,292.639526 
	C98.517326,265.218811 98.517326,238.202301 98.517326,210.364990 
	C102.402161,210.364990 106.310806,210.364609 110.219452,210.365067 
	C117.876396,210.365952 125.533653,210.324310 133.190186,210.380844 
	C140.564209,210.435272 143.913452,213.730591 143.988113,221.026215 
	C144.057968,227.850143 144.003769,234.675354 144.004150,242.000000 
M109.122078,219.431030 
	C108.509117,221.077972 107.374817,222.721222 107.363182,224.372406 
	C107.235260,242.524734 107.275543,260.678314 107.294312,278.831543 
	C107.295799,280.270050 107.477020,281.708374 107.578781,283.206787 
	C116.823074,283.206787 125.700157,283.206787 134.578873,283.206787 
	C134.578873,261.872864 134.578873,240.937119 134.578873,219.402954 
	C126.262230,219.402954 118.146935,219.402954 109.122078,219.431030 
M100.999695,262.500000 
	C100.999695,246.771576 100.999695,231.043152 100.999695,215.314728 
	C100.765869,215.318573 100.532051,215.322433 100.298225,215.326279 
	C100.298225,239.509842 100.298225,263.693390 100.298225,287.876953 
	C100.532051,287.877838 100.765869,287.878723 100.999695,287.879608 
	C100.999695,279.753082 100.999695,271.626526 100.999695,262.500000 
M122.485352,213.000000 
	C126.564278,213.000000 130.643204,213.000000 134.722122,213.000000 
	C134.708115,212.765320 134.694092,212.530624 134.680069,212.295944 
	C124.158188,212.295944 113.636299,212.295944 103.114410,212.295944 
	C103.113297,212.530624 103.112183,212.765320 103.111076,213.000000 
	C109.237724,213.000000 115.364380,213.000000 122.485352,213.000000 
M115.515282,290.983643 
	C121.904953,290.983643 128.294617,290.983643 134.684296,290.983643 
	C134.674438,290.752289 134.664597,290.520905 134.654739,290.289551 
	C124.148796,290.289551 113.642845,290.289551 103.136894,290.289551 
	C103.135040,290.520905 103.133194,290.752258 103.131348,290.983612 
	C106.928879,290.983612 110.726402,290.983612 115.515282,290.983643 
z"/>
<path fill="#2B292A" opacity="1.000000" stroke="none" 
	d="
M239.793167,246.225922 
	C239.397446,243.628403 239.001740,241.030899 238.522858,237.887543 
	C252.036514,237.887543 264.643463,237.664291 277.234894,238.008209 
	C281.660980,238.129120 284.853149,241.359894 284.930695,245.836563 
	C285.197937,261.264984 285.033508,276.700897 285.033508,292.535400 
	C272.067902,292.535400 259.467499,292.751831 246.881546,292.420441 
	C242.347046,292.301086 239.632980,288.982849 239.461792,284.428406 
	C239.212006,277.783264 239.152130,271.111267 239.456055,264.471100 
	C239.704926,259.033783 243.355759,256.031586 249.180679,255.976364 
	C257.964783,255.893112 266.750214,255.954666 275.759644,255.954666 
	C275.759644,252.814667 275.759644,250.205872 275.759644,246.880051 
	C263.776215,246.880051 252.007767,246.880051 240.295273,246.309692 
	C240.567001,244.538498 240.782776,243.337692 240.998566,242.136887 
	C240.765854,242.103470 240.533157,242.070068 240.300446,242.036652 
	C240.131363,243.433075 239.962265,244.829498 239.793167,246.225922 
M264.477417,265.150482 
	C259.367340,265.150482 254.257263,265.150482 248.869171,265.150482 
	C248.869171,271.479950 248.869171,277.218506 248.869171,283.193115 
	C257.952271,283.193115 266.827301,283.193115 275.678528,283.193115 
	C275.678528,277.087952 275.678528,271.352295 275.678528,265.150513 
	C272.045410,265.150513 268.755219,265.150513 264.477417,265.150482 
M262.494568,239.992554 
	C267.228851,239.992554 271.963165,239.992554 276.697449,239.992554 
	C276.686523,239.774200 276.675598,239.555832 276.664673,239.337479 
	C265.484741,239.337479 254.304794,239.337479 243.124863,239.337479 
	C243.123611,239.555832 243.122360,239.774200 243.121109,239.992554 
	C249.246445,239.992554 255.371796,239.992554 262.494568,239.992554 
M255.906708,289.998779 
	C254.624207,290.060211 253.341705,290.121643 252.059204,290.183044 
	C252.064087,290.366516 252.068970,290.549957 252.073868,290.733429 
	C260.702026,290.733429 269.330200,290.733429 277.958374,290.733429 
	C277.962677,290.488556 277.966980,290.243652 277.971283,289.998779 
	C270.917633,289.998779 263.863953,289.998779 255.906708,289.998779 
z"/>
<path fill="#2A2828" opacity="1.000000" stroke="none" 
	d="
M339.975128,292.069946 
	C335.223450,291.249603 333.250916,287.981506 333.199554,283.612244 
	C333.056793,271.469757 333.050659,259.323364 333.191406,247.180832 
	C333.257355,241.490738 336.931793,237.941681 342.724274,237.850739 
	C351.705414,237.709702 360.691498,237.724182 369.673218,237.843811 
	C374.957031,237.914185 378.864594,241.268738 379.105347,246.235733 
	C379.401398,252.344055 379.175995,258.477661 379.175995,265.147339 
	C366.927765,265.147339 355.043823,265.147339 342.812134,265.147339 
	C342.812134,271.407776 342.812134,277.120056 342.812134,283.324890 
	C354.830170,283.324890 366.725677,283.324890 379.270752,283.324890 
	C379.110260,286.569092 378.974457,289.313660 378.201355,291.789551 
	C365.413116,291.405884 353.262207,291.282837 341.110992,291.214050 
	C340.734009,291.211884 340.353821,291.771973 339.975128,292.069946 
M347.738495,256.052185 
	C354.972229,256.052185 362.205963,256.052185 369.597992,256.052185 
	C369.597992,252.748993 369.597992,250.056351 369.597992,247.357895 
	C360.415863,247.357895 351.595062,247.357895 342.167664,247.357895 
	C343.596924,250.786163 339.080109,256.385468 347.738495,256.052185 
M359.502136,263.011658 
	C354.437408,263.011658 349.372681,263.011658 344.307953,263.011658 
	C344.318268,263.229218 344.328583,263.446808 344.338898,263.664368 
	C355.183502,263.664368 366.028107,263.664368 376.872681,263.664368 
	C376.874115,263.446777 376.875549,263.229187 376.876984,263.011597 
	C371.417999,263.011597 365.958984,263.011597 359.502136,263.011658 
z"/>
<path fill="#2A2828" opacity="1.000000" stroke="none" 
	d="
M386.063507,292.268921 
	C385.268585,289.622925 384.473663,286.976959 383.434509,283.518066 
	C396.620667,283.518066 408.371155,283.518066 420.468689,283.518066 
	C420.468689,277.375549 420.468689,271.677795 420.468689,265.201111 
	C412.681000,265.201111 404.927277,265.204803 397.173553,265.200226 
	C386.511108,265.193939 384.253479,262.949951 384.266937,252.358841 
	C384.269684,250.196182 384.149689,248.015030 384.383240,245.874802 
	C384.875031,241.367722 388.094574,237.970123 392.545685,237.904633 
	C404.846100,237.723587 417.150879,237.841949 429.759766,237.841949 
	C429.759766,240.827499 429.759766,243.571091 429.759766,246.839783 
	C417.901215,246.839783 406.014069,246.839783 394.307343,246.839783 
	C391.690765,254.698181 392.503571,255.957047 399.706299,255.960953 
	C406.529999,255.964661 413.354645,255.890045 420.177155,255.979889 
	C426.292694,256.060425 429.784851,259.386475 429.994995,265.541138 
	C430.193634,271.359436 430.104462,277.190521 430.024689,283.014374 
	C429.964722,287.393707 428.193451,290.728394 423.133484,291.823181 
	C410.999542,291.309662 399.504791,291.150696 388.009521,291.086243 
	C387.363098,291.082611 386.712280,291.856781 386.063507,292.268921 
z"/>
<path fill="#252324" opacity="1.000000" stroke="none" 
	d="
M155.940002,292.205505 
	C155.123444,291.943329 154.306885,291.681152 153.186386,290.815643 
	C152.218842,287.208313 151.096924,284.221466 150.983627,281.196808 
	C150.718185,274.111267 150.936005,267.007599 150.958191,259.911285 
	C151.408478,259.313202 151.858765,258.715118 153.007843,258.016235 
	C155.825775,257.621735 157.941620,257.106445 160.064697,257.074768 
	C167.207870,256.968201 174.361649,256.829346 181.495361,257.109711 
	C185.820969,257.279724 186.982544,255.298096 186.989319,251.465805 
	C186.996216,247.570221 185.681839,245.790009 181.425629,245.887680 
	C170.630966,246.135422 159.827179,245.985321 149.027039,245.994507 
	C148.942413,244.275742 148.857773,242.556946 149.316650,240.383545 
	C163.618637,239.931046 177.377106,239.933167 191.135590,239.935272 
	C191.717209,240.413315 192.298828,240.891357 192.969086,242.070328 
	C193.351578,244.059830 193.894562,245.347183 193.900940,246.637177 
	C193.968307,260.279144 193.891113,273.921997 194.001816,287.563416 
	C194.026108,290.556885 192.666397,291.176483 190.047241,291.152039 
	C180.398621,291.061829 170.748093,291.064148 161.099716,291.166382 
	C159.376343,291.184662 157.659729,291.842804 155.940002,292.205505 
M164.640564,265.101440 
	C162.568604,265.101440 160.496628,265.101440 158.481873,265.101440 
	C158.481873,271.710907 158.481873,277.440125 158.481873,283.189667 
	C167.711395,283.189667 176.585510,283.189667 185.344604,283.189667 
	C185.344604,277.014404 185.344604,271.265442 185.344604,265.101471 
	C178.532486,265.101471 172.071411,265.101471 164.640564,265.101440 
z"/>
<path fill="#2F2D2D" opacity="1.000000" stroke="none" 
	d="
M207.553070,236.167206 
	C207.478775,228.429672 207.404480,220.692154 207.806488,212.440582 
	C210.825912,211.629700 213.369049,211.332855 215.912201,211.036011 
	C216.153152,217.564026 216.406509,224.091599 216.627609,230.620285 
	C216.695221,232.616669 216.674316,234.616028 216.844971,237.481842 
	C218.559601,238.873550 220.120926,239.828522 221.687256,239.836838 
	C225.666641,239.857986 229.648270,239.455307 233.564117,239.226074 
	C233.564117,241.796982 233.564117,243.676804 233.564117,245.989990 
	C228.743210,245.989990 224.310867,245.864380 219.894577,246.074982 
	C218.735367,246.130264 217.625885,247.227646 216.493561,247.846466 
	C216.540787,253.664841 216.606384,259.483154 216.630081,265.301636 
	C216.653687,271.102173 216.635254,276.902863 216.635254,283.546570 
	C222.341980,283.546570 227.745880,283.546570 233.560242,284.201355 
	C234.779343,289.681641 233.138260,291.668396 227.903198,291.207733 
	C222.614838,290.742371 217.242538,291.231079 211.907013,291.301819 
	C211.379486,291.018097 210.851944,290.734406 210.151611,289.886230 
	C209.268433,288.197968 208.558060,287.074188 207.847672,285.950439 
	C207.667175,273.569855 207.486679,261.189240 207.513840,248.042511 
	C205.022888,246.614761 202.324295,245.953140 199.369431,245.228683 
	C198.444366,241.289413 198.920853,238.575134 204.213501,238.826736 
	C205.282135,238.877533 206.437622,237.101151 207.553070,236.167206 
z"/>
<path fill="#282627" opacity="1.000000" stroke="none" 
	d="
M470.221008,240.048203 
	C470.281006,241.420685 470.341034,242.793182 469.903290,244.699493 
	C467.680634,245.262115 465.955383,245.328339 464.230896,245.312393 
	C459.943024,245.272736 455.358398,243.933609 452.085114,248.179581 
	C452.223358,259.645966 452.360687,271.112335 452.510071,282.578583 
	C452.511963,282.723419 452.667755,282.866241 452.850708,283.179474 
	C458.490814,283.466980 464.239502,283.760040 469.821350,284.759766 
	C469.386688,290.010376 467.065674,291.724854 462.518005,291.180573 
	C459.409912,290.808624 456.102844,291.632538 453.103424,290.954437 
	C450.282928,290.316803 447.749268,288.410553 445.056580,286.588379 
	C445.018250,274.812378 445.052673,263.510132 444.964905,252.208862 
	C444.951447,250.476120 444.374420,248.747757 443.711304,246.855392 
	C440.260284,245.799011 437.155975,244.904602 434.051697,244.010193 
	C434.004303,242.940567 433.956909,241.870941 434.411316,240.375870 
	C437.930481,239.324020 440.947815,238.697617 444.273071,237.775024 
	C444.580963,229.145020 444.580963,220.811188 444.580963,213.056137 
	C447.522858,212.033112 449.303467,211.413910 451.084106,210.794708 
	C451.466675,212.231110 452.156281,213.662552 452.179565,215.104752 
	C452.291412,222.025391 452.223083,228.948929 452.121796,236.744690 
	C453.361603,238.380554 454.660248,239.709839 456.042084,239.802750 
	C460.752594,240.119492 465.492401,240.000748 470.221008,240.048203 
z"/>
<path fill="#255AA1" opacity="1.000000" stroke="none" 
	d="
M78.904297,290.976166 
	C73.526978,296.914032 69.046104,296.125366 64.809654,288.149475 
	C63.185032,292.496002 60.641785,296.163635 55.809525,294.337128 
	C53.601482,293.502533 50.992081,290.214355 50.989906,288.036591 
	C50.987690,285.807404 53.512775,282.410614 55.707935,281.582306 
	C60.564083,279.749939 63.086823,283.494080 64.766006,287.701752 
	C66.464417,285.288666 68.009888,283.092896 69.588982,280.849335 
	C64.317703,274.737640 64.332527,272.269440 70.413261,266.339417 
	C69.170837,265.353241 67.930649,264.368805 66.406319,262.758606 
	C67.224899,258.764984 68.327614,255.397110 69.459358,251.940598 
	C68.840820,251.231628 67.429276,249.613693 66.017532,247.586227 
	C66.083794,240.629974 70.001740,237.170807 75.094353,239.289932 
	C79.025513,240.925781 79.361366,244.353806 78.809769,248.265961 
	C77.094116,249.853699 75.593246,251.179352 74.961128,251.737671 
	C76.360222,253.600632 77.644958,255.311340 78.943161,257.432739 
	C77.941933,260.946320 76.927246,264.049225 75.884422,267.238190 
	C76.696411,268.947266 78.934700,271.527618 78.806038,273.984009 
	C78.676155,276.463898 76.198967,278.820801 74.700256,281.314575 
	C78.468346,282.793793 79.757370,286.364136 78.904297,290.976166 
z"/>
<path fill="#282627" opacity="1.000000" stroke="none" 
	d="
M335.977325,218.937622 
	C324.767334,219.104660 313.557343,219.271713 301.499146,219.268005 
	C297.310150,221.689926 296.879700,234.674103 300.282043,239.271271 
	C308.453461,239.713959 316.335083,239.852463 324.395081,240.066681 
	C324.797363,240.295105 324.943817,240.502518 325.010803,241.191010 
	C324.998749,242.739044 324.988708,243.860687 324.598450,244.816727 
	C318.060760,244.393890 311.902252,243.952606 305.746521,243.988297 
	C303.825500,243.999420 301.911987,245.299042 299.665680,246.220093 
	C298.925323,247.636230 298.164246,248.838974 298.156860,250.046356 
	C298.072540,263.788452 298.103302,277.531250 298.103302,291.520477 
	C296.501556,291.520477 294.585938,291.520477 292.917999,291.520477 
	C292.917999,288.053375 292.917999,284.793823 292.917999,281.534302 
	C292.918060,260.108307 292.869385,238.681976 293.008087,217.256882 
	C293.019562,215.488174 294.301758,213.727676 295.282990,212.268478 
	C307.497864,212.694153 319.423248,212.827896 331.348999,212.893265 
	C331.900146,212.896286 332.454681,212.286270 333.382385,212.013351 
	C334.497223,214.355820 335.237274,216.646713 335.977325,218.937622 
z"/>
<path fill="#255AA1" opacity="1.000000" stroke="none" 
	d="
M92.007835,239.981842 
	C95.853096,245.681366 95.328331,247.976334 89.154724,252.459396 
	C96.017509,257.975830 96.246788,261.469574 90.078773,266.540161 
	C95.827934,272.734558 95.887108,274.676849 90.510391,280.707916 
	C95.040154,286.681671 95.469551,290.174500 92.035698,293.114929 
	C88.817139,295.871002 85.429207,295.317352 81.421616,290.770905 
	C80.907196,283.999237 82.848648,281.714691 87.522995,280.747955 
	C86.165138,279.732941 82.890732,278.427917 81.566986,276.041016 
	C79.306854,271.965729 82.461853,269.030151 85.879227,266.571686 
	C81.602364,264.531281 80.338188,261.278046 81.413055,256.828430 
	C82.822800,255.110031 83.995064,253.625214 84.943214,252.424271 
	C83.971481,251.297485 82.535393,249.632248 81.093353,247.560242 
	C81.096588,239.707123 84.543930,237.443207 92.007835,239.981842 
z"/>
<path fill="#403F40" opacity="1.000000" stroke="none" 
	d="
M294.993561,211.963364 
	C294.301758,213.727676 293.019562,215.488174 293.008087,217.256882 
	C292.869385,238.681976 292.918060,260.108307 292.917999,281.534302 
	C292.917999,284.793823 292.917999,288.053375 292.917999,291.520477 
	C294.585938,291.520477 296.501556,291.520477 298.103302,291.520477 
	C298.103302,277.531250 298.072540,263.788452 298.156860,250.046356 
	C298.164246,248.838974 298.925323,247.636230 300.134644,246.201721 
	C308.986908,245.910980 317.040894,245.849854 325.390808,245.808746 
	C326.074493,245.892990 326.462219,245.957214 326.849945,246.021423 
	C325.884369,246.395691 324.923737,247.078461 323.952423,247.093994 
	C317.798523,247.192474 311.630341,247.375671 305.490967,247.060928 
	C301.418854,246.852173 300.032837,248.022964 300.118591,252.280930 
	C300.386108,265.561066 300.216705,278.850006 300.216705,292.392029 
	C297.020264,292.392029 294.134735,292.392029 290.994202,292.392029 
	C290.994202,265.175446 290.994202,238.127563 290.994202,210.462708 
	C292.720154,210.345200 294.460114,210.128860 296.200684,210.124176 
	C307.180695,210.094589 318.160767,210.116302 329.140839,210.112411 
	C337.563629,210.109436 337.563629,210.103790 336.272369,218.789490 
	C335.237274,216.646713 334.497223,214.355820 332.913086,211.987961 
	C319.710541,211.928452 307.352051,211.945908 294.993561,211.963364 
z"/>
<path fill="#255AA1" opacity="1.000000" stroke="none" 
	d="
M93.227341,235.001846 
	C92.829964,235.353745 92.432594,235.705627 91.531738,236.366669 
	C84.741432,238.924316 81.329338,236.337204 81.067871,228.697906 
	C82.753166,226.738983 84.261223,225.071442 85.918861,223.238495 
	C81.733147,221.178223 80.067307,217.778900 81.259972,213.111313 
	C85.368103,208.767471 89.634903,208.254761 92.743622,211.731415 
	C95.889641,215.249786 94.607628,219.478577 89.002609,223.661377 
	C92.927887,225.686951 95.335426,228.513550 93.784691,233.679047 
	C93.301842,234.377945 93.193298,234.662720 93.227341,235.001846 
z"/>
<path fill="#255AA1" opacity="1.000000" stroke="none" 
	d="
M63.774532,262.958527 
	C61.117771,266.397400 57.528236,268.229187 53.945435,265.376129 
	C52.086891,263.896118 51.114246,260.334442 51.177261,257.748138 
	C51.219944,255.996384 53.761963,254.305527 55.195766,252.575836 
	C54.287910,251.720825 53.021198,250.527817 51.449776,248.697083 
	C50.521446,241.067856 54.543453,237.078354 60.017673,239.332062 
	C63.966606,240.957825 64.351227,244.318665 63.708656,248.220230 
	C62.006199,249.817535 60.538818,251.177322 58.755199,252.830170 
	C63.650753,254.821396 64.821350,258.398163 63.774532,262.958527 
z"/>
<path fill="#255AA1" opacity="1.000000" stroke="none" 
	d="
M66.054764,228.012802 
	C67.088547,226.367065 68.122337,224.721344 69.275223,222.886032 
	C65.233780,217.210251 64.715569,214.095993 67.918411,211.172241 
	C70.941956,208.412170 74.552864,208.904465 78.623276,213.226685 
	C79.928642,218.799957 77.780235,221.853836 73.674576,223.119766 
	C75.482201,225.044739 77.332062,227.014664 79.143082,229.390701 
	C77.744644,232.201508 76.896004,235.354996 74.848763,236.751984 
	C73.445305,237.709671 69.468140,237.011292 68.273094,235.635696 
	C66.697021,233.821564 66.719513,230.618668 66.054764,228.012802 
z"/>
<path fill="#E1E7F0" opacity="1.000000" stroke="none" 
	d="
M65.697678,228.011246 
	C66.719513,230.618668 66.697021,233.821564 68.273094,235.635696 
	C69.468140,237.011292 73.445305,237.709671 74.848763,236.751984 
	C76.896004,235.354996 77.744644,232.201508 79.427872,229.390884 
	C80.131210,228.986404 80.510925,228.987839 80.890633,228.989273 
	C81.329338,236.337204 84.741432,238.924316 91.391922,236.593323 
	C91.838593,237.377777 91.921577,238.244736 92.006203,239.546753 
	C84.543930,237.443207 81.096588,239.707123 80.747574,247.567993 
	C79.946678,247.989639 79.485619,247.996750 79.024551,248.003876 
	C79.361366,244.353806 79.025513,240.925781 75.094353,239.289932 
	C70.001740,237.170807 66.083794,240.629974 65.671852,247.584824 
	C64.865501,247.989548 64.404617,247.986130 63.943729,247.982727 
	C64.351227,244.318665 63.966606,240.957825 60.017673,239.332062 
	C54.543453,237.078354 50.521446,241.067856 51.188362,248.480209 
	C50.649723,248.665604 50.067799,248.430145 49.166412,247.680969 
	C48.754269,240.239655 46.444157,238.358246 39.110867,239.237946 
	C39.076622,238.730865 39.042381,238.223801 39.375748,237.367554 
	C45.952324,238.665161 49.107082,235.544846 48.810387,228.050354 
	C49.427273,227.787903 50.044155,227.525436 50.924107,227.626404 
	C50.355045,231.698929 50.649906,235.376617 54.628254,236.698898 
	C56.706509,237.389664 60.286293,236.982254 61.631729,235.578888 
	C63.254383,233.886368 63.226074,230.611023 63.912399,228.020828 
	C64.388466,228.017120 64.864532,228.013412 65.697678,228.011246 
z"/>
<path fill="#403F40" opacity="1.000000" stroke="none" 
	d="
M156.227478,292.423218 
	C157.659729,291.842804 159.376343,291.184662 161.099716,291.166382 
	C170.748093,291.064148 180.398621,291.061829 190.047241,291.152039 
	C192.666397,291.176483 194.026108,290.556885 194.001816,287.563416 
	C193.891113,273.921997 193.968307,260.279144 193.900940,246.637177 
	C193.894562,245.347183 193.351578,244.059830 193.046310,242.348267 
	C193.704514,243.549835 194.939545,245.168808 194.955627,246.799789 
	C195.104706,261.922424 195.043716,277.047119 195.043716,292.640930 
	C182.020050,292.640930 169.267502,292.640930 156.227478,292.423218 
z"/>
<path fill="#5170AF" opacity="1.000000" stroke="none" 
	d="
M174.104919,233.464996 
	C170.327026,233.580795 166.950562,233.580795 163.574081,233.580795 
	C163.494370,232.865280 163.414642,232.149750 163.334930,231.434235 
	C166.395462,230.984955 169.455994,230.535660 172.859039,230.036102 
	C172.859039,227.310791 172.859039,224.578445 172.859039,222.160858 
	C169.612869,221.173004 166.293381,220.763519 163.797333,219.110611 
	C162.784393,218.439865 163.161316,214.969223 163.627121,212.938004 
	C164.257065,210.191071 170.937912,209.736984 176.298386,213.231873 
	C173.980316,213.410873 171.613861,213.369629 169.364929,213.863464 
	C168.270370,214.103836 167.395309,215.343826 166.420883,216.131317 
	C167.344086,216.825684 168.175461,217.742889 169.209259,218.168793 
	C171.473679,219.101685 175.793686,219.697861 175.833511,220.585876 
	C176.023056,224.811981 175.059525,229.089798 174.104919,233.464996 
z"/>
<path fill="#255AA1" opacity="1.000000" stroke="none" 
	d="
M33.870579,248.964523 
	C29.539202,252.973907 24.369820,253.114761 22.015505,249.149094 
	C20.078562,245.886459 20.430880,242.528214 23.371607,240.184052 
	C26.932232,237.345779 30.464550,238.091934 33.665565,242.246338 
	C33.926743,244.921982 33.898663,246.943253 33.870579,248.964523 
z"/>
<path fill="#E1E7F0" opacity="1.000000" stroke="none" 
	d="
M81.175583,257.061981 
	C80.338188,261.278046 81.602364,264.531281 85.879227,266.571686 
	C82.461853,269.030151 79.306854,271.965729 81.566986,276.041016 
	C82.890732,278.427917 86.165138,279.732941 87.522995,280.747955 
	C82.848648,281.714691 80.907196,283.999237 81.185524,290.527100 
	C80.698593,290.948792 80.185951,290.962006 79.288803,290.975677 
	C79.757370,286.364136 78.468346,282.793793 74.700256,281.314575 
	C76.198967,278.820801 78.676155,276.463898 78.806038,273.984009 
	C78.934700,271.527618 76.696411,268.947266 75.884422,267.238190 
	C76.927246,264.049225 77.941933,260.946320 79.317551,257.433746 
	C80.177513,257.036713 80.676544,257.049347 81.175583,257.061981 
z"/>
<path fill="#403F40" opacity="1.000000" stroke="none" 
	d="
M149.104660,246.363495 
	C159.827179,245.985321 170.630966,246.135422 181.425629,245.887680 
	C185.681839,245.790009 186.996216,247.570221 186.989319,251.465805 
	C186.982544,255.298096 185.820969,257.279724 181.495361,257.109711 
	C174.361649,256.829346 167.207870,256.968201 160.064697,257.074768 
	C157.941620,257.106445 155.825775,257.621735 153.279465,257.922424 
	C155.109360,257.238098 157.351257,256.015198 159.626114,255.950500 
	C168.029068,255.711594 176.442917,255.855530 185.139893,255.855530 
	C185.139893,252.741089 185.139893,250.191864 185.139893,246.732468 
	C172.927017,246.732468 161.054657,246.732468 149.104660,246.363495 
z"/>
<path fill="#255AA1" opacity="1.000000" stroke="none" 
	d="
M48.578354,227.800598 
	C49.107082,235.544846 45.952324,238.665161 39.376938,236.986328 
	C35.680836,233.969009 34.345634,230.522644 37.220512,226.590057 
	C39.997704,222.791092 44.387173,223.260315 48.578354,227.800598 
z"/>
<path fill="#255AA1" opacity="1.000000" stroke="none" 
	d="
M63.676155,227.767670 
	C63.226074,230.611023 63.254383,233.886368 61.631729,235.578888 
	C60.286293,236.982254 56.706509,237.389664 54.628254,236.698898 
	C50.649906,235.376617 50.355045,231.698929 51.255390,227.576294 
	C56.417679,222.721985 59.150124,222.801315 63.676155,227.767670 
z"/>
<path fill="#255AA1" opacity="1.000000" stroke="none" 
	d="
M38.933441,239.467041 
	C46.444157,238.358246 48.754269,240.239655 48.869652,247.570679 
	C44.913364,253.072922 41.561890,253.444412 36.546661,248.653244 
	C36.266033,246.047958 36.283764,244.098892 36.301498,242.149841 
	C37.119671,241.331940 37.937843,240.514023 38.933441,239.467041 
z"/>
<path fill="#255AA1" opacity="1.000000" stroke="none" 
	d="
M187.918427,227.793442 
	C187.918320,225.398315 187.918320,223.447937 187.918320,221.314011 
	C185.642319,221.314011 183.861557,221.314011 181.206863,221.314011 
	C181.206863,225.279236 181.206863,229.234833 181.206863,234.126648 
	C178.384171,230.965454 177.802124,220.997192 179.170654,212.156891 
	C182.536789,212.156891 185.955948,212.156891 189.798126,212.156891 
	C189.798126,219.084045 189.798126,226.106567 189.798126,233.129089 
	C189.409592,233.223984 189.021042,233.318878 188.632507,233.413757 
	C188.394516,231.688568 188.156525,229.963379 187.918427,227.793442 
M181.148712,216.474121 
	C182.148422,221.270828 185.403900,218.057953 188.024948,218.855118 
	C187.859268,216.899002 187.741638,215.510284 187.536087,213.083511 
	C184.992310,214.095200 183.080444,214.855560 181.148712,216.474121 
z"/>
<path fill="#403F40" opacity="1.000000" stroke="none" 
	d="
M190.978745,239.617050 
	C177.377106,239.933167 163.618637,239.931046 149.386276,239.956268 
	C149.569656,239.222549 150.220779,237.804199 150.885101,237.798004 
	C162.816696,237.686539 174.750473,237.696289 186.681976,237.835632 
	C188.067459,237.851791 189.442184,238.788757 190.978745,239.617050 
z"/>
<path fill="#403F40" opacity="1.000000" stroke="none" 
	d="
M299.992249,238.967102 
	C296.879700,234.674103 297.310150,221.689926 301.072449,219.162064 
	C300.900055,225.125214 300.306244,231.023560 299.634613,237.694489 
	C308.369781,237.694489 315.938690,237.668930 323.507141,237.712936 
	C325.340668,237.723587 327.877106,236.950211 326.888977,240.688080 
	C325.919830,240.903961 325.466339,240.834305 325.012817,240.764633 
	C324.943817,240.502518 324.797363,240.295105 324.062439,239.781403 
	C315.698395,239.269318 307.845306,239.118210 299.992249,238.967102 
z"/>
<path fill="#403F40" opacity="1.000000" stroke="none" 
	d="
M216.934601,247.582657 
	C217.625885,247.227646 218.735367,246.130264 219.894577,246.074982 
	C224.310867,245.864380 228.743210,245.989990 233.564117,245.989990 
	C233.564117,243.676804 233.564117,241.796982 233.564117,239.226074 
	C229.648270,239.455307 225.666641,239.857986 221.687256,239.836838 
	C220.120926,239.828522 218.559601,238.873550 216.916031,237.985413 
	C222.742310,237.621170 228.648575,237.621170 234.794403,237.621170 
	C234.794403,241.052856 234.794403,243.783524 234.794403,247.318848 
	C228.847916,247.318848 223.111771,247.318848 216.934601,247.582657 
z"/>
<path fill="#403F40" opacity="1.000000" stroke="none" 
	d="
M433.943329,244.289581 
	C437.155975,244.904602 440.260284,245.799011 443.717957,247.322021 
	C444.074554,254.056137 444.164581,260.163147 444.056763,266.266663 
	C443.947021,272.479767 443.642426,278.689484 443.423187,284.900665 
	C443.274139,275.359772 443.115540,265.818970 442.982025,256.277863 
	C442.943207,253.503998 442.976074,250.729126 442.976074,247.412827 
	C440.661987,247.311554 438.679077,247.516052 436.875366,247.040680 
	C435.724670,246.737457 434.839294,245.427536 433.943329,244.289581 
z"/>
<path fill="#255AA1" opacity="1.000000" stroke="none" 
	d="
M157.467560,221.386047 
	C155.302414,221.195480 153.523636,221.195480 151.084000,221.195480 
	C151.084000,225.465851 151.084000,229.338623 151.084000,233.211395 
	C150.600586,233.219269 150.117172,233.227142 149.633759,233.235016 
	C149.633759,226.314545 149.633759,219.394058 149.633759,212.158707 
	C152.741547,212.158707 156.139999,212.158707 159.896561,212.158707 
	C159.896561,218.665802 159.896561,225.168640 159.896561,231.671463 
	C159.690216,231.693481 159.483871,231.715500 159.277512,231.737518 
	C158.802979,228.350555 158.328445,224.963577 157.467560,221.386047 
M155.365814,213.963272 
	C151.518082,213.506531 150.127533,214.916794 151.791641,218.982864 
	C153.268158,218.982864 154.828720,219.287781 156.175705,218.882645 
	C157.182510,218.579803 157.913773,217.360901 158.767731,216.549927 
	C157.922272,215.689011 157.076828,214.828079 155.365814,213.963272 
z"/>
<path fill="#403F40" opacity="1.000000" stroke="none" 
	d="
M445.089386,287.062439 
	C447.749268,288.410553 450.282928,290.316803 453.103424,290.954437 
	C456.102844,291.632538 459.409912,290.808624 462.518005,291.180573 
	C467.065674,291.724854 469.386688,290.010376 469.934753,285.197876 
	C470.358643,287.357422 470.502258,289.785492 470.670288,292.626221 
	C463.537903,292.626221 456.917786,293.041412 450.401062,292.402222 
	C448.103882,292.176910 446.059723,289.372101 444.207001,287.396484 
	C444.705750,287.052765 444.897552,287.057587 445.089386,287.062439 
z"/>
<path fill="#403F40" opacity="1.000000" stroke="none" 
	d="
M150.664368,260.096680 
	C150.936005,267.007599 150.718185,274.111267 150.983627,281.196808 
	C151.096924,284.221466 152.218842,287.208313 152.943390,290.595001 
	C151.872192,289.671326 149.770752,288.369873 149.764191,287.057892 
	C149.719589,278.133850 150.116333,269.207642 150.664368,260.096680 
z"/>
<path fill="#403F40" opacity="1.000000" stroke="none" 
	d="
M443.965179,238.071198 
	C440.947815,238.697617 437.930481,239.324020 434.478485,239.978699 
	C434.759430,239.238068 435.391602,237.932266 436.206940,237.805695 
	C438.259613,237.486969 440.394897,237.700195 443.224792,237.700195 
	C443.224792,228.337250 443.224792,219.725159 443.627686,211.466278 
	C444.008789,220.570084 443.986969,229.320633 443.965179,238.071198 
z"/>
<path fill="#403F40" opacity="1.000000" stroke="none" 
	d="
M212.131454,291.578491 
	C217.242538,291.231079 222.614838,290.742371 227.903198,291.207733 
	C233.138260,291.668396 234.779343,289.681641 233.988724,284.406525 
	C234.463577,286.691498 234.920425,289.426056 235.580078,293.374603 
	C227.119827,292.821075 219.737854,292.338104 212.131454,291.578491 
z"/>
<path fill="#F0F0F0" opacity="1.000000" stroke="none" 
	d="
M81.067871,228.697906 
	C80.510925,228.987839 80.131210,228.986404 79.466705,228.984787 
	C77.332062,227.014664 75.482201,225.044739 73.674576,223.119766 
	C77.780235,221.853836 79.928642,218.799957 78.879028,213.444336 
	C79.378342,213.034943 79.916557,213.043076 80.857368,213.081268 
	C80.067307,217.778900 81.733147,221.178223 85.918861,223.238495 
	C84.261223,225.071442 82.753166,226.738983 81.067871,228.697906 
z"/>
<path fill="#F0F0F0" opacity="1.000000" stroke="none" 
	d="
M63.708656,248.220215 
	C64.404617,247.986130 64.865501,247.989548 65.672058,247.994354 
	C67.429276,249.613693 68.840820,251.231628 69.459358,251.940598 
	C68.327614,255.397110 67.224899,258.764984 66.157242,262.549561 
	C65.655159,262.971283 65.118011,262.976288 64.177696,262.969910 
	C64.821350,258.398163 63.650753,254.821396 58.755199,252.830170 
	C60.538818,251.177322 62.006199,249.817535 63.708656,248.220215 
z"/>
<path fill="#403F40" opacity="1.000000" stroke="none" 
	d="
M207.248444,236.509354 
	C206.437622,237.101151 205.282135,238.877533 204.213501,238.826736 
	C198.920853,238.575134 198.444366,241.289413 199.369431,245.228683 
	C202.324295,245.953140 205.022888,246.614761 207.568054,247.568420 
	C204.529831,247.499924 201.645035,247.139389 198.363434,246.729248 
	C198.363434,243.987411 198.363434,241.158295 198.363434,238.258316 
	C201.292313,237.778122 204.118088,237.314819 207.248444,236.509354 
z"/>
<path fill="#403F40" opacity="1.000000" stroke="none" 
	d="
M470.355835,239.771271 
	C465.492401,240.000748 460.752594,240.119492 456.042084,239.802750 
	C454.660248,239.709839 453.361603,238.380554 452.066528,237.196365 
	C456.970245,237.081909 461.842987,237.281464 466.687103,237.767029 
	C467.999481,237.898575 469.225159,238.894943 470.355835,239.771271 
z"/>
<path fill="#403F40" opacity="1.000000" stroke="none" 
	d="
M452.458618,247.869720 
	C455.358398,243.933609 459.943024,245.272736 464.230896,245.312393 
	C465.955383,245.328339 467.680634,245.262115 469.778687,245.094467 
	C469.144501,245.685211 468.178833,246.969589 467.122589,247.049042 
	C462.373138,247.406265 457.597992,247.421371 452.458618,247.869720 
z"/>
<path fill="#0B0A0B" opacity="1.000000" stroke="none" 
	d="
M445.056580,286.588379 
	C444.897552,287.057587 444.705750,287.052765 444.226318,287.039764 
	C443.742615,286.508575 443.546631,285.985565 443.386902,285.181610 
	C443.642426,278.689484 443.947021,272.479767 444.056763,266.266663 
	C444.164581,260.163147 444.074554,254.056137 444.064697,247.484009 
	C444.374420,248.747757 444.951447,250.476120 444.964905,252.208862 
	C445.052673,263.510132 445.018250,274.812378 445.056580,286.588379 
z"/>
<path fill="#0B0A0B" opacity="1.000000" stroke="none" 
	d="
M340.420471,292.235901 
	C340.353821,291.771973 340.734009,291.211884 341.110992,291.214050 
	C353.262207,291.282837 365.413116,291.405884 377.831757,291.860901 
	C365.688263,292.267944 353.277039,292.334900 340.420471,292.235901 
z"/>
<path fill="#0B0A0B" opacity="1.000000" stroke="none" 
	d="
M386.514465,292.391846 
	C386.712280,291.856781 387.363098,291.082611 388.009521,291.086243 
	C399.504791,291.150696 410.999542,291.309662 422.768250,291.773529 
	C411.016571,292.237457 398.990997,292.376099 386.514465,292.391846 
z"/>
<path fill="#0B0A0B" opacity="1.000000" stroke="none" 
	d="
M444.273071,237.775024 
	C443.986969,229.320633 444.008789,220.570084 443.986267,211.343552 
	C444.286133,210.743042 444.630371,210.618500 445.727753,210.750977 
	C447.479706,210.886948 448.478516,210.765915 449.477325,210.644867 
	C449.848328,210.601364 450.219330,210.557861 450.837219,210.654541 
	C449.303467,211.413910 447.522858,212.033112 444.580963,213.056137 
	C444.580963,220.811188 444.580963,229.145020 444.273071,237.775024 
z"/>
<path fill="#403F40" opacity="1.000000" stroke="none" 
	d="
M215.678818,210.834137 
	C213.369049,211.332855 210.825912,211.629700 207.924088,211.990067 
	C210.192093,211.579803 212.818756,211.106033 215.678818,210.834137 
z"/>
<path fill="#E1E7F0" opacity="1.000000" stroke="none" 
	d="
M35.899696,242.110291 
	C36.283764,244.098892 36.266033,246.047958 36.293087,248.415497 
	C35.790195,248.875244 35.242519,248.916473 34.282711,248.961121 
	C33.898663,246.943253 33.926743,244.921982 33.919285,242.465469 
	C34.421795,242.043732 34.959843,242.057251 35.899696,242.110291 
z"/>
<path fill="#0B0A0B" opacity="1.000000" stroke="none" 
	d="
M325.010803,241.191010 
	C325.466339,240.834305 325.919830,240.903961 326.717224,240.974655 
	C327.106354,242.396561 327.151611,243.817444 327.023407,245.629883 
	C326.462219,245.957214 326.074493,245.892990 325.354919,245.608765 
	C325.023071,245.388733 324.978699,244.982330 324.978699,244.982330 
	C324.988708,243.860687 324.998749,242.739044 325.010803,241.191010 
z"/>
<path fill="#403F40" opacity="1.000000" stroke="none" 
	d="
M207.794769,286.248474 
	C208.558060,287.074188 209.268433,288.197968 209.994308,289.623199 
	C209.253830,288.798645 208.497849,287.672577 207.794769,286.248474 
z"/>
<path fill="#403F40" opacity="1.000000" stroke="none" 
	d="
M449.283752,210.455017 
	C448.478516,210.765915 447.479706,210.886948 446.001770,210.827728 
	C446.711853,210.520035 447.901001,210.392593 449.283752,210.455017 
z"/>
<path fill="#E1E7F0" opacity="1.000000" stroke="none" 
	d="
M93.435135,234.885788 
	C93.193298,234.662720 93.301842,234.377945 93.752892,234.022278 
	C93.990547,234.238052 93.887253,234.528946 93.435135,234.885788 
z"/>
<path fill="#F6F6F6" opacity="1.000000" stroke="none" 
	d="
M109.576859,219.416992 
	C118.146935,219.402954 126.262230,219.402954 134.578873,219.402954 
	C134.578873,240.937119 134.578873,261.872864 134.578873,283.206787 
	C125.700157,283.206787 116.823074,283.206787 107.578781,283.206787 
	C107.477020,281.708374 107.295799,280.270050 107.294312,278.831543 
	C107.275543,260.678314 107.235260,242.524734 107.363182,224.372406 
	C107.374817,222.721222 108.509117,221.077972 109.576859,219.416992 
z"/>
<path fill="#2A2828" opacity="1.000000" stroke="none" 
	d="
M100.999695,263.000000 
	C100.999695,271.626526 100.999695,279.753082 100.999695,287.879608 
	C100.765869,287.878723 100.532051,287.877838 100.298225,287.876953 
	C100.298225,263.693390 100.298225,239.509842 100.298225,215.326279 
	C100.532051,215.322433 100.765869,215.318573 100.999695,215.314728 
	C100.999695,231.043152 100.999695,246.771576 100.999695,263.000000 
z"/>
<path fill="#2A2828" opacity="1.000000" stroke="none" 
	d="
M121.988190,213.000000 
	C115.364380,213.000000 109.237724,213.000000 103.111076,213.000000 
	C103.112183,212.765320 103.113297,212.530624 103.114410,212.295944 
	C113.636299,212.295944 124.158188,212.295944 134.680069,212.295944 
	C134.694092,212.530624 134.708115,212.765320 134.722122,213.000000 
	C130.643204,213.000000 126.564278,213.000000 121.988190,213.000000 
z"/>
<path fill="#2A2828" opacity="1.000000" stroke="none" 
	d="
M115.019608,290.983643 
	C110.726402,290.983612 106.928879,290.983612 103.131348,290.983612 
	C103.133194,290.752258 103.135040,290.520905 103.136894,290.289551 
	C113.642845,290.289551 124.148796,290.289551 134.654739,290.289551 
	C134.664597,290.520905 134.674438,290.752289 134.684296,290.983643 
	C128.294617,290.983643 121.904953,290.983643 115.019608,290.983643 
z"/>
<path fill="#F6F6F6" opacity="1.000000" stroke="none" 
	d="
M264.971252,265.150513 
	C268.755219,265.150513 272.045410,265.150513 275.678528,265.150513 
	C275.678528,271.352295 275.678528,277.087952 275.678528,283.193115 
	C266.827301,283.193115 257.952271,283.193115 248.869171,283.193115 
	C248.869171,277.218506 248.869171,271.479950 248.869171,265.150482 
	C254.257263,265.150482 259.367340,265.150482 264.971252,265.150513 
z"/>
<path fill="#0B0A0B" opacity="1.000000" stroke="none" 
	d="
M261.995850,239.992554 
	C255.371796,239.992554 249.246445,239.992554 243.121109,239.992554 
	C243.122360,239.774200 243.123611,239.555832 243.124863,239.337479 
	C254.304794,239.337479 265.484741,239.337479 276.664673,239.337479 
	C276.675598,239.555832 276.686523,239.774200 276.697449,239.992554 
	C271.963165,239.992554 267.228851,239.992554 261.995850,239.992554 
z"/>
<path fill="#2A2828" opacity="1.000000" stroke="none" 
	d="
M256.358521,289.998779 
	C263.863953,289.998779 270.917633,289.998779 277.971283,289.998779 
	C277.966980,290.243652 277.962677,290.488556 277.958374,290.733429 
	C269.330200,290.733429 260.702026,290.733429 252.073868,290.733429 
	C252.068970,290.549957 252.064087,290.366516 252.059204,290.183044 
	C253.341705,290.121643 254.624207,290.060211 256.358521,289.998779 
z"/>
<path fill="#0B0A0B" opacity="1.000000" stroke="none" 
	d="
M239.868042,246.181366 
	C239.962265,244.829498 240.131363,243.433075 240.300446,242.036652 
	C240.533157,242.070068 240.765854,242.103470 240.998566,242.136887 
	C240.782776,243.337692 240.567001,244.538498 240.091003,246.004211 
	C239.830780,246.269104 239.942902,246.136795 239.868042,246.181366 
z"/>
<path fill="#F0F0F0" opacity="1.000000" stroke="none" 
	d="
M347.270142,256.052063 
	C339.080109,256.385468 343.596924,250.786163 342.167664,247.357895 
	C351.595062,247.357895 360.415863,247.357895 369.597992,247.357895 
	C369.597992,250.056351 369.597992,252.748993 369.597992,256.052185 
	C362.205963,256.052185 354.972229,256.052185 347.270142,256.052063 
z"/>
<path fill="#0B0A0B" opacity="1.000000" stroke="none" 
	d="
M360.001068,263.011627 
	C365.958984,263.011597 371.417999,263.011597 376.876984,263.011597 
	C376.875549,263.229187 376.874115,263.446777 376.872681,263.664368 
	C366.028107,263.664368 355.183502,263.664368 344.338898,263.664368 
	C344.328583,263.446808 344.318268,263.229218 344.307953,263.011658 
	C349.372681,263.011658 354.437408,263.011658 360.001068,263.011627 
z"/>
<path fill="#F0F0F0" opacity="1.000000" stroke="none" 
	d="
M165.125458,265.101440 
	C172.071411,265.101471 178.532486,265.101471 185.344604,265.101471 
	C185.344604,271.265442 185.344604,277.014404 185.344604,283.189667 
	C176.585510,283.189667 167.711395,283.189667 158.481873,283.189667 
	C158.481873,277.440125 158.481873,271.710907 158.481873,265.101440 
	C160.496628,265.101440 162.568604,265.101440 165.125458,265.101440 
z"/>
<path fill="#F0F0F0" opacity="1.000000" stroke="none" 
	d="
M81.413055,256.828430 
	C80.676544,257.049347 80.177513,257.036713 79.304085,257.023071 
	C77.644958,255.311340 76.360222,253.600632 74.961128,251.737671 
	C75.593246,251.179352 77.094116,249.853699 78.809769,248.265961 
	C79.485619,247.996750 79.946678,247.989639 80.753525,247.974777 
	C82.535393,249.632248 83.971481,251.297485 84.943214,252.424271 
	C83.995064,253.625214 82.822800,255.110031 81.413055,256.828430 
z"/>
<path fill="#201E1E" opacity="1.000000" stroke="none" 
	d="
M324.598450,244.816727 
	C324.978699,244.982330 325.023071,245.388733 325.058960,245.588715 
	C317.040894,245.849854 308.986908,245.910980 300.463989,245.990479 
	C301.911987,245.299042 303.825500,243.999420 305.746521,243.988297 
	C311.902252,243.952606 318.060760,244.393890 324.598450,244.816727 
z"/>
<path fill="#2A2828" opacity="1.000000" stroke="none" 
	d="
M295.282990,212.268478 
	C307.352051,211.945908 319.710541,211.928452 332.538330,211.936386 
	C332.454681,212.286270 331.900146,212.896286 331.348999,212.893265 
	C319.423248,212.827896 307.497864,212.694153 295.282990,212.268478 
z"/>
<path fill="#0B0A0B" opacity="1.000000" stroke="none" 
	d="
M300.282043,239.271271 
	C307.845306,239.118210 315.698395,239.269318 323.884094,239.705688 
	C316.335083,239.852463 308.453461,239.713959 300.282043,239.271271 
z"/>
<path fill="#F0F0F0" opacity="1.000000" stroke="none" 
	d="
M181.158661,216.045013 
	C183.080444,214.855560 184.992310,214.095200 187.536087,213.083511 
	C187.741638,215.510284 187.859268,216.899002 188.024948,218.855118 
	C185.403900,218.057953 182.148422,221.270828 181.158661,216.045013 
z"/>
<path fill="#E1E7F0" opacity="1.000000" stroke="none" 
	d="
M155.798584,213.965210 
	C157.076828,214.828079 157.922272,215.689011 158.767731,216.549927 
	C157.913773,217.360901 157.182510,218.579803 156.175705,218.882645 
	C154.828720,219.287781 153.268158,218.982864 151.791641,218.982864 
	C150.127533,214.916794 151.518082,213.506531 155.798584,213.965210 
z"/>
</svg>