<svg version="1.1" id="Layer_1" xmlns="http://www.w3.org/2000/svg" xmlns:xlink="http://www.w3.org/1999/xlink" x="0px" y="0px"
	 width="100%" viewBox="0 0 2404 2404" enable-background="new 0 0 2404 2404" xml:space="preserve">
<path fill="#925FC3" opacity="1.000000" stroke="none" 
	d="
M2.000000,1254.000000 
	C2.000000,1221.291504 2.000000,1188.583130 2.687817,1154.467041 
	C3.754401,1146.836548 4.133169,1140.613647 4.946250,1133.664551 
	C7.478491,1108.797119 9.145889,1084.609131 11.760793,1060.524048 
	C17.869469,1004.258911 28.866537,948.911377 43.381729,894.204102 
	C63.586220,818.054138 91.074829,744.667542 125.843651,674.010315 
	C151.896362,621.065979 181.777420,570.367371 215.266098,521.749084 
	C267.232849,446.304749 327.285156,377.928223 394.722717,316.064758 
	C436.203766,278.012299 480.350891,243.223755 526.868713,211.447754 
	C595.264587,164.727066 667.587158,125.312027 744.087524,93.540840 
	C805.359985,68.093918 868.196960,47.343361 932.968384,33.078209 
	C970.246399,24.868153 1007.931641,18.186167 1045.699951,12.625904 
	C1075.543457,8.232341 1105.793213,6.598617 1136.759521,3.833480 
	C1143.770996,3.285141 1149.885498,2.642571 1156.000000,2.000000 
	C1188.708496,2.000000 1221.416870,2.000000 1255.576172,2.648265 
	C1263.369751,3.495810 1269.712524,3.695089 1276.936646,4.046000 
	C1284.099609,4.691717 1290.375366,5.288396 1296.664185,5.662818 
	C1331.178101,7.717685 1365.389526,12.233259 1399.532227,17.590923 
	C1463.094849,27.565155 1525.315674,43.030090 1586.281982,63.374157 
	C1653.336182,85.749733 1717.920532,113.877678 1780.071777,147.713440 
	C1866.169434,194.585953 1945.328491,251.140732 2017.548462,317.266632 
	C2051.421387,348.281250 2083.439697,381.228821 2113.625977,415.966797 
	C2172.835449,484.104645 2223.664795,557.953430 2266.415039,637.385254 
	C2298.345703,696.713867 2324.778320,758.462219 2346.188721,822.330994 
	C2364.074951,875.685791 2378.225830,930.037781 2388.136475,985.448914 
	C2395.976807,1029.284180 2402.654053,1073.276611 2404.139404,1118.738892 
	C2404.692627,1124.398682 2405.346436,1129.199341 2406.000000,1134.000000 
	C2406.000000,1180.708496 2406.000000,1227.416870 2405.357422,1275.548340 
	C2404.599121,1281.371216 2404.482910,1285.771362 2404.238281,1291.080811 
	C2403.517090,1301.270630 2403.025146,1310.558594 2402.313721,1319.829712 
	C2399.258301,1359.641602 2393.200195,1399.058350 2385.503906,1438.186646 
	C2365.557617,1539.594116 2332.853760,1636.807983 2287.827148,1729.821411 
	C2264.878662,1777.227173 2238.704834,1822.848145 2209.613037,1866.760742 
	C2172.957275,1922.090210 2132.180908,1974.166870 2086.849609,2022.704956 
	C2055.910156,2055.833008 2023.584473,2087.505127 1989.178345,2116.977295 
	C1946.406738,2153.614990 1901.381714,2187.274170 1853.883179,2217.626709 
	C1807.792603,2247.079834 1760.099731,2273.599609 1710.429565,2296.448975 
	C1637.376831,2330.054443 1561.816406,2356.467529 1483.421387,2374.738037 
	C1416.920410,2390.236572 1349.752197,2400.840576 1281.515503,2404.371582 
	C1279.653809,2404.467773 1277.837402,2405.437500 1276.000000,2406.000000 
	C1229.291504,2406.000000 1182.583130,2406.000000 1134.376221,2405.382080 
	C1114.677002,2403.273438 1096.377930,2402.525146 1078.296021,2400.134277 
	C1043.398438,2395.519775 1008.456970,2390.895996 973.835449,2384.612793 
	C917.455383,2374.381104 862.396973,2358.874268 808.277588,2339.995117 
	C763.909851,2324.517578 720.586670,2306.534912 678.401672,2285.905029 
	C622.077332,2258.359863 568.216492,2226.573242 516.790894,2190.648438 
	C473.340820,2160.295166 431.773682,2127.522949 393.148682,2091.305420 
	C365.482971,2065.364502 339.006989,2038.068237 313.139008,2010.315186 
	C265.802399,1959.528931 224.533096,1903.976807 187.538391,1845.263062 
	C159.999100,1801.555786 135.219025,1756.330444 113.540573,1709.414307 
	C94.114151,1667.372070 77.024406,1624.386108 62.662956,1580.385742 
	C46.033680,1529.437500 32.591663,1477.627808 23.085705,1424.824707 
	C14.482811,1377.037842 7.972473,1329.020874 5.651977,1280.482788 
	C5.545237,1278.250000 4.708990,1276.052124 4.265319,1272.958496 
	C3.532195,1266.054321 6.422719,1259.558228 2.000000,1254.000000 
M2133.702148,1602.752319 
	C2141.751953,1582.312622 2150.337646,1562.065063 2157.739258,1541.393311 
	C2172.901855,1499.045288 2185.384033,1455.874268 2193.948486,1411.689087 
	C2199.129639,1384.958618 2203.823486,1358.103149 2207.629639,1331.147461 
	C2210.179688,1313.085571 2211.058594,1294.766602 2212.196533,1276.531982 
	C2213.666016,1252.983154 2215.030273,1229.414429 2215.682129,1205.833252 
	C2216.021240,1193.572144 2214.757568,1181.264771 2214.169922,1168.980469 
	C2213.518555,1155.366455 2212.749268,1141.757935 2212.143066,1128.141968 
	C2210.870117,1099.551514 2206.665283,1071.316528 2202.370117,1043.064209 
	C2194.145264,988.966248 2180.913330,936.078430 2163.506836,884.294312 
	C2154.605957,857.814636 2144.742432,831.546936 2133.428711,806.018799 
	C2119.814209,775.299133 2105.097900,744.983398 2089.211426,715.376770 
	C2070.317871,680.165894 2048.425049,646.704712 2025.032227,614.248352 
	C1998.522583,577.467468 1969.705200,542.596191 1938.508301,509.747192 
	C1911.207886,481.001251 1882.301392,453.933075 1851.816284,428.507660 
	C1822.882446,404.376038 1792.778076,381.832123 1761.368530,361.144592 
	C1709.821289,327.193573 1655.638794,298.053436 1598.656738,274.098328 
	C1554.372192,255.481293 1509.139282,239.832108 1462.663696,227.751907 
	C1410.462036,214.183365 1357.589722,204.648117 1303.830566,199.529907 
	C1273.343750,196.627396 1242.824463,195.324692 1212.279541,194.325729 
	C1198.028809,193.859665 1183.706177,195.074387 1169.435181,195.868958 
	C1148.536621,197.032516 1127.605103,197.981369 1106.779785,199.981277 
	C1083.321167,202.234116 1059.821411,204.697296 1036.594360,208.589203 
	C992.277649,216.014893 948.589966,226.409790 905.681824,239.861801 
	C841.297424,260.046783 779.398315,286.041992 720.278870,318.691498 
	C675.303467,343.529785 632.462341,371.509583 591.670593,402.741058 
	C550.901245,433.955383 512.344238,467.580261 477.451691,505.300568 
	C463.216858,520.689026 448.900146,536.017639 435.139771,551.825317 
	C412.393860,577.955383 391.535828,605.578796 371.938324,634.144531 
	C339.078003,682.042419 310.641296,732.461121 286.467377,785.260681 
	C279.263824,800.994263 271.973724,816.779297 266.232117,833.072388 
	C254.177307,867.280518 242.123840,901.549866 231.974915,936.349731 
	C223.888672,964.076843 217.743500,992.460754 212.377350,1020.863098 
	C207.636948,1045.953247 204.557877,1071.407349 201.859802,1096.819092 
	C199.196198,1121.906006 196.812897,1147.120239 196.335815,1172.316895 
	C195.750290,1203.240967 196.699738,1234.229980 198.071945,1265.142822 
	C199.057480,1287.344849 201.558502,1309.495361 203.853226,1331.620117 
	C208.044586,1372.031250 215.621185,1411.908691 226.139832,1451.082275 
	C234.848618,1483.515381 244.511108,1515.794556 255.841660,1547.392334 
	C266.836700,1578.054443 279.486603,1608.229370 293.204346,1637.785278 
	C317.508118,1690.149536 347.041382,1739.586792 380.321442,1786.809814 
	C407.407257,1825.243530 437.193756,1861.469482 469.213623,1895.796997 
	C493.289062,1921.607666 518.881226,1945.930664 545.666138,1969.015259 
	C574.702942,1994.040771 604.922729,2017.484131 636.591797,2039.011108 
	C689.880737,2075.233887 746.008301,2106.305908 805.237610,2131.876465 
	C855.811768,2153.710693 907.760803,2171.284180 961.152283,2184.581787 
	C1005.371643,2195.594971 1050.089722,2204.040039 1095.539429,2208.166016 
	C1116.704468,2210.087646 1137.856689,2213.251465 1159.047119,2213.549072 
	C1194.644287,2214.049316 1230.289429,2213.287598 1265.871460,2211.931152 
	C1288.071655,2211.084229 1310.212524,2208.364990 1332.345093,2206.138184 
	C1366.785400,2202.672852 1400.707520,2196.124512 1434.396729,2188.301758 
	C1490.633667,2175.243896 1545.272949,2157.353027 1598.523315,2135.009766 
	C1640.992432,2117.190430 1681.926636,2096.385498 1721.461182,2072.890381 
	C1765.883789,2046.490112 1808.083008,2016.853149 1847.776123,1983.675781 
	C1877.925781,1958.475342 1906.959106,1932.176514 1934.013916,1903.589722 
	C1955.776245,1880.595337 1977.176147,1857.321045 1996.475952,1832.265137 
	C2014.137939,1809.335693 2031.622314,1786.170288 2047.544189,1762.026733 
	C2064.387939,1736.485229 2080.229492,1710.171753 2094.778320,1683.259888 
	C2108.698242,1657.511475 2120.394531,1630.561035 2133.702148,1602.752319 
z"/>
<path fill="#FFFFFF" opacity="1.000000" stroke="none" 
	d="
M1135.862549,3.739250 
	C1105.793213,6.598617 1075.543457,8.232341 1045.699951,12.625904 
	C1007.931641,18.186167 970.246399,24.868153 932.968384,33.078209 
	C868.196960,47.343361 805.359985,68.093918 744.087524,93.540840 
	C667.587158,125.312027 595.264587,164.727066 526.868713,211.447754 
	C480.350891,243.223755 436.203766,278.012299 394.722717,316.064758 
	C327.285156,377.928223 267.232849,446.304749 215.266098,521.749084 
	C181.777420,570.367371 151.896362,621.065979 125.843651,674.010315 
	C91.074829,744.667542 63.586220,818.054138 43.381729,894.204102 
	C28.866537,948.911377 17.869469,1004.258911 11.760793,1060.524048 
	C9.145889,1084.609131 7.478491,1108.797119 4.321678,1133.541992 
	C2.841861,1134.097168 2.420931,1134.048584 2.000000,1134.000000 
	C2.000000,756.812378 2.000000,379.624725 2.000000,2.000000 
	C379.375000,2.000000 756.750183,2.000000 1135.024170,2.434479 
	C1135.922852,2.868957 1135.862549,3.739252 1135.862549,3.739250 
z"/>
<path fill="#FFFFFF" opacity="1.000000" stroke="none" 
	d="
M4.212507,1273.838013 
	C4.708990,1276.052124 5.545237,1278.250000 5.651977,1280.482788 
	C7.972473,1329.020874 14.482811,1377.037842 23.085705,1424.824707 
	C32.591663,1477.627808 46.033680,1529.437500 62.662956,1580.385742 
	C77.024406,1624.386108 94.114151,1667.372070 113.540573,1709.414307 
	C135.219025,1756.330444 159.999100,1801.555786 187.538391,1845.263062 
	C224.533096,1903.976807 265.802399,1959.528931 313.139008,2010.315186 
	C339.006989,2038.068237 365.482971,2065.364502 393.148682,2091.305420 
	C431.773682,2127.522949 473.340820,2160.295166 516.790894,2190.648438 
	C568.216492,2226.573242 622.077332,2258.359863 678.401672,2285.905029 
	C720.586670,2306.534912 763.909851,2324.517578 808.277588,2339.995117 
	C862.396973,2358.874268 917.455383,2374.381104 973.835449,2384.612793 
	C1008.456970,2390.895996 1043.398438,2395.519775 1078.296021,2400.134277 
	C1096.377930,2402.525146 1114.677002,2403.273438 1133.438965,2405.382080 
	C756.812500,2406.000000 379.624939,2406.000000 2.000000,2406.000000 
	C2.000000,2029.291626 2.000000,1652.583130 2.555218,1274.925293 
	C3.477792,1273.930176 3.845148,1273.884155 4.212507,1273.838013 
z"/>
<path fill="#FFFFFF" opacity="1.000000" stroke="none" 
	d="
M2404.239990,1117.879761 
	C2402.654053,1073.276611 2395.976807,1029.284180 2388.136475,985.448914 
	C2378.225830,930.037781 2364.074951,875.685791 2346.188721,822.330994 
	C2324.778320,758.462219 2298.345703,696.713867 2266.415039,637.385254 
	C2223.664795,557.953430 2172.835449,484.104645 2113.625977,415.966797 
	C2083.439697,381.228821 2051.421387,348.281250 2017.548462,317.266632 
	C1945.328491,251.140732 1866.169434,194.585953 1780.071777,147.713440 
	C1717.920532,113.877678 1653.336182,85.749733 1586.281982,63.374157 
	C1525.315674,43.030090 1463.094849,27.565155 1399.532227,17.590923 
	C1365.389526,12.233259 1331.178101,7.717685 1296.664185,5.662818 
	C1290.375366,5.288396 1284.099609,4.691717 1276.905518,3.572943 
	C1275.993286,2.948254 1276.000000,2.000000 1276.000000,2.000000 
	C1652.519897,2.000000 2029.039917,2.000000 2406.000000,2.000000 
	C2406.000000,373.375000 2406.000000,744.750183 2405.561035,1117.017578 
	C2405.122070,1117.909668 2404.239990,1117.879761 2404.239990,1117.879761 
z"/>
<path fill="#FFFFFF" opacity="1.000000" stroke="none" 
	d="
M1276.937256,2406.000000 
	C1277.837402,2405.437500 1279.653809,2404.467773 1281.515503,2404.371582 
	C1349.752197,2400.840576 1416.920410,2390.236572 1483.421387,2374.738037 
	C1561.816406,2356.467529 1637.376831,2330.054443 1710.429565,2296.448975 
	C1760.099731,2273.599609 1807.792603,2247.079834 1853.883179,2217.626709 
	C1901.381714,2187.274170 1946.406738,2153.614990 1989.178345,2116.977295 
	C2023.584473,2087.505127 2055.910156,2055.833008 2086.849609,2022.704956 
	C2132.180908,1974.166870 2172.957275,1922.090210 2209.613037,1866.760742 
	C2238.704834,1822.848145 2264.878662,1777.227173 2287.827148,1729.821411 
	C2332.853760,1636.807983 2365.557617,1539.594116 2385.503906,1438.186646 
	C2393.200195,1399.058350 2399.258301,1359.641602 2402.313721,1319.829712 
	C2403.025146,1310.558594 2403.517090,1301.270630 2404.652832,1291.098877 
	C2405.195801,1290.207275 2406.000000,1290.000000 2406.000000,1290.000000 
	C2406.000000,1661.855103 2406.000000,2033.710083 2406.000000,2406.000000 
	C2029.958374,2406.000000 1653.916504,2406.000000 1276.937256,2406.000000 
z"/>
<path fill="#DECEED" opacity="1.000000" stroke="none" 
	d="
M2.000000,1134.908203 
	C2.420931,1134.048584 2.841861,1134.097168 3.887364,1134.268311 
	C4.133169,1140.613647 3.754401,1146.836548 2.687817,1153.529663 
	C2.000000,1147.938843 2.000000,1141.877563 2.000000,1134.908203 
z"/>
<path fill="#D9C7EA" opacity="1.000000" stroke="none" 
	d="
M4.265317,1272.958496 
	C3.845148,1273.884155 3.477792,1273.930176 2.555218,1273.988037 
	C2.000000,1267.938843 2.000000,1261.877563 2.000000,1254.908203 
	C6.422719,1259.558228 3.532195,1266.054321 4.265317,1272.958496 
z"/>
<path fill="#DBCAEB" opacity="1.000000" stroke="none" 
	d="
M1275.091797,2.000000 
	C1276.000000,2.000000 1275.993286,2.948254 1276.024414,3.421311 
	C1269.712524,3.695089 1263.369751,3.495810 1256.513428,2.648265 
	C1262.061157,2.000000 1268.122437,2.000000 1275.091797,2.000000 
z"/>
<path fill="#D8C6EA" opacity="1.000000" stroke="none" 
	d="
M1136.759521,3.833481 
	C1135.862549,3.739252 1135.922852,2.868957 1135.961426,2.434479 
	C1142.061157,2.000000 1148.122437,2.000000 1155.091797,2.000000 
	C1149.885498,2.642571 1143.770996,3.285141 1136.759521,3.833481 
z"/>
<path fill="#DAC8EA" opacity="1.000000" stroke="none" 
	d="
M2404.139404,1118.738892 
	C2404.239990,1117.879761 2405.122070,1117.909668 2405.561035,1117.954834 
	C2406.000000,1122.741089 2406.000000,1127.482300 2406.000000,1133.111694 
	C2405.346436,1129.199341 2404.692627,1124.398682 2404.139404,1118.738892 
z"/>
<path fill="#DBCAEB" opacity="1.000000" stroke="none" 
	d="
M2406.000000,1289.125000 
	C2406.000000,1290.000000 2405.195801,1290.207275 2404.781250,1290.189331 
	C2404.482910,1285.771362 2404.599121,1281.371216 2405.357422,1276.485596 
	C2406.000000,1280.083374 2406.000000,1284.166626 2406.000000,1289.125000 
z"/>
<path fill="#602D91" opacity="1.000000" stroke="none" 
	d="
M2133.385254,1603.445679 
	C2120.394531,1630.561035 2108.698242,1657.511475 2094.778320,1683.259888 
	C2080.229492,1710.171753 2064.387939,1736.485229 2047.544189,1762.026733 
	C2031.622314,1786.170288 2014.137939,1809.335693 1996.475952,1832.265137 
	C1977.176147,1857.321045 1955.776245,1880.595337 1934.013916,1903.589722 
	C1906.959106,1932.176514 1877.925781,1958.475342 1847.776123,1983.675781 
	C1808.083008,2016.853149 1765.883789,2046.490112 1721.461182,2072.890381 
	C1681.926636,2096.385498 1640.992432,2117.190430 1598.523315,2135.009766 
	C1545.272949,2157.353027 1490.633667,2175.243896 1434.396729,2188.301758 
	C1400.707520,2196.124512 1366.785400,2202.672852 1332.345093,2206.138184 
	C1310.212524,2208.364990 1288.071655,2211.084229 1265.871460,2211.931152 
	C1230.289429,2213.287598 1194.644287,2214.049316 1159.047119,2213.549072 
	C1137.856689,2213.251465 1116.704468,2210.087646 1095.539429,2208.166016 
	C1050.089722,2204.040039 1005.371643,2195.594971 961.152283,2184.581787 
	C907.760803,2171.284180 855.811768,2153.710693 805.237610,2131.876465 
	C746.008301,2106.305908 689.880737,2075.233887 636.591797,2039.011108 
	C604.922729,2017.484131 574.702942,1994.040771 545.666138,1969.015259 
	C518.881226,1945.930664 493.289062,1921.607666 469.213623,1895.796997 
	C437.193756,1861.469482 407.407257,1825.243530 380.321442,1786.809814 
	C347.041382,1739.586792 317.508118,1690.149536 293.204346,1637.785278 
	C279.486603,1608.229370 266.836700,1578.054443 255.841660,1547.392334 
	C244.511108,1515.794556 234.848618,1483.515381 226.139832,1451.082275 
	C215.621185,1411.908691 208.044586,1372.031250 203.853226,1331.620117 
	C201.558502,1309.495361 199.057480,1287.344849 198.071945,1265.142822 
	C196.699738,1234.229980 195.750290,1203.240967 196.335815,1172.316895 
	C196.812897,1147.120239 199.196198,1121.906006 201.859802,1096.819092 
	C204.557877,1071.407349 207.636948,1045.953247 212.377350,1020.863098 
	C217.743500,992.460754 223.888672,964.076843 231.974915,936.349731 
	C242.123840,901.549866 254.177307,867.280518 266.232117,833.072388 
	C271.973724,816.779297 279.263824,800.994263 286.467377,785.260681 
	C310.641296,732.461121 339.078003,682.042419 371.938324,634.144531 
	C391.535828,605.578796 412.393860,577.955383 435.139771,551.825317 
	C448.900146,536.017639 463.216858,520.689026 477.451691,505.300568 
	C512.344238,467.580261 550.901245,433.955383 591.670593,402.741058 
	C632.462341,371.509583 675.303467,343.529785 720.278870,318.691498 
	C779.398315,286.041992 841.297424,260.046783 905.681824,239.861801 
	C948.589966,226.409790 992.277649,216.014893 1036.594360,208.589203 
	C1059.821411,204.697296 1083.321167,202.234116 1106.779785,199.981277 
	C1127.605103,197.981369 1148.536621,197.032516 1169.435181,195.868958 
	C1183.706177,195.074387 1198.028809,193.859665 1212.279541,194.325729 
	C1242.824463,195.324692 1273.343750,196.627396 1303.830566,199.529907 
	C1357.589722,204.648117 1410.462036,214.183365 1462.663696,227.751907 
	C1509.139282,239.832108 1554.372192,255.481293 1598.656738,274.098328 
	C1655.638794,298.053436 1709.821289,327.193573 1761.368530,361.144592 
	C1792.778076,381.832123 1822.882446,404.376038 1851.816284,428.507660 
	C1882.301392,453.933075 1911.207886,481.001251 1938.508301,509.747192 
	C1969.705200,542.596191 1998.522583,577.467468 2025.032227,614.248352 
	C2048.425049,646.704712 2070.317871,680.165894 2089.211426,715.376770 
	C2105.097900,744.983398 2119.814209,775.299133 2133.428711,806.018799 
	C2144.742432,831.546936 2154.605957,857.814636 2163.506836,884.294312 
	C2180.913330,936.078430 2194.145264,988.966248 2202.370117,1043.064209 
	C2206.665283,1071.316528 2210.870117,1099.551514 2212.143066,1128.141968 
	C2212.749268,1141.757935 2213.518555,1155.366455 2214.169922,1168.980469 
	C2214.757568,1181.264771 2216.021240,1193.572144 2215.682129,1205.833252 
	C2215.030273,1229.414429 2213.666016,1252.983154 2212.196533,1276.531982 
	C2211.058594,1294.766602 2210.179688,1313.085571 2207.629639,1331.147461 
	C2203.823486,1358.103149 2199.129639,1384.958618 2193.948486,1411.689087 
	C2185.384033,1455.874268 2172.901855,1499.045288 2157.739258,1541.393311 
	C2150.337646,1562.065063 2141.751953,1582.312622 2133.385254,1603.445679 
M1202.105103,403.837463 
	C1200.773071,403.801147 1199.440674,403.726959 1198.108887,403.734100 
	C1168.814331,403.890747 1139.610840,404.928528 1110.611206,409.820557 
	C1093.627930,412.685516 1076.314453,413.662445 1059.387695,416.781708 
	C976.206177,432.110565 897.360168,459.894806 823.076172,500.433105 
	C732.816406,549.689697 654.673889,613.781494 589.033997,692.904785 
	C518.997559,777.327698 468.205719,872.146118 437.128174,977.423157 
	C423.997559,1021.903931 414.439697,1067.130981 409.824951,1113.304810 
	C407.806641,1133.499146 405.753296,1153.770386 405.422485,1174.034546 
	C404.895630,1206.304932 405.001099,1238.633301 406.403961,1270.868896 
	C407.194763,1289.040527 411.007477,1307.092041 413.649506,1325.169678 
	C425.397614,1405.553955 449.455780,1482.178101 485.029755,1555.120728 
	C532.369812,1652.189087 596.896484,1736.241211 678.117432,1807.428955 
	C752.853149,1872.932739 836.923462,1922.757080 930.205811,1957.019165 
	C982.271484,1976.142578 1035.826782,1989.444092 1090.677246,1997.494629 
	C1107.757812,2000.001587 1124.887573,2002.538086 1142.087280,2003.775879 
	C1162.662476,2005.256226 1183.337036,2005.358765 1204.288940,2007.661255 
	C1207.324341,2008.404663 1210.388916,2009.892578 1213.390381,2009.774414 
	C1238.653076,2008.778442 1263.928223,2007.858398 1289.152588,2006.198730 
	C1325.431396,2003.811279 1361.108032,1997.270264 1396.399780,1988.749878 
	C1476.373657,1969.442383 1551.270752,1937.990601 1621.276489,1894.711060 
	C1706.414429,1842.076782 1779.121704,1775.787231 1839.630493,1696.193726 
	C1880.930420,1641.867554 1915.037354,1583.278809 1941.993286,1520.486572 
	C1979.280029,1433.629517 2000.560059,1342.980957 2005.541626,1248.756714 
	C2008.090332,1200.548950 2006.765991,1152.284302 2000.548340,1104.180908 
	C1994.255493,1055.496460 1984.126465,1007.745056 1969.196045,961.058044 
	C1942.077515,876.258728 1902.071777,798.009827 1848.650757,726.684753 
	C1821.237915,690.084229 1791.399414,655.667969 1757.991943,624.375854 
	C1750.498169,617.356628 1743.596802,609.705017 1737.878174,602.092102 
	C1745.147339,598.852783 1752.893188,596.378784 1759.583740,592.210693 
	C1772.485107,584.173340 1774.771484,571.725525 1765.183716,559.934570 
	C1759.601074,553.068909 1752.767822,546.717163 1745.322632,541.980652 
	C1732.517090,533.834167 1718.793457,527.130737 1704.981201,519.561890 
	C1705.532227,518.692871 1706.665161,517.118225 1707.582275,515.426575 
	C1715.344849,501.106140 1723.624146,487.026550 1730.562012,472.315216 
	C1733.889648,465.259003 1735.660400,457.087585 1736.378906,449.259918 
	C1737.947754,432.168732 1729.349609,423.814880 1712.107056,424.351013 
	C1710.118774,424.412842 1708.126465,424.701172 1706.158691,425.022461 
	C1657.214600,433.014130 1621.943604,459.540192 1598.256714,503.627106 
	C1594.373047,501.789398 1590.370972,500.164581 1586.624146,498.080872 
	C1550.800415,478.158539 1513.475220,461.577484 1474.858765,447.902283 
	C1416.686768,427.301910 1357.038330,413.407959 1295.502563,407.456787 
	C1265.008667,404.507690 1234.547119,403.161377 1202.105103,403.837463 
z"/>
<path fill="#1A1A1A" opacity="1.000000" stroke="none" 
	d="
M1736.422729,602.344482 
	C1743.596802,609.705017 1750.498169,617.356628 1757.991943,624.375854 
	C1791.399414,655.667969 1821.237915,690.084229 1848.650757,726.684753 
	C1902.071777,798.009827 1942.077515,876.258728 1969.196045,961.058044 
	C1984.126465,1007.745056 1994.255493,1055.496460 2000.548340,1104.180908 
	C2006.765991,1152.284302 2008.090332,1200.548950 2005.541626,1248.756714 
	C2000.560059,1342.980957 1979.280029,1433.629517 1941.993286,1520.486572 
	C1915.037354,1583.278809 1880.930420,1641.867554 1839.630493,1696.193726 
	C1779.121704,1775.787231 1706.414429,1842.076782 1621.276489,1894.711060 
	C1551.270752,1937.990601 1476.373657,1969.442383 1396.399780,1988.749878 
	C1361.108032,1997.270264 1325.431396,2003.811279 1289.152588,2006.198730 
	C1263.928223,2007.858398 1238.653076,2008.778442 1213.390381,2009.774414 
	C1210.388916,2009.892578 1207.324341,2008.404663 1204.118530,2005.918091 
	C1203.958862,1788.158203 1203.969604,1572.141479 1204.492432,1355.900269 
	C1205.345947,1355.525879 1205.687256,1355.375977 1206.947266,1355.412842 
	C1310.817749,1355.621460 1413.769531,1355.623657 1516.721436,1355.678345 
	C1542.650757,1355.692139 1568.053101,1352.195435 1592.677246,1344.025269 
	C1673.001587,1317.373535 1728.338867,1264.677490 1757.601196,1185.039795 
	C1766.495972,1160.832031 1771.047119,1135.723389 1772.232178,1109.998779 
	C1773.009766,1093.120361 1769.958862,1076.552490 1768.354736,1059.840576 
	C1765.889160,1034.153320 1757.354248,1010.444824 1746.039551,987.941956 
	C1711.487793,919.224915 1656.527832,874.570801 1582.472534,853.874268 
	C1561.103516,847.902222 1539.074585,845.379395 1516.803101,845.388733 
	C1416.849731,845.430542 1316.896362,845.402100 1216.942993,845.426086 
	C1213.291626,845.427002 1209.640259,845.710693 1205.505371,845.562012 
	C1204.658447,845.151978 1204.295166,845.042480 1203.917358,844.062622 
	C1203.920532,696.834229 1203.937988,550.476257 1203.955444,404.118317 
	C1234.547119,403.161377 1265.008667,404.507690 1295.502563,407.456787 
	C1357.038330,413.407959 1416.686768,427.301910 1474.858765,447.902283 
	C1513.475220,461.577484 1550.800415,478.158539 1586.624146,498.080872 
	C1590.370972,500.164581 1594.373047,501.789398 1599.329346,504.246887 
	C1601.368408,505.761169 1602.228271,506.820221 1603.317017,507.525848 
	C1623.880371,520.853821 1644.882324,533.552917 1664.931641,547.611389 
	C1682.511597,559.938477 1699.009766,573.806030 1716.025635,586.941406 
	C1722.769409,592.147339 1729.620483,597.214233 1736.422729,602.344482 
z"/>
<path fill="#000000" opacity="1.000000" stroke="none" 
	d="
M1203.030273,403.977905 
	C1203.937988,550.476257 1203.920532,696.834229 1202.987793,844.129150 
	C1104.469360,845.078979 1006.866028,845.128723 909.262756,845.078186 
	C885.975220,845.066162 862.666260,845.487732 839.902649,850.680847 
	C804.920593,858.661255 772.610596,872.806274 743.491455,894.150146 
	C702.734924,924.023804 673.359314,962.903687 654.649109,1009.314026 
	C645.205139,1032.739624 639.423828,1057.554443 638.805908,1083.425415 
	C638.298279,1104.680542 638.037659,1125.864990 642.414307,1146.632202 
	C645.964905,1163.479126 649.709229,1180.691528 656.575623,1196.333740 
	C665.838867,1217.436035 676.923523,1237.851074 691.554688,1256.131348 
	C725.725464,1298.824463 768.143982,1329.233276 820.748413,1345.034424 
	C843.749573,1351.943237 867.010437,1355.944336 891.226868,1355.848511 
	C992.159607,1355.449341 1093.094849,1355.665771 1194.029175,1355.683105 
	C1197.346191,1355.683594 1200.663330,1355.971069 1203.980347,1356.124756 
	C1203.969604,1572.141479 1203.958862,1788.158203 1203.958252,2005.116577 
	C1183.337036,2005.358765 1162.662476,2005.256226 1142.087280,2003.775879 
	C1124.887573,2002.538086 1107.757812,2000.001587 1090.677246,1997.494629 
	C1035.826782,1989.444092 982.271484,1976.142578 930.205811,1957.019165 
	C836.923462,1922.757080 752.853149,1872.932739 678.117432,1807.428955 
	C596.896484,1736.241211 532.369812,1652.189087 485.029755,1555.120728 
	C449.455780,1482.178101 425.397614,1405.553955 413.649506,1325.169678 
	C411.007477,1307.092041 407.194763,1289.040527 406.403961,1270.868896 
	C405.001099,1238.633301 404.895630,1206.304932 405.422485,1174.034546 
	C405.753296,1153.770386 407.806641,1133.499146 409.824951,1113.304810 
	C414.439697,1067.130981 423.997559,1021.903931 437.128174,977.423157 
	C468.205719,872.146118 518.997559,777.327698 589.033997,692.904785 
	C654.673889,613.781494 732.816406,549.689697 823.076172,500.433105 
	C897.360168,459.894806 976.206177,432.110565 1059.387695,416.781708 
	C1076.314453,413.662445 1093.627930,412.685516 1110.611206,409.820557 
	C1139.610840,404.928528 1168.814331,403.890747 1198.108887,403.734100 
	C1199.440674,403.726959 1200.773071,403.801147 1203.030273,403.977905 
z"/>
<path fill="#010001" opacity="1.000000" stroke="none" 
	d="
M1737.150391,602.218262 
	C1729.620483,597.214233 1722.769409,592.147339 1716.025635,586.941406 
	C1699.009766,573.806030 1682.511597,559.938477 1664.931641,547.611389 
	C1644.882324,533.552917 1623.880371,520.853821 1603.317017,507.525848 
	C1602.228271,506.820221 1601.368408,505.761169 1600.026733,504.254883 
	C1621.943604,459.540192 1657.214600,433.014130 1706.158691,425.022461 
	C1708.126465,424.701172 1710.118774,424.412842 1712.107056,424.351013 
	C1729.349609,423.814880 1737.947754,432.168732 1736.378906,449.259918 
	C1735.660400,457.087585 1733.889648,465.259003 1730.562012,472.315216 
	C1723.624146,487.026550 1715.344849,501.106140 1707.582275,515.426575 
	C1706.665161,517.118225 1705.532227,518.692871 1704.981201,519.561890 
	C1718.793457,527.130737 1732.517090,533.834167 1745.322632,541.980652 
	C1752.767822,546.717163 1759.601074,553.068909 1765.183716,559.934570 
	C1774.771484,571.725525 1772.485107,584.173340 1759.583740,592.210693 
	C1752.893188,596.378784 1745.147339,598.852783 1737.150391,602.218262 
z"/>
<path fill="#ECCDBA" opacity="1.000000" stroke="none" 
	d="
M1204.492432,1355.900269 
	C1200.663330,1355.971069 1197.346191,1355.683594 1194.029175,1355.683105 
	C1093.094849,1355.665771 992.159607,1355.449341 891.226868,1355.848511 
	C867.010437,1355.944336 843.749573,1351.943237 820.748413,1345.034424 
	C768.143982,1329.233276 725.725464,1298.824463 691.554688,1256.131348 
	C676.923523,1237.851074 665.838867,1217.436035 656.575623,1196.333740 
	C649.709229,1180.691528 645.964905,1163.479126 642.414307,1146.632202 
	C638.037659,1125.864990 638.298279,1104.680542 638.805908,1083.425415 
	C639.423828,1057.554443 645.205139,1032.739624 654.649109,1009.314026 
	C673.359314,962.903687 702.734924,924.023804 743.491455,894.150146 
	C772.610596,872.806274 804.920593,858.661255 839.902649,850.680847 
	C862.666260,845.487732 885.975220,845.066162 909.262756,845.078186 
	C1006.866028,845.128723 1104.469360,845.078979 1203.002197,844.999512 
	C1204.295166,845.042480 1204.658447,845.151978 1205.507812,846.508423 
	C1205.984497,978.605957 1205.975220,1109.456543 1205.045898,1240.497925 
	C1188.912476,1240.688843 1173.698853,1240.688843 1158.419556,1240.688843 
	C1156.797241,1248.484619 1156.192749,1255.279419 1159.766846,1262.601685 
	C1160.472412,1273.526978 1167.311890,1279.913574 1174.175537,1285.992554 
	C1183.165771,1293.954712 1194.510742,1296.296509 1206.010010,1298.840942 
	C1206.013306,1318.265137 1206.020874,1336.745483 1206.028564,1355.225952 
	C1205.687256,1355.375977 1205.345947,1355.525879 1204.492432,1355.900269 
M855.685120,1074.769165 
	C849.574585,1088.103271 848.578857,1102.951660 850.797302,1116.363037 
	C854.220886,1137.060425 863.337830,1156.178955 880.942322,1169.756958 
	C897.460083,1182.496704 915.852234,1187.168213 936.037659,1181.824951 
	C957.836426,1176.054932 973.049011,1161.842285 982.232300,1141.555542 
	C989.727722,1124.997437 991.796692,1107.960327 988.584961,1089.445923 
	C986.105286,1075.151855 981.660278,1062.495483 973.067688,1051.294800 
	C947.209167,1017.587646 899.481995,1013.520996 870.011230,1049.345703 
	C864.223938,1056.380737 860.646301,1065.233398 855.685120,1074.769165 
z"/>
<path fill="#F6D7C4" opacity="1.000000" stroke="none" 
	d="
M1206.947266,1355.412842 
	C1206.020874,1336.745483 1206.013306,1318.265137 1206.678833,1298.518921 
	C1212.315918,1295.520996 1217.279907,1293.788818 1222.960693,1292.062500 
	C1244.228882,1283.716064 1256.288452,1261.194946 1250.322266,1241.937744 
	C1235.592896,1241.396240 1220.779419,1240.851562 1205.965820,1240.306885 
	C1205.975220,1109.456543 1205.984497,978.605957 1205.991333,846.808960 
	C1209.640259,845.710693 1213.291626,845.427002 1216.942993,845.426086 
	C1316.896362,845.402100 1416.849731,845.430542 1516.803101,845.388733 
	C1539.074585,845.379395 1561.103516,847.902222 1582.472534,853.874268 
	C1656.527832,874.570801 1711.487793,919.224915 1746.039551,987.941956 
	C1757.354248,1010.444824 1765.889160,1034.153320 1768.354736,1059.840576 
	C1769.958862,1076.552490 1773.009766,1093.120361 1772.232178,1109.998779 
	C1771.047119,1135.723389 1766.495972,1160.832031 1757.601196,1185.039795 
	C1728.338867,1264.677490 1673.001587,1317.373535 1592.677246,1344.025269 
	C1568.053101,1352.195435 1542.650757,1355.692139 1516.721436,1355.678345 
	C1413.769531,1355.623657 1310.817749,1355.621460 1206.947266,1355.412842 
M1458.770752,1049.901367 
	C1448.768311,1060.866211 1442.462891,1074.451172 1440.793579,1088.391357 
	C1439.291260,1100.938232 1438.690430,1114.248779 1443.026855,1127.346069 
	C1448.605225,1144.193970 1456.802734,1158.663330 1470.627808,1169.825806 
	C1489.820801,1185.322266 1511.246338,1187.921265 1533.660400,1179.036133 
	C1555.719971,1170.291748 1569.203003,1153.052002 1575.834473,1130.625854 
	C1585.113037,1099.248169 1579.539673,1070.614746 1557.595825,1046.070801 
	C1541.701416,1028.292725 1521.550171,1021.180786 1497.773315,1025.651855 
	C1482.186157,1028.582764 1469.785400,1036.796265 1458.770752,1049.901367 
z"/>
<path fill="#020101" opacity="1.000000" stroke="none" 
	d="
M855.867432,1074.008545 
	C860.646301,1065.233398 864.223938,1056.380737 870.011230,1049.345703 
	C899.481995,1013.520996 947.209167,1017.587646 973.067688,1051.294800 
	C981.660278,1062.495483 986.105286,1075.151855 988.584961,1089.445923 
	C991.796692,1107.960327 989.727722,1124.997437 982.232300,1141.555542 
	C973.049011,1161.842285 957.836426,1176.054932 936.037659,1181.824951 
	C915.852234,1187.168213 897.460083,1182.496704 880.942322,1169.756958 
	C863.337830,1156.178955 854.220886,1137.060425 850.797302,1116.363037 
	C848.578857,1102.951660 849.574585,1088.103271 855.867432,1074.008545 
z"/>
<path fill="#C22A30" opacity="1.000000" stroke="none" 
	d="
M1205.045898,1240.497803 
	C1220.779419,1240.851562 1235.592896,1241.396240 1250.322266,1241.937744 
	C1256.288452,1261.194946 1244.228882,1283.716064 1222.999023,1291.295166 
	C1215.984253,1269.460083 1191.312988,1253.236938 1169.867920,1256.537964 
	C1166.316406,1257.084595 1163.128662,1259.993896 1159.772827,1261.811279 
	C1156.192749,1255.279419 1156.797241,1248.484619 1158.419556,1240.688843 
	C1173.698853,1240.688843 1188.912476,1240.688843 1205.045898,1240.497803 
z"/>
<path fill="#FD7BAA" opacity="1.000000" stroke="none" 
	d="
M1159.766846,1262.601685 
	C1163.128662,1259.993896 1166.316406,1257.084595 1169.867920,1256.537964 
	C1191.312988,1253.236938 1215.984253,1269.460083 1222.282227,1291.289307 
	C1217.279907,1293.788818 1212.315918,1295.520996 1206.683105,1297.575195 
	C1194.510742,1296.296509 1183.165771,1293.954712 1174.175537,1285.992554 
	C1167.311890,1279.913574 1160.472412,1273.526978 1159.766846,1262.601685 
z"/>
<path fill="#010101" opacity="1.000000" stroke="none" 
	d="
M1459.247314,1049.363525 
	C1469.785400,1036.796265 1482.186157,1028.582764 1497.773315,1025.651855 
	C1521.550171,1021.180786 1541.701416,1028.292725 1557.595825,1046.070801 
	C1579.539673,1070.614746 1585.113037,1099.248169 1575.834473,1130.625854 
	C1569.203003,1153.052002 1555.719971,1170.291748 1533.660400,1179.036133 
	C1511.246338,1187.921265 1489.820801,1185.322266 1470.627808,1169.825806 
	C1456.802734,1158.663330 1448.605225,1144.193970 1443.026855,1127.346069 
	C1438.690430,1114.248779 1439.291260,1100.938232 1440.793579,1088.391357 
	C1442.462891,1074.451172 1448.768311,1060.866211 1459.247314,1049.363525 
z"/>
</svg>