<svg version="1.1" id="Layer_1" xmlns="http://www.w3.org/2000/svg" xmlns:xlink="http://www.w3.org/1999/xlink" x="0px" y="0px"
	 width="100%" viewBox="0 0 225 225" enable-background="new 0 0 225 225" xml:space="preserve">
<path fill="#FEFEFE" opacity="1.000000" stroke="none" 
	d="
M125.000000,226.000000 
	C83.333336,226.000000 42.166672,226.000000 1.000005,226.000000 
	C1.000004,151.000000 1.000004,76.000015 1.000002,1.000016 
	C75.999992,1.000010 150.999985,1.000010 225.999969,1.000005 
	C225.999985,75.999985 225.999985,150.999969 226.000000,225.999969 
	C192.500000,226.000000 159.000000,226.000000 125.000000,226.000000 
M116.674522,61.508430 
	C117.175270,61.388741 117.676018,61.269051 118.962288,61.211716 
	C120.062332,60.814808 121.162384,60.417900 122.880005,60.119061 
	C127.034233,61.643700 127.847282,58.435040 129.621674,55.641281 
	C128.340103,55.383869 127.590195,55.233250 126.181274,55.042828 
	C125.525795,54.967758 124.870316,54.892689 123.622353,54.390522 
	C122.422440,54.182541 121.222519,53.974564 119.791885,53.515728 
	C119.520386,53.613274 119.248886,53.710815 118.570450,54.067593 
	C118.234428,54.273575 118.152176,54.553940 117.452065,55.020954 
	C117.167366,55.089973 116.882668,55.158989 115.842728,55.138908 
	C114.627602,55.138908 113.412476,55.138908 113.126595,55.138908 
	C112.664436,56.488903 112.372467,57.341743 111.531776,58.122696 
	C111.352013,58.081223 111.172256,58.039749 110.679466,57.998672 
	C110.679466,57.998672 110.371086,58.053173 109.993088,57.374485 
	C108.994286,57.194061 107.995491,57.013641 107.026009,56.156139 
	C106.632500,55.549019 106.238991,54.941898 105.845482,54.334778 
	C105.223984,55.223969 104.602493,56.113155 103.453682,56.591354 
	C100.915466,53.016258 100.168053,56.380733 98.351501,57.674759 
	C99.705116,58.315845 100.569160,58.725067 101.924744,59.660870 
	C104.253784,59.827599 106.582825,59.994328 109.125771,60.820652 
	C110.111191,61.192520 111.096611,61.564388 112.824898,61.992035 
	C113.885170,61.691757 114.945450,61.391483 116.005234,61.009132 
	C116.005234,61.009132 116.002777,61.086014 116.674522,61.508430 
M94.208900,101.238197 
	C93.822433,100.445732 93.435959,99.653267 93.072418,98.413956 
	C93.072418,98.413956 92.844154,98.029129 92.817802,97.304222 
	C91.270576,94.075409 89.723351,90.846596 88.164856,86.913414 
	C86.522774,83.858421 84.880692,80.803429 83.218468,77.902069 
	C83.218468,77.902069 83.309784,77.776886 83.231865,77.350204 
	C83.231865,77.350204 82.959999,77.012230 82.902771,76.312225 
	C80.621056,72.806190 78.339348,69.300156 75.765007,65.181740 
	C74.507797,65.483414 73.250580,65.785080 71.205360,66.060226 
	C68.774231,66.745789 66.343109,67.431358 63.439404,68.250191 
	C66.549370,71.526016 69.234329,74.354172 72.126122,77.760765 
	C72.826645,78.507431 73.527161,79.254105 74.424026,80.626869 
	C77.201736,84.455894 79.979454,88.284927 82.944557,92.752457 
	C83.900482,94.193062 84.856407,95.633667 85.955620,97.780624 
	C87.616547,100.892563 89.277481,104.004494 90.955132,107.828476 
	C91.955421,109.890526 92.955711,111.952576 93.949814,114.636543 
	C94.244995,115.156708 94.540176,115.676865 94.827751,116.234322 
	C94.827751,116.234322 94.810654,116.268867 94.824074,117.044243 
	C99.057945,130.577530 99.057945,130.577530 103.088402,130.628067 
	C100.707657,123.164696 98.435730,116.042480 96.093872,108.176231 
	C96.008270,107.444107 95.922676,106.711983 95.820610,105.319046 
	C95.268692,104.148460 94.716774,102.977867 94.123093,101.921936 
	C94.123093,101.921936 94.245087,101.919266 94.208900,101.238197 
M127.448692,172.150528 
	C127.448692,172.150528 127.534760,172.193665 128.080963,171.978729 
	C128.262405,171.905487 128.443832,171.832260 128.887665,171.877472 
	C128.887665,171.877472 129.312531,171.880600 129.312531,171.880600 
	C129.312531,171.880600 129.731598,171.802032 130.942261,171.965042 
	C131.285477,171.745926 131.628708,171.526825 132.324722,171.640442 
	C132.324722,171.640442 132.778091,171.820023 132.778091,171.820023 
	C132.778091,171.820023 133.265671,171.807419 133.831680,171.765259 
	C133.545914,170.836105 133.260147,169.906937 133.609283,168.901886 
	C133.980499,168.533005 134.351715,168.164108 134.722916,167.795212 
	C134.476288,167.648590 134.229675,167.501968 133.983047,167.355347 
	C133.672638,167.918518 133.362213,168.481689 132.473251,168.738007 
	C132.040863,168.790314 131.608475,168.842621 131.044800,168.241486 
	C130.700867,167.829788 130.356918,167.418076 129.389801,167.070236 
	C129.182449,167.095001 128.975113,167.119751 128.249115,166.792160 
	C127.755592,167.495819 127.262062,168.199493 126.222755,169.189957 
	C125.620796,170.254456 125.018829,171.318970 124.416862,172.383469 
	C124.674934,172.534515 124.933006,172.685577 125.191086,172.836639 
	C125.699249,172.298859 126.207420,171.761093 126.973320,171.758774 
	C127.118935,171.893051 127.264549,172.027328 127.448692,172.150528 
M95.298218,172.100586 
	C95.298218,172.100586 95.730682,172.093307 96.060097,172.612396 
	C96.438080,172.077042 96.816063,171.541702 97.906647,171.002411 
	C98.806625,170.596176 99.706612,170.189957 100.606583,169.783722 
	C99.470390,169.187042 98.334198,168.590363 97.041519,167.424393 
	C96.616119,167.254318 96.190720,167.084244 95.224091,166.902420 
	C94.986893,167.164459 94.749695,167.426498 94.512497,167.688538 
	C94.909447,167.824829 95.306389,167.961105 95.787659,168.698822 
	C95.767761,169.101959 95.747871,169.505081 95.284027,169.918777 
	C95.284027,169.918777 94.885361,170.114426 94.307190,169.801682 
	C93.545929,169.413635 92.784668,169.025604 92.341080,168.167450 
	C92.570457,167.452408 92.799843,166.737350 93.029221,166.022308 
	C92.485184,165.807999 91.941139,165.593689 91.397102,165.379379 
	C90.611748,167.295212 89.826393,169.211029 89.041031,171.126862 
	C89.524223,171.317291 90.007408,171.507736 90.490601,171.698181 
	C90.662033,171.127853 90.833466,170.557541 91.686920,170.124496 
	C92.761147,170.719879 93.835373,171.315277 95.298218,172.100586 
M138.359451,168.756332 
	C135.783539,172.589966 139.598541,170.239258 141.131180,172.057739 
	C139.864029,170.238693 139.419861,169.601074 139.544388,168.833939 
	C139.884598,168.588501 140.224792,168.343048 140.564987,168.097595 
	C140.256424,167.878403 139.947845,167.659225 139.639267,167.440048 
	C139.445786,167.970840 139.252304,168.501617 138.359451,168.756332 
M136.867554,116.929306 
	C136.867554,116.929306 136.829727,116.829308 136.268326,117.283691 
	C135.170807,121.182411 134.073288,125.081131 133.029861,129.063354 
	C133.029861,129.063354 132.975845,128.942841 133.709976,129.166351 
	C135.473709,126.445984 137.237457,123.725624 139.405640,120.458061 
	C142.192490,115.647362 144.979340,110.836670 148.232620,105.519585 
	C151.219696,101.710640 154.206772,97.901695 157.764450,93.824768 
	C158.877304,92.568558 159.990158,91.312347 161.671036,89.796989 
	C162.818909,88.599785 163.966782,87.402588 165.679733,85.920326 
	C166.731445,84.930351 167.783173,83.940369 169.470062,82.738831 
	C171.345505,81.205544 173.220947,79.672256 175.776611,77.979202 
	C179.007492,75.894676 182.238373,73.810150 186.415695,71.114990 
	C181.827606,70.731583 178.399231,70.445091 174.197449,70.023682 
	C171.769897,71.259842 169.342346,72.495995 166.329834,74.033600 
	C165.560425,74.784523 164.791031,75.535454 163.645493,76.389969 
	C163.406464,76.537987 163.272217,76.751816 163.056396,77.071037 
	C163.056396,77.071037 163.027588,77.259361 162.456177,77.494675 
	C161.254730,78.861107 160.053284,80.227539 158.292679,81.963249 
	C157.185028,83.310326 156.077377,84.657402 154.683044,86.322525 
	C154.683044,86.322525 154.658737,86.750015 154.605820,86.738083 
	C154.605820,86.738083 154.556335,86.715820 153.968185,87.004959 
	C151.004883,91.342506 148.041580,95.680061 144.628937,100.532043 
	C142.351791,105.175323 140.074661,109.818604 137.273148,114.922478 
	C137.102402,115.588890 136.931656,116.255302 136.867554,116.929306 
M128.031952,115.854698 
	C126.890991,120.789886 125.750023,125.725067 124.484520,131.198929 
	C130.205185,130.829498 128.768082,126.543938 130.218765,123.333427 
	C130.807297,121.207642 131.395828,119.081863 132.398560,116.394615 
	C134.287933,111.940254 136.177307,107.485893 138.567612,102.587852 
	C139.474564,100.770996 140.381516,98.954132 141.783829,96.722328 
	C142.914978,94.657707 144.046127,92.593086 145.760788,90.120262 
	C147.294128,87.790138 148.827469,85.460022 150.872742,82.754288 
	C152.273132,80.892090 153.673538,79.029892 155.667694,76.847443 
	C158.199814,74.116714 160.731918,71.385986 163.773987,68.105316 
	C160.518265,67.341331 157.754593,66.692810 154.387024,65.678894 
	C150.919937,63.800571 149.935791,66.313614 148.370071,69.166954 
	C147.273972,71.125168 146.177872,73.083374 144.622101,75.541725 
	C143.037750,78.851273 141.453400,82.160820 139.297043,85.938766 
	C138.182800,88.593063 137.068542,91.247360 135.437927,94.393600 
	C133.682846,99.275185 131.927765,104.156769 129.891159,109.690941 
	C129.370819,111.502747 128.850494,113.314545 128.031952,115.854698 
M191.044952,153.115860 
	C191.044952,149.078796 191.044952,145.041733 191.044952,141.004684 
	C190.449631,141.018784 189.854309,141.032883 189.258987,141.046982 
	C189.069641,145.324387 188.880280,149.601776 187.807922,153.919144 
	C184.702682,153.919144 181.597443,153.919144 177.586777,153.919144 
	C177.586777,149.340012 177.586777,145.160568 177.586777,140.981110 
	C177.014557,141.012894 176.442322,141.044678 175.870102,141.076462 
	C175.870102,145.093323 175.786514,149.113373 175.938995,153.124435 
	C175.970352,153.949493 176.707947,154.981018 177.422653,155.503128 
	C179.586655,157.084000 188.558807,155.973358 191.044952,153.115860 
M53.131336,69.945663 
	C50.863827,70.199791 48.596321,70.453926 45.035492,70.853004 
	C46.343143,72.974045 46.963436,74.720551 48.179672,75.788139 
	C50.266129,77.619591 52.724857,79.026947 55.508282,81.097252 
	C56.616997,81.883469 57.725712,82.669685 59.171600,83.984634 
	C60.755207,85.388435 62.338818,86.792244 64.235435,88.771019 
	C66.767570,91.290314 69.299713,93.809608 72.034973,96.946709 
	C73.700142,98.938683 75.365311,100.930649 77.213089,103.581619 
	C79.020599,106.098587 80.828102,108.615555 82.865608,111.803513 
	C84.183456,114.009842 85.501305,116.216164 86.925415,119.119019 
	C91.315201,128.419678 91.315201,128.419678 95.013062,128.709244 
	C92.260582,122.075195 89.695030,115.891678 87.090767,109.041100 
	C86.094666,107.343597 85.098564,105.646095 83.988998,103.251823 
	C82.248093,100.533333 80.507187,97.814842 78.537575,94.468399 
	C76.354599,91.654533 74.171623,88.840675 71.782272,85.386002 
	C69.439445,82.941605 67.096626,80.497208 64.495636,77.478584 
	C62.724686,75.953697 60.953735,74.428818 58.873863,72.267410 
	C57.250553,71.524078 55.627247,70.780746 53.131336,69.945663 
M115.260109,167.009232 
	C110.903976,166.742111 106.335144,165.313568 102.814514,169.235779 
	C104.199913,170.180801 105.590729,171.129517 107.027596,172.558517 
	C107.183464,172.812317 107.339333,173.066116 107.495201,173.319916 
	C107.670471,172.911346 107.845741,172.502777 108.819588,172.073074 
	C111.284485,172.406097 113.749390,172.739120 115.987015,173.041443 
	C115.987015,170.559586 115.987015,168.774780 116.277336,166.893616 
	C116.188194,166.933350 116.099045,166.973083 115.260109,167.009232 
M89.813957,74.824623 
	C90.769341,76.604599 91.724724,78.384583 92.787514,80.915970 
	C95.174385,86.949272 97.561264,92.982582 99.894196,99.671669 
	C100.267204,100.446152 100.640213,101.220634 100.896553,102.801331 
	C101.861977,106.565277 102.827400,110.329224 103.770439,114.809341 
	C104.506256,119.377785 105.114944,123.972534 106.051987,128.499329 
	C106.349998,129.939041 107.521553,131.197922 108.293396,132.539536 
	C109.066750,132.271942 109.840103,132.004349 110.613464,131.736755 
	C109.997452,122.153503 109.381432,112.570259 108.775871,102.199173 
	C107.306297,96.417160 105.836723,90.635139 104.257858,84.080719 
	C102.854462,80.677757 101.451073,77.274796 100.021591,73.137703 
	C98.383652,70.006470 96.745712,66.875237 95.116035,63.354923 
	C95.116035,63.354923 94.966995,62.995426 95.047554,62.407158 
	C94.696754,61.941696 94.345955,61.476234 93.931946,60.331226 
	C93.080055,58.464252 92.080177,57.067902 89.277992,59.153503 
	C87.133072,60.183666 84.988152,61.213825 82.692726,62.316273 
	C85.162468,66.540985 87.388855,70.349426 89.813957,74.824623 
M122.996895,116.365662 
	C123.006416,115.914742 123.015938,115.463821 123.446899,114.388443 
	C124.357407,110.290382 125.267914,106.192329 126.676643,101.558167 
	C127.778610,98.012566 128.880569,94.466972 130.455215,90.414375 
	C132.305740,85.937935 134.156281,81.461494 136.502899,76.522781 
	C139.039139,71.810127 141.575363,67.097466 144.320511,61.996601 
	C141.407410,60.837696 138.861069,59.824692 135.844086,58.293255 
	C133.475830,61.992889 131.107590,65.692520 128.214539,69.918892 
	C126.467300,74.608063 124.720070,79.297241 122.496513,84.534309 
	C121.987183,86.684692 121.477852,88.835075 120.511009,91.585785 
	C119.721390,95.735313 118.931770,99.884842 117.957855,104.855148 
	C117.637650,112.932533 117.335899,121.010712 116.985077,129.086761 
	C116.889793,131.280426 117.302498,132.756302 120.721573,131.563995 
	C121.371750,127.029663 122.021919,122.495338 122.866928,117.507072 
	C122.866928,117.507072 122.801888,117.017395 122.996895,116.365662 
M140.093536,153.933670 
	C135.494629,153.933670 130.895721,153.933670 126.305023,153.933670 
	C126.305023,148.817474 126.305023,144.287766 126.305023,139.158417 
	C131.844650,139.521179 136.926376,139.853943 143.387085,140.277008 
	C141.372253,139.016205 140.107742,137.682831 138.660919,137.441254 
	C136.234344,137.036087 133.691666,137.323502 131.197830,137.324524 
	C123.755844,137.327545 123.700890,137.328979 123.765411,144.746124 
	C123.876839,157.555405 121.897087,156.120697 135.141220,156.033798 
	C137.078568,156.021088 139.007401,154.713242 141.362610,153.444077 
	C141.850739,151.538071 142.338867,149.632065 142.892685,147.469574 
	C140.290588,147.765137 138.411469,147.978577 136.532364,148.192032 
	C141.696640,147.236282 142.413177,149.894073 140.093536,153.933670 
M86.649475,140.957687 
	C85.365417,139.618423 84.081352,138.279175 82.243881,136.362701 
	C79.977272,136.539200 78.973236,143.786392 80.874901,156.108002 
	C84.582298,156.108002 88.383591,156.302322 92.144226,155.996567 
	C93.366104,155.897232 95.023643,154.750641 95.557526,153.639084 
	C98.911400,146.656158 95.228447,140.957993 86.649475,140.957687 
M34.908314,144.337540 
	C33.519127,146.642349 32.129940,148.947159 30.774559,151.195877 
	C26.009119,146.971451 26.216524,139.167404 19.074684,137.573608 
	C21.722591,143.516922 24.749146,149.165771 28.209545,154.535004 
	C28.710106,155.311691 32.298710,155.398361 32.752140,154.698669 
	C36.242432,149.312775 39.311523,143.653931 42.712147,137.729874 
	C37.033417,136.477692 37.395203,141.575485 34.908314,144.337540 
M97.836418,141.598663 
	C97.177589,145.174454 99.856705,144.039383 101.603996,144.310333 
	C104.196938,144.712418 107.232254,143.310623 110.537384,146.181946 
	C105.436386,147.003586 101.562302,147.627609 97.840683,148.227066 
	C97.242645,156.011108 96.671280,157.039108 112.996292,155.553436 
	C112.996292,152.139145 113.463593,148.594925 112.798416,145.277802 
	C112.467720,143.628708 110.238518,141.506546 108.552132,141.166718 
	C105.366776,140.524857 101.953026,141.016403 97.836418,141.598663 
M50.958889,153.047043 
	C53.349728,156.537766 61.689846,157.475082 67.348320,153.840988 
	C63.629532,153.840988 61.261585,153.855820 58.893898,153.837738 
	C54.727097,153.805939 54.727161,153.797501 54.936993,150.081146 
	C58.521561,150.081146 62.131889,150.081146 65.690384,150.081146 
	C66.571457,141.408997 66.214462,140.987595 58.341915,141.002197 
	C50.902790,141.015991 50.902576,141.015991 50.894535,148.645905 
	C50.893307,149.811508 50.895149,150.977112 50.958889,153.047043 
M206.013306,156.033829 
	C206.805328,155.497574 208.250610,154.998688 208.283798,154.418991 
	C208.506592,150.526260 209.058685,146.449066 208.090698,142.807358 
	C207.773499,141.614014 203.280884,141.345901 200.652328,141.008255 
	C198.432785,140.723175 196.147552,140.949554 193.960175,140.949554 
	C192.815002,151.880951 193.284698,158.855942 195.400925,161.608658 
	C195.608490,159.756638 195.797318,158.071777 196.018051,156.102219 
	C199.173477,156.102219 202.143051,156.102219 206.013306,156.033829 
M173.755005,152.954803 
	C173.774277,150.790741 173.688461,148.619507 173.835541,146.464157 
	C174.111099,142.425613 172.454468,140.502380 168.292435,140.923203 
	C166.973877,141.056503 165.546082,140.653519 164.317566,141.010162 
	C162.309265,141.593216 158.825302,142.494659 158.764130,143.442474 
	C158.507919,147.412827 158.606674,151.702621 159.954071,155.368683 
	C160.762665,157.568710 171.277512,156.028610 173.755005,152.954803 
M72.793488,156.087585 
	C74.567551,155.968842 76.341614,155.850082 78.115677,155.731323 
	C78.112564,155.254791 78.109451,154.778259 78.106339,154.301727 
	C76.334213,154.021713 74.562088,153.741699 72.485489,153.413574 
	C72.485489,150.456970 72.485489,147.593903 72.485489,145.105759 
	C74.585587,144.325607 76.259674,143.703705 77.933762,143.081802 
	C74.650986,142.261871 71.730515,142.346344 72.046089,137.982407 
	C72.081635,137.490906 70.874329,136.909546 70.243362,136.369858 
	C69.803574,137.106873 69.001099,137.835175 68.983192,138.582306 
	C68.871925,143.225220 68.733841,147.887482 69.078705,152.507950 
	C69.170341,153.735657 70.923866,154.839325 72.793488,156.087585 
M147.235870,147.430603 
	C146.638321,143.883759 148.235886,142.723358 151.647705,143.047607 
	C153.348648,143.209259 155.107269,142.764130 156.839798,142.593475 
	C156.725677,141.877869 156.611542,141.162277 156.497406,140.446671 
	C152.900742,141.175323 147.227127,140.825760 146.165634,142.870499 
	C144.299545,146.465103 145.254532,151.524261 145.028076,155.970078 
	C145.763947,155.974777 146.499832,155.979462 147.235703,155.984161 
	C147.235703,153.451157 147.235703,150.918167 147.235870,147.430603 
M48.170982,151.397400 
	C48.170109,148.769745 48.288307,146.133560 48.101017,143.519257 
	C48.039043,142.654190 47.190033,141.845535 46.700867,141.011078 
	C46.114788,141.902802 45.092628,142.762054 45.023354,143.692261 
	C44.804420,146.632095 44.805176,149.607956 45.008915,152.549942 
	C45.091225,153.738495 45.918739,154.875427 46.407127,156.035858 
	C46.995049,154.810944 47.582970,153.586044 48.170982,151.397400 
z"/>
<path fill="#1A338E" opacity="1.000000" stroke="none" 
	d="
M87.102867,140.958084 
	C95.228447,140.957993 98.911400,146.656158 95.557526,153.639084 
	C95.023643,154.750641 93.366104,155.897232 92.144226,155.996567 
	C88.383591,156.302322 84.582298,156.108002 80.874901,156.108002 
	C78.973236,143.786392 79.977272,136.539200 82.243881,136.362701 
	C84.081352,138.279175 85.365417,139.618423 87.102867,140.958084 
M84.221367,152.903091 
	C86.870125,152.903091 89.518883,152.903091 92.029465,152.903091 
	C92.029465,149.537811 92.029465,147.133438 92.029465,144.526917 
	C89.264793,144.526917 86.851807,144.526917 84.029976,144.526917 
	C84.029976,147.175934 84.029976,149.609711 84.221367,152.903091 
z"/>
<path fill="#152A8B" opacity="1.000000" stroke="none" 
	d="
M35.072632,144.008698 
	C37.395203,141.575485 37.033417,136.477692 42.712147,137.729874 
	C39.311523,143.653931 36.242432,149.312775 32.752140,154.698669 
	C32.298710,155.398361 28.710106,155.311691 28.209545,154.535004 
	C24.749146,149.165771 21.722591,143.516922 19.074684,137.573608 
	C26.216524,139.167404 26.009119,146.971451 30.774559,151.195877 
	C32.129940,148.947159 33.519127,146.642349 35.072632,144.008698 
z"/>
<path fill="#9E476A" opacity="1.000000" stroke="none" 
	d="
M122.972839,83.986420 
	C124.720070,79.297241 126.467300,74.608063 128.550079,70.097252 
	C129.251251,77.157532 129.616882,84.039452 129.982529,90.921371 
	C128.880569,94.466972 127.778610,98.012566 126.068542,101.633011 
	C124.974869,100.062057 124.244934,98.444366 124.051735,96.764938 
	C123.563431,92.520233 123.316475,88.247765 122.972839,83.986420 
z"/>
<path fill="#031D86" opacity="1.000000" stroke="none" 
	d="
M98.235306,141.317795 
	C101.953026,141.016403 105.366776,140.524857 108.552132,141.166718 
	C110.238518,141.506546 112.467720,143.628708 112.798416,145.277802 
	C113.463593,148.594925 112.996292,152.139145 112.996292,155.553436 
	C96.671280,157.039108 97.242645,156.011108 97.840683,148.227066 
	C101.562302,147.627609 105.436386,147.003586 110.537384,146.181946 
	C107.232254,143.310623 104.196938,144.712418 101.603996,144.310333 
	C99.856705,144.039383 97.177589,145.174454 98.235306,141.317795 
M107.948952,149.944138 
	C105.670418,149.944138 103.391884,149.944138 101.113350,149.944138 
	C100.894646,150.557281 100.675941,151.170425 100.457230,151.783585 
	C101.841782,152.494034 103.247208,153.836060 104.606804,153.791138 
	C108.061485,153.677032 109.197418,152.364685 107.948952,149.944138 
z"/>
<path fill="#041E86" opacity="1.000000" stroke="none" 
	d="
M50.927231,152.594879 
	C50.895149,150.977112 50.893307,149.811508 50.894535,148.645905 
	C50.902576,141.015991 50.902790,141.015991 58.341915,141.002197 
	C66.214462,140.987595 66.571457,141.408997 65.690384,150.081146 
	C62.131889,150.081146 58.521561,150.081146 54.936993,150.081146 
	C54.727161,153.797501 54.727097,153.805939 58.893898,153.837738 
	C61.261585,153.855820 63.629532,153.840988 67.348320,153.840988 
	C61.689846,157.475082 53.349728,156.537766 50.927231,152.594879 
M56.751209,147.060287 
	C58.786446,147.060287 60.821682,147.060287 63.517506,147.060287 
	C61.157955,144.217361 55.689419,143.307526 54.485847,144.951950 
	C54.313637,145.187210 55.380680,146.329514 56.751209,147.060287 
z"/>
<path fill="#8C4C81" opacity="1.000000" stroke="none" 
	d="
M130.218872,90.667877 
	C129.616882,84.039452 129.251251,77.157532 128.812469,69.833878 
	C131.107590,65.692520 133.475830,61.992889 135.770111,58.782299 
	C135.794708,62.982815 135.911758,66.693916 135.984894,70.405891 
	C136.028091,72.598236 136.001831,74.791954 136.006821,76.985054 
	C134.156281,81.461494 132.305740,85.937935 130.218872,90.667877 
z"/>
<path fill="#E0441F" opacity="1.000000" stroke="none" 
	d="
M104.367142,84.853127 
	C105.836723,90.635139 107.306297,96.417160 108.423752,102.682724 
	C107.390312,104.762802 106.667076,106.343025 106.038246,107.959961 
	C105.249306,109.988625 104.537766,112.047401 103.792816,114.093178 
	C102.827400,110.329224 101.861977,106.565277 101.204315,102.212936 
	C101.339928,100.737381 101.167778,99.850212 101.095253,98.717987 
	C101.132072,97.653450 101.069252,96.833969 101.297302,95.723587 
	C101.726768,93.290199 101.609261,91.088043 102.089920,89.025284 
	C102.436386,87.538422 103.579414,86.237167 104.367142,84.853127 
z"/>
<path fill="#17218A" opacity="1.000000" stroke="none" 
	d="
M205.562958,156.068024 
	C202.143051,156.102219 199.173477,156.102219 196.018051,156.102219 
	C195.797318,158.071777 195.608490,159.756638 195.400925,161.608658 
	C193.284698,158.855942 192.815002,151.880951 193.960175,140.949554 
	C196.147552,140.949554 198.432785,140.723175 200.652328,141.008255 
	C203.280884,141.345901 207.773499,141.614014 208.090698,142.807358 
	C209.058685,146.449066 208.506592,150.526260 208.283798,154.418991 
	C208.250610,154.998688 206.805328,155.497574 205.562958,156.068024 
M206.802994,151.251617 
	C206.802994,148.681046 206.802994,146.110489 206.802994,143.434784 
	C202.752090,143.434784 199.396057,143.434784 195.909332,143.434784 
	C195.909332,146.990295 195.909332,150.218201 195.909332,154.785843 
	C199.875259,153.832230 203.342545,152.998505 206.802994,151.251617 
z"/>
<path fill="#20298D" opacity="1.000000" stroke="none" 
	d="
M140.940170,154.004669 
	C139.007401,154.713242 137.078568,156.021088 135.141220,156.033798 
	C121.897087,156.120697 123.876839,157.555405 123.765411,144.746124 
	C123.700890,137.328979 123.755844,137.327545 131.197830,137.324524 
	C133.691666,137.323502 136.234344,137.036087 138.660919,137.441254 
	C140.107742,137.682831 141.372253,139.016205 143.387085,140.277008 
	C136.926376,139.853943 131.844650,139.521179 126.305023,139.158417 
	C126.305023,144.287766 126.305023,148.817474 126.305023,153.933670 
	C130.895721,153.933670 135.494629,153.933670 140.543915,153.980850 
	C140.994293,154.028030 140.940170,154.004669 140.940170,154.004669 
z"/>
<path fill="#E84F15" opacity="1.000000" stroke="none" 
	d="
M101.006432,96.014496 
	C101.069252,96.833969 101.132072,97.653450 100.833443,98.731964 
	C100.297379,98.999306 100.122757,99.007591 99.948135,99.015884 
	C97.561264,92.982582 95.174385,86.949272 93.060181,80.307739 
	C93.924492,74.381004 94.516136,69.062508 95.107773,63.744003 
	C96.745712,66.875237 98.383652,70.006470 99.979965,73.899719 
	C97.802521,81.903961 96.958244,89.081596 101.006432,96.014496 
z"/>
<path fill="#D74328" opacity="1.000000" stroke="none" 
	d="
M103.781631,114.451263 
	C104.537766,112.047401 105.249306,109.988625 106.038246,107.959961 
	C106.667076,106.343025 107.390312,104.762802 108.418533,103.076645 
	C109.381432,112.570259 109.997452,122.153503 110.613464,131.736755 
	C109.840103,132.004349 109.066750,132.271942 108.293396,132.539536 
	C107.521553,131.197922 106.349998,129.939041 106.051987,128.499329 
	C105.114944,123.972534 104.506256,119.377785 103.781631,114.451263 
z"/>
<path fill="#F1840D" opacity="1.000000" stroke="none" 
	d="
M82.757164,92.113953 
	C79.979454,88.284927 77.201736,84.455894 74.670029,80.234581 
	C75.608688,78.449661 76.863853,77.063972 76.881142,75.663002 
	C76.921707,72.377266 76.369743,69.084213 76.057632,65.794121 
	C78.339348,69.300156 80.621056,72.806190 82.773041,76.775513 
	C82.865471,77.418159 83.087624,77.597519 83.309784,77.776886 
	C83.309784,77.776886 83.218468,77.902069 83.157951,78.232986 
	C82.984016,83.080589 82.870590,87.597275 82.757164,92.113953 
z"/>
<path fill="#B34A57" opacity="1.000000" stroke="none" 
	d="
M123.025459,115.012901 
	C123.015938,115.463821 123.006416,115.914742 122.761436,116.771698 
	C122.302979,117.472847 122.351685,117.733932 122.672089,117.961006 
	C122.021919,122.495338 121.371750,127.029663 120.347183,131.305542 
	C119.831100,128.322189 119.730911,125.594398 119.539337,122.873032 
	C119.097176,116.591820 118.610672,110.313728 118.142151,104.034370 
	C118.931770,99.884842 119.721390,95.735313 121.018433,91.514099 
	C121.684517,97.113831 121.766869,102.788940 122.040245,108.454826 
	C122.146240,110.651588 122.684258,112.827492 123.025459,115.012901 
z"/>
<path fill="#19238D" opacity="1.000000" stroke="none" 
	d="
M173.644012,153.382416 
	C171.277512,156.028610 160.762665,157.568710 159.954071,155.368683 
	C158.606674,151.702621 158.507919,147.412827 158.764130,143.442474 
	C158.825302,142.494659 162.309265,141.593216 164.317566,141.010162 
	C165.546082,140.653519 166.973877,141.056503 168.292435,140.923203 
	C172.454468,140.502380 174.111099,142.425613 173.835541,146.464157 
	C173.688461,148.619507 173.774277,150.790741 173.644012,153.382416 
M171.601105,152.069351 
	C171.601105,149.168396 171.601105,146.267441 171.601105,143.302094 
	C167.551147,143.302094 164.299149,143.302094 160.712433,143.302094 
	C160.712433,146.870483 160.712433,150.232590 160.712433,154.416458 
	C164.552643,153.886322 167.980957,153.413055 171.601105,152.069351 
z"/>
<path fill="#746AAB" opacity="1.000000" stroke="none" 
	d="
M145.078278,100.017616 
	C148.041580,95.680061 151.004883,91.342506 154.388397,87.268791 
	C155.603668,89.719330 156.398758,91.906036 157.193832,94.092743 
	C154.206772,97.901695 151.219696,101.710640 147.667175,105.714539 
	C146.673218,104.662758 146.244537,103.416084 145.816269,102.169281 
	C145.569946,101.452171 145.324265,100.734840 145.078278,100.017616 
z"/>
<path fill="#716CAE" opacity="1.000000" stroke="none" 
	d="
M148.919708,68.770195 
	C149.935791,66.313614 150.919937,63.800571 154.693481,66.318924 
	C155.024582,70.361870 155.049255,73.764786 155.073914,77.167694 
	C153.673538,79.029892 152.273132,80.892090 150.198792,82.845428 
	C149.018112,81.667206 148.068359,80.390343 148.089676,79.129898 
	C148.148148,75.672974 148.614700,72.222954 148.919708,68.770195 
z"/>
<path fill="#F7A705" opacity="1.000000" stroke="none" 
	d="
M64.753807,78.052803 
	C67.096626,80.497208 69.439445,82.941605 71.932816,86.089890 
	C72.597122,89.987907 75.068886,93.233696 71.831856,96.328903 
	C69.299713,93.809608 66.767570,91.290314 64.082253,88.143288 
	C64.203987,84.361305 64.478897,81.207054 64.753807,78.052803 
z"/>
<path fill="#7C539A" opacity="1.000000" stroke="none" 
	d="
M144.853607,100.274826 
	C145.324265,100.734840 145.569946,101.452171 145.816269,102.169281 
	C146.244537,103.416084 146.673218,104.662758 147.433960,105.967735 
	C144.979340,110.836670 142.192490,115.647362 138.835861,120.662674 
	C137.787292,119.521301 137.308502,118.175308 136.829712,116.829308 
	C136.829727,116.829308 136.867554,116.929306 137.137634,116.746994 
	C137.537659,115.863739 137.667587,115.162811 137.797516,114.461884 
	C140.074661,109.818604 142.351791,105.175323 144.853607,100.274826 
z"/>
<path fill="#072888" opacity="1.000000" stroke="none" 
	d="
M72.353928,156.043762 
	C70.923866,154.839325 69.170341,153.735657 69.078705,152.507950 
	C68.733841,147.887482 68.871925,143.225220 68.983192,138.582306 
	C69.001099,137.835175 69.803574,137.106873 70.243362,136.369858 
	C70.874329,136.909546 72.081635,137.490906 72.046089,137.982407 
	C71.730515,142.346344 74.650986,142.261871 77.933762,143.081802 
	C76.259674,143.703705 74.585587,144.325607 72.485489,145.105759 
	C72.485489,147.593903 72.485489,150.456970 72.485489,153.413574 
	C74.562088,153.741699 76.334213,154.021713 78.106339,154.301727 
	C78.109451,154.778259 78.112564,155.254791 78.115677,155.731323 
	C76.341614,155.850082 74.567551,155.968842 72.353928,156.043762 
z"/>
<path fill="#7F5096" opacity="1.000000" stroke="none" 
	d="
M136.254852,76.753922 
	C136.001831,74.791954 136.028091,72.598236 135.984894,70.405891 
	C135.911758,66.693916 135.794708,62.982815 136.005432,59.041515 
	C138.861069,59.824692 141.407410,60.837696 144.320511,61.996601 
	C141.575363,67.097466 139.039139,71.810127 136.254852,76.753922 
z"/>
<path fill="#8E5084" opacity="1.000000" stroke="none" 
	d="
M130.172684,109.038361 
	C131.927765,104.156769 133.682846,99.275185 135.718964,94.556580 
	C136.688919,97.490211 137.377808,100.260880 138.066696,103.031540 
	C136.177307,107.485893 134.287933,111.940254 132.148438,116.295532 
	C131.323120,113.810417 130.747910,111.424385 130.172684,109.038361 
z"/>
<path fill="#E84F15" opacity="1.000000" stroke="none" 
	d="
M96.163818,108.920258 
	C98.435730,116.042480 100.707657,123.164696 103.088402,130.628067 
	C99.057945,130.577530 99.057945,130.577530 95.103943,116.394409 
	C95.643806,113.469795 95.903816,111.195030 96.163818,108.920258 
z"/>
<path fill="#E95A0F" opacity="1.000000" stroke="none" 
	d="
M95.111908,63.549461 
	C94.516136,69.062508 93.924492,74.381004 93.006485,79.932037 
	C91.724724,78.384583 90.769341,76.604599 90.058456,74.250320 
	C90.203140,68.815979 90.103317,63.955940 90.003494,59.095901 
	C92.080177,57.067902 93.080055,58.464252 93.985611,60.964500 
	C94.348526,62.063656 94.657761,62.529541 94.966995,62.995426 
	C94.966995,62.995426 95.116035,63.354923 95.111908,63.549461 
z"/>
<path fill="#7A569F" opacity="1.000000" stroke="none" 
	d="
M139.869049,85.470367 
	C141.453400,82.160820 143.037750,78.851273 145.100708,75.548874 
	C145.445312,80.546844 145.311279,85.537651 145.177261,90.528465 
	C144.046127,92.593086 142.914978,94.657707 141.209320,96.683640 
	C140.379562,92.920090 140.124313,89.195229 139.869049,85.470367 
z"/>
<path fill="#68A6D5" opacity="1.000000" stroke="none" 
	d="
M166.914795,73.732155 
	C169.342346,72.495995 171.769897,71.259842 174.547119,70.442375 
	C174.963333,73.287033 175.029861,75.712997 175.096375,78.138962 
	C173.220947,79.672256 171.345505,81.205544 168.859070,82.809158 
	C167.803650,79.830368 167.359222,76.781265 166.914795,73.732155 
z"/>
<path fill="#E74314" opacity="1.000000" stroke="none" 
	d="
M101.297302,95.723587 
	C96.958244,89.081596 97.802521,81.903961 99.993004,74.266785 
	C101.451073,77.274796 102.854462,80.677757 104.312500,84.466919 
	C103.579414,86.237167 102.436386,87.538422 102.089920,89.025284 
	C101.609261,91.088043 101.726768,93.290199 101.297302,95.723587 
z"/>
<path fill="#AC4A60" opacity="1.000000" stroke="none" 
	d="
M123.236183,114.700668 
	C122.684258,112.827492 122.146240,110.651588 122.040245,108.454826 
	C121.766869,102.788940 121.684517,97.113831 121.247192,91.213928 
	C121.477852,88.835075 121.987183,86.684692 122.734680,84.260361 
	C123.316475,88.247765 123.563431,92.520233 124.051735,96.764938 
	C124.244934,98.444366 124.974869,100.062057 125.819427,101.901062 
	C125.267914,106.192329 124.357407,110.290382 123.236183,114.700668 
z"/>
<path fill="#EC6C16" opacity="1.000000" stroke="none" 
	d="
M89.640747,59.124702 
	C90.103317,63.955940 90.203140,68.815979 89.959106,73.916946 
	C87.388855,70.349426 85.162468,66.540985 82.692726,62.316273 
	C84.988152,61.213825 87.133072,60.183666 89.640747,59.124702 
z"/>
<path fill="#EB6B1A" opacity="1.000000" stroke="none" 
	d="
M88.176125,87.617783 
	C89.723351,90.846596 91.270576,94.075409 92.532654,97.845581 
	C91.811142,101.296768 91.374779,104.206604 90.938416,107.116432 
	C89.277481,104.004494 87.616547,100.892563 86.220703,97.264313 
	C87.049232,93.704597 87.612679,90.661186 88.176125,87.617783 
z"/>
<path fill="#F9BE03" opacity="1.000000" stroke="none" 
	d="
M64.624725,77.765694 
	C64.478897,81.207054 64.203987,84.361305 63.925751,87.855804 
	C62.338818,86.792244 60.755207,85.388435 59.042770,83.278275 
	C59.003555,79.349258 59.093170,76.126602 59.182781,72.903938 
	C60.953735,74.428818 62.724686,75.953697 64.624725,77.765694 
z"/>
<path fill="#D9DFEA" opacity="1.000000" stroke="none" 
	d="
M106.981537,172.078232 
	C105.590729,171.129517 104.199913,170.180801 102.814514,169.235779 
	C106.335144,165.313568 110.903976,166.742111 115.630005,167.004608 
	C115.999893,167.000000 115.987015,166.989975 115.987015,166.989975 
	C115.987015,168.774780 115.987015,170.559586 115.987015,173.041443 
	C113.749390,172.739120 111.284485,172.406097 108.160553,172.064606 
	C107.328186,172.063507 107.154861,172.070862 106.981537,172.078232 
z"/>
<path fill="#F39511" opacity="1.000000" stroke="none" 
	d="
M71.933411,96.637802 
	C75.068886,93.233696 72.597122,89.987907 72.036003,86.410294 
	C74.171623,88.840675 76.354599,91.654533 78.426987,95.021652 
	C77.887772,98.024147 77.459129,100.473381 77.030487,102.922615 
	C75.365311,100.930649 73.700142,98.938683 71.933411,96.637802 
z"/>
<path fill="#F18510" opacity="1.000000" stroke="none" 
	d="
M77.121788,103.252121 
	C77.459129,100.473381 77.887772,98.024147 78.541344,95.335632 
	C80.507187,97.814842 82.248093,100.533333 83.779228,103.802719 
	C83.810669,105.755096 84.307533,107.176216 84.201942,108.551064 
	C84.133179,109.446365 83.188103,110.274368 82.635605,111.132523 
	C80.828102,108.615555 79.020599,106.098587 77.121788,103.252121 
z"/>
<path fill="#EE7313" opacity="1.000000" stroke="none" 
	d="
M88.170486,87.265594 
	C87.612679,90.661186 87.049232,93.704597 86.149063,96.911140 
	C84.856407,95.633667 83.900482,94.193062 82.850861,92.433205 
	C82.870590,87.597275 82.984016,83.080589 83.168030,78.156174 
	C84.880692,80.803429 86.522774,83.858421 88.170486,87.265594 
z"/>
<path fill="#EB6B1A" opacity="1.000000" stroke="none" 
	d="
M87.129478,109.708168 
	C89.695030,115.891678 92.260582,122.075195 95.013062,128.709244 
	C91.315201,128.419678 91.315201,128.419678 87.025627,118.394257 
	C87.127052,115.015717 87.128265,112.361946 87.129478,109.708168 
z"/>
<path fill="#DEC31D" opacity="1.000000" stroke="none" 
	d="
M55.027290,80.612358 
	C52.724857,79.026947 50.266129,77.619591 48.179672,75.788139 
	C46.963436,74.720551 46.343143,72.974045 45.035492,70.853004 
	C48.596321,70.453926 50.863827,70.199791 53.563339,70.425323 
	C54.339329,74.140770 54.683308,77.376564 55.027290,80.612358 
z"/>
<path fill="#0B1986" opacity="1.000000" stroke="none" 
	d="
M147.235779,147.907883 
	C147.235703,150.918167 147.235703,153.451157 147.235703,155.984161 
	C146.499832,155.979462 145.763947,155.974777 145.028076,155.970078 
	C145.254532,151.524261 144.299545,146.465103 146.165634,142.870499 
	C147.227127,140.825760 152.900742,141.175323 156.497406,140.446671 
	C156.611542,141.162277 156.725677,141.877869 156.839798,142.593475 
	C155.107269,142.764130 153.348648,143.209259 151.647705,143.047607 
	C148.235886,142.723358 146.638321,143.883759 147.235779,147.907883 
z"/>
<path fill="#F39209" opacity="1.000000" stroke="none" 
	d="
M75.911316,65.487930 
	C76.369743,69.084213 76.921707,72.377266 76.881142,75.663002 
	C76.863853,77.063972 75.608688,78.449661 74.571861,79.921532 
	C73.527161,79.254105 72.826645,78.507431 72.086273,77.066574 
	C72.028748,72.943840 72.011063,69.515297 71.993370,66.086746 
	C73.250580,65.785080 74.507797,65.483414 75.911316,65.487930 
z"/>
<path fill="#F6A810" opacity="1.000000" stroke="none" 
	d="
M71.599365,66.073486 
	C72.011063,69.515297 72.028748,72.943840 71.982864,76.777359 
	C69.234329,74.354172 66.549370,71.526016 63.439404,68.250191 
	C66.343109,67.431358 68.774231,66.745789 71.599365,66.073486 
z"/>
<path fill="#BA4147" opacity="1.000000" stroke="none" 
	d="
M118.050003,104.444763 
	C118.610672,110.313728 119.097176,116.591820 119.539337,122.873032 
	C119.730911,125.594398 119.831100,128.322189 119.980118,131.446045 
	C117.302498,132.756302 116.889793,131.280426 116.985077,129.086761 
	C117.335899,121.010712 117.637650,112.932533 118.050003,104.444763 
z"/>
<path fill="#7560A5" opacity="1.000000" stroke="none" 
	d="
M145.469025,90.324364 
	C145.311279,85.537651 145.445312,80.546844 145.330551,75.298813 
	C146.177872,73.083374 147.273972,71.125168 148.644897,68.968575 
	C148.614700,72.222954 148.148148,75.672974 148.089676,79.129898 
	C148.068359,80.390343 149.018112,81.667206 149.942841,83.033241 
	C148.827469,85.460022 147.294128,87.790138 145.469025,90.324364 
z"/>
<path fill="#63BBE3" opacity="1.000000" stroke="none" 
	d="
M175.436493,78.059082 
	C175.029861,75.712997 174.963333,73.287033 174.933838,70.509834 
	C178.399231,70.445091 181.827606,70.731583 186.415695,71.114990 
	C182.238373,73.810150 179.007492,75.894676 175.436493,78.059082 
z"/>
<path fill="#7281BC" opacity="1.000000" stroke="none" 
	d="
M155.370804,77.007568 
	C155.049255,73.764786 155.024582,70.361870 154.995422,66.501625 
	C157.754593,66.692810 160.518265,67.341331 163.773987,68.105316 
	C160.731918,71.385986 158.199814,74.116714 155.370804,77.007568 
z"/>
<path fill="#7E4B90" opacity="1.000000" stroke="none" 
	d="
M139.583038,85.704559 
	C140.124313,89.195229 140.379562,92.920090 140.961639,96.891113 
	C140.381516,98.954132 139.474564,100.770996 138.317154,102.809692 
	C137.377808,100.260880 136.688919,97.490211 135.977158,94.310608 
	C137.068542,91.247360 138.182800,88.593063 139.583038,85.704559 
z"/>
<path fill="#0B1986" opacity="1.000000" stroke="none" 
	d="
M190.741074,154.003281 
	C188.558807,155.973358 179.586655,157.084000 177.422653,155.503128 
	C176.707947,154.981018 175.970352,153.949493 175.938995,153.124435 
	C175.786514,149.113373 175.870102,145.093323 175.870102,141.076462 
	C176.442322,141.044678 177.014557,141.012894 177.586777,140.981110 
	C177.586777,145.160568 177.586777,149.340012 177.586777,153.919144 
	C181.597443,153.919144 184.702682,153.919144 188.590332,153.930725 
	C189.828857,153.962616 190.284973,153.982941 190.741074,154.003281 
z"/>
<path fill="#E85A14" opacity="1.000000" stroke="none" 
	d="
M90.946777,107.472458 
	C91.374779,104.206604 91.811142,101.296768 92.545830,98.208038 
	C92.844154,98.029129 93.072418,98.413956 93.052750,99.000504 
	C93.437080,100.364449 93.841080,101.141861 94.245087,101.919266 
	C94.245087,101.919266 94.123093,101.921936 94.097397,102.218849 
	C94.660156,103.670464 95.248619,104.825157 95.837074,105.979858 
	C95.922676,106.711983 96.008270,107.444107 96.128845,108.548248 
	C95.903816,111.195030 95.643806,113.469795 95.097229,116.006714 
	C94.810654,116.268867 94.827751,116.234322 94.860641,115.893677 
	C94.581032,115.040237 94.268517,114.527435 93.956001,114.014633 
	C92.955711,111.952576 91.955421,109.890526 90.946777,107.472458 
z"/>
<path fill="#6D8BC3" opacity="1.000000" stroke="none" 
	d="
M165.114639,86.205383 
	C163.966782,87.402588 162.818909,88.599785 161.104660,89.714760 
	C159.976135,86.953011 159.413986,84.273491 158.851837,81.593971 
	C160.053284,80.227539 161.254730,78.861107 162.731216,77.780090 
	C163.709061,80.778801 164.411850,83.492096 165.114639,86.205383 
z"/>
<path fill="#EEC10C" opacity="1.000000" stroke="none" 
	d="
M55.267784,80.854805 
	C54.683308,77.376564 54.339329,74.140770 53.999641,70.471191 
	C55.627247,70.780746 57.250553,71.524078 59.028320,72.585678 
	C59.093170,76.126602 59.003555,79.349258 58.874184,83.013908 
	C57.725712,82.669685 56.616997,81.883469 55.267784,80.854805 
z"/>
<path fill="#9E476A" opacity="1.000000" stroke="none" 
	d="
M129.869461,123.975174 
	C128.768082,126.543938 130.205185,130.829498 124.484520,131.198929 
	C125.750023,125.725067 126.890991,120.789886 128.398392,115.798981 
	C129.133041,118.487236 129.501251,121.231201 129.869461,123.975174 
z"/>
<path fill="#001482" opacity="1.000000" stroke="none" 
	d="
M48.170937,151.879272 
	C47.582970,153.586044 46.995049,154.810944 46.407127,156.035858 
	C45.918739,154.875427 45.091225,153.738495 45.008915,152.549942 
	C44.805176,149.607956 44.804420,146.632095 45.023354,143.692261 
	C45.092628,142.762054 46.114788,141.902802 46.700867,141.011078 
	C47.190033,141.845535 48.039043,142.654190 48.101017,143.519257 
	C48.288307,146.133560 48.170109,148.769745 48.170937,151.879272 
z"/>
<path fill="#6E7BB8" opacity="1.000000" stroke="none" 
	d="
M158.572266,81.778610 
	C159.413986,84.273491 159.976135,86.953011 160.820648,89.844330 
	C159.990158,91.312347 158.877304,92.568558 157.479141,93.958755 
	C156.398758,91.906036 155.603668,89.719330 154.682465,87.124222 
	C154.556335,86.715820 154.605820,86.738083 154.842316,86.768204 
	C155.195099,86.731407 155.311401,86.664505 155.427689,86.597603 
	C155.275024,86.399895 155.122375,86.202179 154.969727,86.004471 
	C156.077377,84.657402 157.185028,83.310326 158.572266,81.778610 
z"/>
<path fill="#6B94C9" opacity="1.000000" stroke="none" 
	d="
M165.397186,86.062851 
	C164.411850,83.492096 163.709061,80.778801 163.016922,77.662437 
	C163.027588,77.259361 163.056396,77.071037 163.295166,76.944672 
	C163.719803,76.662354 163.882355,76.485046 164.021637,76.286385 
	C164.791031,75.535454 165.560425,74.784523 166.622314,73.882874 
	C167.359222,76.781265 167.803650,79.830368 168.541504,82.914932 
	C167.783173,83.940369 166.731445,84.930351 165.397186,86.062851 
z"/>
<path fill="#91578B" opacity="1.000000" stroke="none" 
	d="
M136.549011,117.056503 
	C137.308502,118.175308 137.787292,119.521301 138.633636,120.936279 
	C137.237457,123.725624 135.473709,126.445984 133.344604,129.065521 
	C132.979233,128.964706 132.975754,128.979843 132.975769,128.979843 
	C134.073288,125.081131 135.170807,121.182411 136.549011,117.056503 
z"/>
<path fill="#EE7313" opacity="1.000000" stroke="none" 
	d="
M87.110123,109.374634 
	C87.128265,112.361946 87.127052,115.015717 86.972496,118.045990 
	C85.501305,116.216164 84.183456,114.009842 82.750610,111.468018 
	C83.188103,110.274368 84.133179,109.446365 84.201942,108.551064 
	C84.307533,107.176216 83.810669,105.755096 83.835968,104.151093 
	C85.098564,105.646095 86.094666,107.343597 87.110123,109.374634 
z"/>
<path fill="#9A4F75" opacity="1.000000" stroke="none" 
	d="
M130.044113,123.654297 
	C129.501251,121.231201 129.133041,118.487236 128.547485,115.434807 
	C128.850494,113.314545 129.370819,111.502747 130.031921,109.364655 
	C130.747910,111.424385 131.323120,113.810417 131.941345,116.576263 
	C131.395828,119.081863 130.807297,121.207642 130.044113,123.654297 
z"/>
<path fill="#D9DFEA" opacity="1.000000" stroke="none" 
	d="
M126.840294,55.082626 
	C127.590195,55.233250 128.340103,55.383869 129.621674,55.641281 
	C127.847282,58.435040 127.034233,61.643700 122.482498,60.046612 
	C122.084991,59.974163 122.047775,59.794460 122.028099,59.621330 
	C122.008423,59.448196 122.018753,59.099857 122.058411,58.766083 
	C122.105080,57.986183 122.112083,57.540058 122.392746,56.970013 
	C124.057709,56.258270 125.449005,55.670448 126.840294,55.082626 
z"/>
<path fill="#20298D" opacity="1.000000" stroke="none" 
	d="
M141.007248,154.054504 
	C142.413177,149.894073 141.696640,147.236282 136.532364,148.192032 
	C138.411469,147.978577 140.290588,147.765137 142.892685,147.469574 
	C142.338867,149.632065 141.850739,151.538071 141.151398,153.724365 
	C140.940170,154.004669 140.994293,154.028030 141.007248,154.054504 
z"/>
<path fill="#041E86" opacity="1.000000" stroke="none" 
	d="
M190.893005,153.559570 
	C190.284973,153.982941 189.828857,153.962616 189.031845,153.910736 
	C188.880280,149.601776 189.069641,145.324387 189.258987,141.046982 
	C189.854309,141.032883 190.449631,141.018784 191.044952,141.004684 
	C191.044952,145.041733 191.044952,149.078796 190.893005,153.559570 
z"/>
<path fill="#EBEDF3" opacity="1.000000" stroke="none" 
	d="
M101.433205,59.134289 
	C100.569160,58.725067 99.705116,58.315845 98.351501,57.674759 
	C100.168053,56.380733 100.915466,53.016258 104.035324,56.816063 
	C105.072548,57.416260 105.528122,57.791748 105.998886,58.302525 
	C106.014069,58.437817 106.017357,58.710079 105.695175,58.714100 
	C104.059738,58.856846 102.746468,58.995567 101.433205,59.134289 
z"/>
<path fill="#0B1986" opacity="1.000000" stroke="none" 
	d="
M112.080505,58.194588 
	C112.372467,57.341743 112.664436,56.488903 113.126595,55.138908 
	C113.412476,55.138908 114.627602,55.138908 116.428268,55.452744 
	C117.355827,56.526215 117.697853,57.285851 117.653976,58.001949 
	C115.517563,58.274101 113.767075,58.589787 112.057457,58.729992 
	C112.098335,58.554512 112.080505,58.194588 112.080505,58.194588 
z"/>
<path fill="#B9C2DA" opacity="1.000000" stroke="none" 
	d="
M112.016579,58.905472 
	C113.767075,58.589787 115.517563,58.274101 117.625854,57.988163 
	C117.983658,58.017914 117.978386,57.954800 117.958481,58.207977 
	C117.939514,58.630455 117.940445,58.799759 117.968246,58.984226 
	C117.995110,58.999390 117.987068,58.938225 117.672684,59.021515 
	C116.906464,59.765205 116.454620,60.425610 116.002777,61.086014 
	C116.002777,61.086014 116.005234,61.009132 115.654892,60.962502 
	C114.230385,61.255993 113.156204,61.596123 112.082031,61.936253 
	C111.096611,61.564388 110.111191,61.192520 109.361145,60.404060 
	C110.403206,59.626808 111.209892,59.266140 112.016579,58.905472 
z"/>
<path fill="#EDF0F4" opacity="1.000000" stroke="none" 
	d="
M91.004898,169.987213 
	C90.833466,170.557541 90.662033,171.127853 90.490601,171.698181 
	C90.007408,171.507736 89.524223,171.317291 89.041031,171.126862 
	C89.826393,169.211029 90.611748,167.295212 91.397102,165.379379 
	C91.941139,165.593689 92.485184,165.807999 93.029221,166.022308 
	C92.799843,166.737350 92.570457,167.452408 91.879410,168.503586 
	C91.280113,169.222214 91.142502,169.604721 91.004898,169.987213 
z"/>
<path fill="#5767A2" opacity="1.000000" stroke="none" 
	d="
M112.057457,58.729996 
	C111.209892,59.266140 110.403206,59.626808 109.254196,60.074265 
	C106.582825,59.994328 104.253784,59.827599 101.678970,59.397579 
	C102.746468,58.995567 104.059738,58.856846 106.071770,58.800819 
	C108.177864,58.588436 109.585182,58.293358 110.992508,57.998276 
	C111.172256,58.039749 111.352013,58.081223 111.806137,58.158642 
	C112.080505,58.194588 112.098335,58.554512 112.057457,58.729996 
z"/>
<path fill="#F6F8FA" opacity="1.000000" stroke="none" 
	d="
M97.197998,167.993668 
	C98.334198,168.590363 99.470390,169.187042 100.606583,169.783722 
	C99.706612,170.189957 98.806625,170.596176 97.472900,170.631683 
	C97.092110,169.505188 97.145058,168.749435 97.197998,167.993668 
z"/>
<path fill="#5767A2" opacity="1.000000" stroke="none" 
	d="
M128.625275,171.759048 
	C128.443832,171.832260 128.262405,171.905487 127.749374,172.002213 
	C127.417793,172.025696 127.410164,172.161606 127.410164,172.161606 
	C127.264549,172.027328 127.118935,171.893051 126.919342,171.108093 
	C126.833084,169.939316 126.800812,169.421234 126.768539,168.903152 
	C127.262062,168.199493 127.755592,167.495819 128.573013,167.352844 
	C128.806366,169.195374 128.715820,170.477203 128.625275,171.759048 
z"/>
<path fill="#19238D" opacity="1.000000" stroke="none" 
	d="
M126.510788,55.062729 
	C125.449005,55.670448 124.057709,56.258270 122.119614,56.957012 
	C121.390511,57.069859 121.208229,57.071777 121.019333,56.830727 
	C121.012726,56.587761 121.030632,56.101982 121.095123,55.811745 
	C121.049553,55.356647 120.939507,55.191792 121.254471,55.018227 
	C122.524597,54.945553 123.369713,54.881588 124.214836,54.817623 
	C124.870316,54.892689 125.525795,54.967758 126.510788,55.062729 
z"/>
<path fill="#B9C2DA" opacity="1.000000" stroke="none" 
	d="
M105.983696,58.167233 
	C105.528122,57.791748 105.072548,57.416260 104.298981,57.021561 
	C104.602493,56.113155 105.223984,55.223969 105.845482,54.334778 
	C106.238991,54.941898 106.632500,55.549019 107.004364,56.771919 
	C107.013901,57.569855 107.045090,57.752003 106.804909,58.000763 
	C106.350266,58.100662 106.166977,58.133949 105.983696,58.167233 
z"/>
<path fill="#7281BC" opacity="1.000000" stroke="none" 
	d="
M138.975693,168.963455 
	C139.419861,169.601074 139.864029,170.238693 141.131180,172.057739 
	C139.598541,170.239258 135.783539,172.589966 138.691193,168.873718 
	C139.022919,168.991089 138.975693,168.963455 138.975693,168.963455 
z"/>
<path fill="#6B94C9" opacity="1.000000" stroke="none" 
	d="
M132.974380,168.977783 
	C133.260147,169.906937 133.545914,170.836105 133.392700,171.561584 
	C132.626465,171.341171 132.299194,171.324448 131.971924,171.307709 
	C131.628708,171.526825 131.285477,171.745926 130.646729,171.431824 
	C130.569931,170.606293 130.788666,170.313995 131.035614,169.737915 
	C131.101212,169.267731 131.138641,169.081329 131.176086,168.894928 
	C131.608475,168.842621 132.040863,168.790314 132.743057,168.874786 
	C133.012863,169.011581 132.974380,168.977783 132.974380,168.977783 
z"/>
<path fill="#072888" opacity="1.000000" stroke="none" 
	d="
M97.119766,167.709030 
	C97.145058,168.749435 97.092110,169.505188 97.116600,170.633667 
	C96.816063,171.541702 96.438080,172.077042 95.998688,171.992859 
	C95.867516,170.884949 95.797745,170.396591 95.727974,169.908218 
	C95.747871,169.505081 95.767761,169.101959 95.851990,168.107086 
	C95.865990,167.314941 95.815651,167.114563 95.765312,166.914154 
	C96.190720,167.084244 96.616119,167.254318 97.119766,167.709030 
z"/>
<path fill="#D9DFEA" opacity="1.000000" stroke="none" 
	d="
M120.829460,55.026936 
	C120.939507,55.191792 121.049553,55.356647 120.818382,55.933090 
	C119.644234,56.881382 118.811310,57.418091 117.978386,57.954800 
	C117.978386,57.954800 117.983658,58.017914 118.011772,58.031700 
	C117.697853,57.285851 117.355827,56.526215 116.805893,55.497292 
	C116.882668,55.158989 117.167366,55.089973 118.201141,54.962128 
	C119.576637,54.944515 120.203049,54.985725 120.829460,55.026936 
z"/>
<path fill="#5767A2" opacity="1.000000" stroke="none" 
	d="
M91.345901,170.055847 
	C91.142502,169.604721 91.280113,169.222214 91.720566,168.738647 
	C92.784668,169.025604 93.545929,169.413635 94.592468,170.257294 
	C94.888359,171.112152 94.898979,171.511414 94.909599,171.910675 
	C93.835373,171.315277 92.761147,170.719879 91.345901,170.055847 
z"/>
<path fill="#5767A2" opacity="1.000000" stroke="none" 
	d="
M121.254471,55.018227 
	C120.203049,54.985725 119.576637,54.944515 118.636963,54.905998 
	C118.152176,54.553940 118.234428,54.273575 119.037254,53.978569 
	C119.676910,53.848557 119.849762,53.807568 120.022606,53.766582 
	C121.222519,53.974564 122.422440,54.182541 123.918594,54.604073 
	C123.369713,54.881588 122.524597,54.945553 121.254471,55.018227 
z"/>
<path fill="#D9DFEA" opacity="1.000000" stroke="none" 
	d="
M131.007416,170.021683 
	C130.788666,170.313995 130.569931,170.606293 130.041397,171.350311 
	C129.731598,171.802032 129.312531,171.880600 129.312531,171.880600 
	C129.312531,171.880600 128.887665,171.877472 128.756470,171.818268 
	C128.715820,170.477203 128.806366,169.195374 128.832336,167.529022 
	C128.975113,167.119751 129.182449,167.095001 129.696808,167.388901 
	C130.338333,168.478943 130.672882,169.250305 131.007416,170.021683 
z"/>
<path fill="#B9C2DA" opacity="1.000000" stroke="none" 
	d="
M126.495651,169.046555 
	C126.800812,169.421234 126.833084,169.939316 126.790474,170.840363 
	C126.207420,171.761093 125.699249,172.298859 125.191086,172.836639 
	C124.933006,172.685577 124.674934,172.534515 124.416862,172.383469 
	C125.018829,171.318970 125.620796,170.254456 126.495651,169.046555 
z"/>
<path fill="#E74314" opacity="1.000000" stroke="none" 
	d="
M99.921165,99.343781 
	C100.122757,99.007591 100.297379,98.999306 100.733810,98.977036 
	C101.167778,99.850212 101.339928,100.737381 101.262650,101.809830 
	C100.640213,101.220634 100.267204,100.446152 99.921165,99.343781 
z"/>
<path fill="#F6F8FA" opacity="1.000000" stroke="none" 
	d="
M105.998886,58.302525 
	C106.166977,58.133949 106.350266,58.100662 107.214149,58.043716 
	C108.720200,58.031094 109.545639,58.042133 110.371086,58.053173 
	C110.371086,58.053173 110.679466,57.998672 110.835983,57.998474 
	C109.585182,58.293358 108.177864,58.588436 106.393951,58.796799 
	C106.017357,58.710079 106.014069,58.437817 105.998886,58.302525 
z"/>
<path fill="#6E7BB8" opacity="1.000000" stroke="none" 
	d="
M122.173706,59.997578 
	C121.162384,60.417900 120.062332,60.814808 118.495193,60.815685 
	C118.014420,59.925846 118.000748,59.432034 117.987068,58.938225 
	C117.987068,58.938225 117.995110,58.999390 118.257645,59.063465 
	C118.720222,59.126648 118.920265,59.125759 119.267319,59.419579 
	C120.292145,59.741013 121.169960,59.767735 122.047775,59.794460 
	C122.047775,59.794460 122.084991,59.974163 122.173706,59.997578 
z"/>
<path fill="#E84F15" opacity="1.000000" stroke="none" 
	d="
M95.828842,105.649452 
	C95.248619,104.825157 94.660156,103.670464 94.118271,102.161522 
	C94.716774,102.977867 95.268692,104.148460 95.828842,105.649452 
z"/>
<path fill="#6B94C9" opacity="1.000000" stroke="none" 
	d="
M139.040863,169.011749 
	C139.252304,168.501617 139.445786,167.970840 139.639267,167.440048 
	C139.947845,167.659225 140.256424,167.878403 140.564987,168.097595 
	C140.224792,168.343048 139.884598,168.588501 139.260040,168.898697 
	C138.975693,168.963455 139.022919,168.991089 139.040863,169.011749 
z"/>
<path fill="#6B94C9" opacity="1.000000" stroke="none" 
	d="
M133.032318,169.028229 
	C133.362213,168.481689 133.672638,167.918518 133.983047,167.355347 
	C134.229675,167.501968 134.476288,167.648590 134.722916,167.795212 
	C134.351715,168.164108 133.980499,168.533005 133.291840,168.939835 
	C132.974380,168.977783 133.012863,169.011581 133.032318,169.028229 
z"/>
<path fill="#6E7BB8" opacity="1.000000" stroke="none" 
	d="
M112.453461,61.964142 
	C113.156204,61.596123 114.230385,61.255993 115.655136,61.003536 
	C114.945450,61.391483 113.885170,61.691757 112.453461,61.964142 
z"/>
<path fill="#5767A2" opacity="1.000000" stroke="none" 
	d="
M110.182083,57.713829 
	C109.545639,58.042133 108.720200,58.031094 107.485512,57.977100 
	C107.045090,57.752003 107.013901,57.569855 106.989700,57.110462 
	C107.995491,57.013641 108.994286,57.194061 110.182083,57.713829 
z"/>
<path fill="#0B1986" opacity="1.000000" stroke="none" 
	d="
M131.035614,169.737915 
	C130.672882,169.250305 130.338333,168.478943 130.008392,167.356964 
	C130.356918,167.418076 130.700867,167.829788 131.110443,168.568207 
	C131.138641,169.081329 131.101212,169.267731 131.035614,169.737915 
z"/>
<path fill="#E84F15" opacity="1.000000" stroke="none" 
	d="
M94.226990,101.578735 
	C93.841080,101.141861 93.437080,100.364449 93.041275,99.223923 
	C93.435959,99.653267 93.822433,100.445732 94.226990,101.578735 
z"/>
<path fill="#001482" opacity="1.000000" stroke="none" 
	d="
M117.672684,59.021515 
	C118.000748,59.432034 118.014420,59.925846 118.102432,60.784508 
	C117.676018,61.269051 117.175270,61.388741 116.338654,61.297222 
	C116.454620,60.425610 116.906464,59.765205 117.672684,59.021515 
z"/>
<path fill="#B9C2DA" opacity="1.000000" stroke="none" 
	d="
M95.103912,172.005630 
	C94.898979,171.511414 94.888359,171.112152 94.881546,170.413666 
	C94.885361,170.114426 95.284027,169.918777 95.505997,169.913498 
	C95.797745,170.396591 95.867516,170.884949 95.833984,171.733307 
	C95.730682,172.093307 95.298218,172.100586 95.103912,172.005630 
z"/>
<path fill="#F6F8FA" opacity="1.000000" stroke="none" 
	d="
M107.004562,172.318375 
	C107.154861,172.070862 107.328186,172.063507 107.761261,172.075165 
	C107.845741,172.502777 107.670471,172.911346 107.495201,173.319916 
	C107.339333,173.066116 107.183464,172.812317 107.004562,172.318375 
z"/>
<path fill="#B9C2DA" opacity="1.000000" stroke="none" 
	d="
M95.494705,166.908295 
	C95.815651,167.114563 95.865990,167.314941 95.809830,167.806366 
	C95.306389,167.961105 94.909447,167.824829 94.512497,167.688538 
	C94.749695,167.426498 94.986893,167.164459 95.494705,166.908295 
z"/>
<path fill="#91578B" opacity="1.000000" stroke="none" 
	d="
M137.535339,114.692184 
	C137.667587,115.162811 137.537659,115.863739 137.084320,116.743195 
	C136.931656,116.255302 137.102402,115.588890 137.535339,114.692184 
z"/>
<path fill="#E84F15" opacity="1.000000" stroke="none" 
	d="
M93.952911,114.325592 
	C94.268517,114.527435 94.581032,115.040237 94.864449,115.875031 
	C94.540176,115.676865 94.244995,115.156708 93.952911,114.325592 
z"/>
<path fill="#E84F15" opacity="1.000000" stroke="none" 
	d="
M95.007278,62.701294 
	C94.657761,62.529541 94.348526,62.063656 94.017212,61.304272 
	C94.345955,61.476234 94.696754,61.941696 95.007278,62.701294 
z"/>
<path fill="#D9DFEA" opacity="1.000000" stroke="none" 
	d="
M116.004898,167.006409 
	C116.099045,166.973083 116.188194,166.933350 116.132172,166.941803 
	C115.987015,166.989975 115.999893,167.000000 116.004898,167.006409 
z"/>
<path fill="#91578B" opacity="1.000000" stroke="none" 
	d="
M132.977539,128.953766 
	C132.975845,128.942841 133.029861,129.063354 133.002808,129.021606 
	C132.975754,128.979843 132.979233,128.964706 132.977539,128.953766 
z"/>
<path fill="#AC4A60" opacity="1.000000" stroke="none" 
	d="
M122.769516,117.734039 
	C122.351685,117.733932 122.302979,117.472847 122.663933,117.097565 
	C122.801888,117.017395 122.866928,117.507072 122.769516,117.734039 
z"/>
<path fill="#746AAB" opacity="1.000000" stroke="none" 
	d="
M154.826385,86.163498 
	C155.122375,86.202179 155.275024,86.399895 155.427689,86.597603 
	C155.311401,86.664505 155.195099,86.731407 154.868774,86.774170 
	C154.658737,86.750015 154.683044,86.322525 154.826385,86.163498 
z"/>
<path fill="#EE7313" opacity="1.000000" stroke="none" 
	d="
M83.270828,77.563545 
	C83.087624,77.597519 82.865471,77.418159 82.801651,77.125511 
	C82.959999,77.012230 83.231865,77.350204 83.270828,77.563545 
z"/>
<path fill="#6D8BC3" opacity="1.000000" stroke="none" 
	d="
M163.833557,76.338181 
	C163.882355,76.485046 163.719803,76.662354 163.388367,76.924881 
	C163.272217,76.751816 163.406464,76.537987 163.833557,76.338181 
z"/>
<path fill="#D9DFEA" opacity="1.000000" stroke="none" 
	d="
M127.429428,172.156067 
	C127.410164,172.161606 127.417793,172.025696 127.476273,172.109680 
	C127.534760,172.193665 127.448692,172.150528 127.429428,172.156067 
z"/>
<path fill="#D9DFEA" opacity="1.000000" stroke="none" 
	d="
M132.148315,171.474091 
	C132.299194,171.324448 132.626465,171.341171 133.109711,171.582657 
	C133.265671,171.807419 132.778091,171.820023 132.778091,171.820023 
	C132.778091,171.820023 132.324722,171.640442 132.148315,171.474091 
z"/>
<path fill="#D9DFEA" opacity="1.000000" stroke="none" 
	d="
M119.907242,53.641155 
	C119.849762,53.807568 119.676910,53.848557 119.240723,53.848953 
	C119.248886,53.710815 119.520386,53.613274 119.907242,53.641155 
z"/>
<path fill="#EBEDF3" opacity="1.000000" stroke="none" 
	d="
M84.125671,152.473297 
	C84.029976,149.609711 84.029976,147.175934 84.029976,144.526917 
	C86.851807,144.526917 89.264793,144.526917 92.029465,144.526917 
	C92.029465,147.133438 92.029465,149.537811 92.029465,152.903091 
	C89.518883,152.903091 86.870125,152.903091 84.125671,152.473297 
z"/>
<path fill="#D9DFEA" opacity="1.000000" stroke="none" 
	d="
M108.364212,149.991638 
	C109.197418,152.364685 108.061485,153.677032 104.606804,153.791138 
	C103.247208,153.836060 101.841782,152.494034 100.457230,151.783585 
	C100.675941,151.170425 100.894646,150.557281 101.113350,149.944138 
	C103.391884,149.944138 105.670418,149.944138 108.364212,149.991638 
z"/>
<path fill="#D9DFEA" opacity="1.000000" stroke="none" 
	d="
M56.312706,147.056152 
	C55.380680,146.329514 54.313637,145.187210 54.485847,144.951950 
	C55.689419,143.307526 61.157955,144.217361 63.517506,147.060287 
	C60.821682,147.060287 58.786446,147.060287 56.312706,147.056152 
z"/>
<path fill="#F6F8FA" opacity="1.000000" stroke="none" 
	d="
M206.806412,151.708206 
	C203.342545,152.998505 199.875259,153.832230 195.909332,154.785843 
	C195.909332,150.218201 195.909332,146.990295 195.909332,143.434784 
	C199.396057,143.434784 202.752090,143.434784 206.802994,143.434784 
	C206.802994,146.110489 206.802994,148.681046 206.806412,151.708206 
z"/>
<path fill="#EDF0F4" opacity="1.000000" stroke="none" 
	d="
M171.505188,152.504578 
	C167.980957,153.413055 164.552643,153.886322 160.712433,154.416458 
	C160.712433,150.232590 160.712433,146.870483 160.712433,143.302094 
	C164.299149,143.302094 167.551147,143.302094 171.601105,143.302094 
	C171.601105,146.267441 171.601105,149.168396 171.505188,152.504578 
z"/>
<path fill="#EBEDF3" opacity="1.000000" stroke="none" 
	d="
M122.028099,59.621330 
	C121.169960,59.767735 120.292145,59.741013 119.470306,59.318352 
	C119.526283,58.922421 119.942787,58.742603 120.287155,58.810944 
	C121.093941,58.952805 121.556343,59.026333 122.018753,59.099857 
	C122.018753,59.099857 122.008423,59.448196 122.028099,59.621330 
z"/>
<path fill="#5767A2" opacity="1.000000" stroke="none" 
	d="
M122.058411,58.766083 
	C121.556343,59.026333 121.093941,58.952805 120.407913,58.585396 
	C120.464836,57.885571 120.745392,57.479633 121.025940,57.073692 
	C121.208229,57.071777 121.390511,57.069859 121.845940,57.080936 
	C122.112083,57.540058 122.105080,57.986183 122.058411,58.766083 
z"/>
<path fill="#152589" opacity="1.000000" stroke="none" 
	d="
M121.019333,56.830727 
	C120.745392,57.479633 120.464836,57.885571 120.063538,58.517056 
	C119.942787,58.742603 119.526283,58.922421 119.323296,59.023647 
	C118.920265,59.125759 118.720222,59.126648 118.230782,59.048302 
	C117.940445,58.799759 117.939514,58.630455 117.958481,58.207977 
	C118.811310,57.418091 119.644234,56.881382 120.753891,56.223328 
	C121.030632,56.101982 121.012726,56.587761 121.019333,56.830727 
z"/>
</svg>