<svg version="1.1" id="Layer_1" xmlns="http://www.w3.org/2000/svg" xmlns:xlink="http://www.w3.org/1999/xlink" x="0px" y="0px"
	 width="100%" viewBox="0 0 500 500" enable-background="new 0 0 500 500" xml:space="preserve">
<path fill="#FFFEFF" opacity="1.000000" stroke="none" 
	d="
M278.000000,501.000000 
	C185.333359,501.000000 93.166710,501.000000 1.000049,501.000000 
	C1.000033,334.333405 1.000033,167.666794 1.000016,1.000139 
	C167.666565,1.000093 334.333130,1.000093 500.999756,1.000046 
	C500.999847,167.666519 500.999847,334.333038 500.999939,500.999786 
	C426.833344,501.000000 352.666656,501.000000 278.000000,501.000000 
M116.752563,280.499969 
	C116.752563,331.773071 116.752563,383.046173 116.752563,434.513031 
	C206.302155,434.513031 295.329285,434.513031 384.548157,434.513031 
	C384.548157,402.923615 384.548157,371.662537 384.548157,339.019623 
	C383.719757,341.755432 383.290741,343.158783 382.869751,344.564545 
	C376.855835,364.645966 365.643341,380.820007 347.285553,391.510345 
	C330.981171,401.004944 313.093933,403.439117 294.712097,401.906647 
	C262.427734,399.215088 238.283630,384.247162 225.453140,353.565613 
	C219.782959,340.006439 218.168182,325.626770 218.167725,311.032440 
	C218.166306,265.044678 218.166443,219.056931 218.165970,173.069183 
	C218.165939,171.126099 218.165955,169.183029 218.165955,167.201996 
	C184.066544,167.201996 150.527924,167.201996 116.752457,167.201996 
	C116.752457,204.879623 116.752457,242.189774 116.752563,280.499969 
M272.669922,305.476135 
	C274.006805,313.296082 274.398743,321.433136 276.892761,328.864746 
	C281.070282,341.312775 290.545319,347.365021 303.049408,347.405884 
	C316.168152,347.448730 326.661804,340.905670 330.683380,328.503357 
	C333.157043,320.874695 334.726013,312.602509 334.795654,304.602631 
	C335.181458,260.288605 334.982330,215.969498 334.983551,171.652115 
	C334.983582,170.197281 334.983551,168.742432 334.983551,167.200439 
	C313.969360,167.200439 293.432251,167.200439 272.962585,167.200439 
	C272.828400,167.887695 272.710114,168.210922 272.709961,168.534225 
	C272.688660,213.850830 272.675995,259.167419 272.669922,305.476135 
M316.416809,131.991562 
	C311.676117,124.102562 306.935425,116.213570 302.114685,108.191383 
	C303.140686,107.648491 303.706726,107.319443 304.296753,107.041199 
	C313.356140,102.768791 317.803192,95.516823 316.615326,86.939034 
	C315.274750,77.258224 309.118378,70.422340 298.947174,69.563873 
	C288.384491,68.672371 277.699493,69.202248 267.068146,69.215935 
	C266.384399,69.216812 265.701874,70.123512 265.018768,70.608833 
	C265.805817,71.142502 266.562012,72.079521 267.385040,72.142418 
	C271.749054,72.475960 273.695526,75.152115 273.720947,79.061783 
	C273.838989,97.208481 273.850006,115.357086 273.700195,133.503372 
	C273.668488,137.339340 271.904175,140.197769 267.318939,140.235321 
	C266.453552,140.242416 265.597626,141.403656 263.777252,142.733948 
	C274.123871,142.733948 282.938629,142.733948 291.753357,142.733948 
	C291.882172,142.319519 292.010956,141.905090 292.139771,141.490662 
	C291.200409,141.043930 290.236511,140.170380 289.325897,140.222778 
	C284.865662,140.479385 283.265656,137.802002 283.182587,134.084869 
	C283.001282,125.974030 283.126495,117.856331 283.126495,109.756798 
	C291.813354,109.566628 292.137695,109.776390 296.362183,116.519531 
	C300.857025,123.694214 305.114990,131.046219 310.053467,137.905304 
	C314.364258,143.892563 326.219879,146.029282 332.848297,141.736359 
	C325.099976,141.635529 319.824097,138.827774 316.416809,131.991562 
M383.075287,95.569801 
	C379.721252,99.317131 376.367218,103.064461 372.184570,107.737564 
	C372.184570,98.889290 372.182892,91.447098 372.184998,84.004906 
	C372.187836,73.906578 372.189056,73.906578 381.156403,70.297104 
	C372.256226,69.220131 363.279633,69.664162 354.142273,70.043503 
	C354.985291,71.358871 356.003662,72.044930 357.092712,72.186218 
	C361.150757,72.712730 362.920197,75.225784 362.934021,78.989159 
	C363.000702,97.140076 363.015289,115.291656 362.920776,133.442337 
	C362.900177,137.396317 361.119598,140.076797 356.614624,140.225693 
	C355.706451,140.255722 354.834290,141.375214 352.777924,142.803253 
	C363.344574,142.803253 372.192017,142.803253 381.039429,142.803253 
	C381.182800,142.420471 381.326202,142.037674 381.469574,141.654892 
	C380.594055,141.154236 379.682526,140.170609 378.848999,140.232803 
	C374.125336,140.585342 372.620178,137.781845 372.431305,133.845108 
	C372.208160,129.194290 372.555450,124.501183 372.104279,119.880219 
	C371.602020,114.735901 373.203796,110.852982 377.993927,107.696350 
	C387.705872,119.154182 397.511261,130.722260 407.883057,142.958603 
	C412.884552,142.958603 419.335358,142.958603 425.786133,142.958603 
	C425.397064,141.354462 424.552826,140.622360 423.579712,140.163528 
	C420.792572,138.849319 417.163971,138.364594 415.265350,136.279648 
	C404.765839,124.749542 394.682800,112.840218 384.325195,100.908936 
	C390.549713,94.388420 396.439789,88.302811 402.231445,82.124916 
	C406.996521,77.042099 411.366455,71.404839 419.732666,71.516144 
	C419.111176,70.340927 418.417603,69.246590 417.704071,69.233452 
	C410.727173,69.105003 403.746643,69.128098 396.768250,69.206436 
	C396.136963,69.213524 395.513397,69.907104 394.886230,70.281891 
	C395.411072,70.927269 395.838104,72.004951 396.476288,72.149338 
	C401.403870,73.264206 400.346680,75.963531 398.099304,78.601875 
	C393.354645,84.171875 388.410583,89.571968 383.075287,95.569801 
M168.296661,85.833511 
	C163.290863,94.273293 161.319702,103.252831 162.819016,113.071808 
	C166.102371,134.574249 186.736923,148.234329 209.637177,143.875916 
	C229.784775,140.041397 243.991989,118.817955 239.450211,98.889343 
	C235.678070,82.337875 225.196167,71.844368 208.633606,68.679489 
	C192.095734,65.519310 178.584457,71.419922 168.296661,85.833511 
M90.130188,85.423996 
	C93.709061,91.785118 96.678825,98.600700 101.007553,104.402336 
	C107.739449,113.424850 107.884109,123.435600 107.446838,133.797592 
	C107.285019,137.632050 105.975563,140.169312 101.580048,140.204193 
	C100.556442,140.212311 99.540863,141.232651 98.521591,141.787247 
	C98.717850,142.175446 98.914108,142.563629 99.110374,142.951828 
	C107.665695,142.951828 116.221024,142.951828 124.776344,142.951828 
	C124.405373,141.320221 123.521309,140.251419 122.591927,140.210449 
	C118.284134,140.020493 117.065048,137.614548 116.812447,133.692490 
	C116.019760,121.385101 117.085297,109.738747 124.581993,99.136940 
	C128.761322,93.226532 131.712418,86.421059 134.975021,79.897903 
	C137.319489,75.210472 139.956665,71.239960 146.435257,71.517334 
	C145.538437,70.253487 144.607635,69.241707 143.646210,69.211731 
	C138.504852,69.051407 133.354141,69.068436 128.211121,69.199684 
	C127.303230,69.222855 126.416542,70.076889 125.520058,70.547234 
	C126.319054,71.111237 127.076088,72.081169 127.924324,72.168861 
	C131.568787,72.545609 132.093506,74.760307 130.789490,77.396805 
	C125.562225,87.965401 120.130211,98.432724 114.420525,109.630577 
	C108.905991,99.636757 103.801941,90.525169 98.835716,81.339058 
	C95.407478,74.997803 95.907257,73.788971 102.374786,71.367645 
	C101.122185,69.058044 89.012138,68.171104 75.915985,70.030785 
	C78.366028,71.991585 81.647446,72.986397 83.709885,75.145569 
	C86.285431,77.841904 87.857544,81.496719 90.130188,85.423996 
z"/>
<path fill="#E31938" opacity="1.000000" stroke="none" 
	d="
M116.752510,279.999939 
	C116.752457,242.189774 116.752457,204.879623 116.752457,167.201996 
	C150.527924,167.201996 184.066544,167.201996 218.165955,167.201996 
	C218.165955,169.183029 218.165939,171.126099 218.165970,173.069183 
	C218.166443,219.056931 218.166306,265.044678 218.167725,311.032440 
	C218.168182,325.626770 219.782959,340.006439 225.453140,353.565613 
	C238.283630,384.247162 262.427734,399.215088 294.712097,401.906647 
	C313.093933,403.439117 330.981171,401.004944 347.285553,391.510345 
	C365.643341,380.820007 376.855835,364.645966 382.869751,344.564545 
	C383.290741,343.158783 383.719757,341.755432 384.548157,339.019623 
	C384.548157,371.662537 384.548157,402.923615 384.548157,434.513031 
	C295.329285,434.513031 206.302155,434.513031 116.752563,434.513031 
	C116.752563,383.046173 116.752563,331.773071 116.752510,279.999939 
z"/>
<path fill="#E31837" opacity="1.000000" stroke="none" 
	d="
M272.666443,304.980103 
	C272.675995,259.167419 272.688660,213.850830 272.709961,168.534225 
	C272.710114,168.210922 272.828400,167.887695 272.962585,167.200439 
	C293.432251,167.200439 313.969360,167.200439 334.983551,167.200439 
	C334.983551,168.742432 334.983582,170.197281 334.983551,171.652115 
	C334.982330,215.969498 335.181458,260.288605 334.795654,304.602631 
	C334.726013,312.602509 333.157043,320.874695 330.683380,328.503357 
	C326.661804,340.905670 316.168152,347.448730 303.049408,347.405884 
	C290.545319,347.365021 281.070282,341.312775 276.892761,328.864746 
	C274.398743,321.433136 274.006805,313.296082 272.666443,304.980103 
z"/>
<path fill="#070707" opacity="1.000000" stroke="none" 
	d="
M316.640320,132.277344 
	C319.824097,138.827774 325.099976,141.635529 332.848297,141.736359 
	C326.219879,146.029282 314.364258,143.892563 310.053467,137.905304 
	C305.114990,131.046219 300.857025,123.694214 296.362183,116.519531 
	C292.137695,109.776390 291.813354,109.566628 283.126495,109.756798 
	C283.126495,117.856331 283.001282,125.974030 283.182587,134.084869 
	C283.265656,137.802002 284.865662,140.479385 289.325897,140.222778 
	C290.236511,140.170380 291.200409,141.043930 292.139771,141.490662 
	C292.010956,141.905090 291.882172,142.319519 291.753357,142.733948 
	C282.938629,142.733948 274.123871,142.733948 263.777252,142.733948 
	C265.597626,141.403656 266.453552,140.242416 267.318939,140.235321 
	C271.904175,140.197769 273.668488,137.339340 273.700195,133.503372 
	C273.850006,115.357086 273.838989,97.208481 273.720947,79.061783 
	C273.695526,75.152115 271.749054,72.475960 267.385040,72.142418 
	C266.562012,72.079521 265.805817,71.142502 265.018768,70.608826 
	C265.701874,70.123512 266.384399,69.216812 267.068146,69.215935 
	C277.699493,69.202248 288.384491,68.672371 298.947174,69.563873 
	C309.118378,70.422340 315.274750,77.258224 316.615326,86.939034 
	C317.803192,95.516823 313.356140,102.768791 304.296753,107.041199 
	C303.706726,107.319443 303.140686,107.648491 302.114685,108.191383 
	C306.935425,116.213570 311.676117,124.102562 316.640320,132.277344 
M298.927429,103.859131 
	C306.817078,99.122101 309.165894,91.455368 305.308411,83.030739 
	C301.490356,74.692123 292.783051,71.163773 283.277222,74.060799 
	C283.277222,84.297501 283.277222,94.513710 283.277222,105.895111 
	C288.499664,105.250511 293.322662,104.655212 298.927429,103.859131 
z"/>
<path fill="#070707" opacity="1.000000" stroke="none" 
	d="
M383.311829,95.305786 
	C388.410583,89.571968 393.354645,84.171875 398.099304,78.601875 
	C400.346680,75.963531 401.403870,73.264206 396.476288,72.149338 
	C395.838104,72.004951 395.411072,70.927269 394.886230,70.281883 
	C395.513397,69.907104 396.136963,69.213524 396.768250,69.206436 
	C403.746643,69.128098 410.727173,69.105003 417.704071,69.233452 
	C418.417603,69.246590 419.111176,70.340927 419.732666,71.516144 
	C411.366455,71.404839 406.996521,77.042099 402.231445,82.124916 
	C396.439789,88.302811 390.549713,94.388420 384.325195,100.908936 
	C394.682800,112.840218 404.765839,124.749542 415.265350,136.279648 
	C417.163971,138.364594 420.792572,138.849319 423.579712,140.163528 
	C424.552826,140.622360 425.397064,141.354462 425.786133,142.958603 
	C419.335358,142.958603 412.884552,142.958603 407.883057,142.958603 
	C397.511261,130.722260 387.705872,119.154182 377.993927,107.696350 
	C373.203796,110.852982 371.602020,114.735901 372.104279,119.880219 
	C372.555450,124.501183 372.208160,129.194290 372.431305,133.845108 
	C372.620178,137.781845 374.125336,140.585342 378.848999,140.232803 
	C379.682526,140.170609 380.594055,141.154236 381.469574,141.654892 
	C381.326202,142.037674 381.182800,142.420471 381.039429,142.803253 
	C372.192017,142.803253 363.344574,142.803253 352.777924,142.803253 
	C354.834290,141.375214 355.706451,140.255722 356.614624,140.225693 
	C361.119598,140.076797 362.900177,137.396317 362.920776,133.442337 
	C363.015289,115.291656 363.000702,97.140076 362.934021,78.989159 
	C362.920197,75.225784 361.150757,72.712730 357.092712,72.186218 
	C356.003662,72.044930 354.985291,71.358871 354.142273,70.043503 
	C363.279633,69.664162 372.256226,69.220131 381.156403,70.297104 
	C372.189056,73.906578 372.187836,73.906578 372.184998,84.004906 
	C372.182892,91.447098 372.184570,98.889290 372.184570,107.737564 
	C376.367218,103.064461 379.721252,99.317131 383.311829,95.305786 
z"/>
<path fill="#0A0A0A" opacity="1.000000" stroke="none" 
	d="
M168.513367,85.540947 
	C178.584457,71.419922 192.095734,65.519310 208.633606,68.679489 
	C225.196167,71.844368 235.678070,82.337875 239.450211,98.889343 
	C243.991989,118.817955 229.784775,140.041397 209.637177,143.875916 
	C186.736923,148.234329 166.102371,134.574249 162.819016,113.071808 
	C161.319702,103.252831 163.290863,94.273293 168.513367,85.540947 
M222.595215,84.021545 
	C209.710464,65.262894 182.291992,70.207390 175.677414,88.673141 
	C170.405548,103.390427 171.624542,117.572838 181.294693,130.254761 
	C187.641190,138.577850 196.289627,141.933273 206.816833,140.263962 
	C217.002609,138.648773 223.788712,132.971359 227.110748,123.355995 
	C231.771469,109.865906 230.645172,96.873055 222.595215,84.021545 
z"/>
<path fill="#0D0D0D" opacity="1.000000" stroke="none" 
	d="
M89.996536,85.080856 
	C87.857544,81.496719 86.285431,77.841904 83.709885,75.145569 
	C81.647446,72.986397 78.366028,71.991585 75.915985,70.030785 
	C89.012138,68.171104 101.122185,69.058044 102.374786,71.367645 
	C95.907257,73.788971 95.407478,74.997803 98.835716,81.339058 
	C103.801941,90.525169 108.905991,99.636757 114.420525,109.630577 
	C120.130211,98.432724 125.562225,87.965401 130.789490,77.396805 
	C132.093506,74.760307 131.568787,72.545609 127.924324,72.168861 
	C127.076088,72.081169 126.319054,71.111237 125.520058,70.547234 
	C126.416542,70.076889 127.303230,69.222855 128.211121,69.199684 
	C133.354141,69.068436 138.504852,69.051407 143.646210,69.211731 
	C144.607635,69.241707 145.538437,70.253487 146.435257,71.517334 
	C139.956665,71.239960 137.319489,75.210472 134.975021,79.897903 
	C131.712418,86.421059 128.761322,93.226532 124.581993,99.136940 
	C117.085297,109.738747 116.019760,121.385101 116.812447,133.692490 
	C117.065048,137.614548 118.284134,140.020493 122.591927,140.210449 
	C123.521309,140.251419 124.405373,141.320221 124.776344,142.951828 
	C116.221024,142.951828 107.665695,142.951828 99.110374,142.951828 
	C98.914108,142.563629 98.717850,142.175446 98.521591,141.787247 
	C99.540863,141.232651 100.556442,140.212311 101.580048,140.204193 
	C105.975563,140.169312 107.285019,137.632050 107.446838,133.797592 
	C107.884109,123.435600 107.739449,113.424850 101.007553,104.402336 
	C96.678825,98.600700 93.709061,91.785118 89.996536,85.080856 
z"/>
<path fill="#FBFBFB" opacity="1.000000" stroke="none" 
	d="
M298.536560,103.959518 
	C293.322662,104.655212 288.499664,105.250511 283.277222,105.895111 
	C283.277222,94.513710 283.277222,84.297501 283.277222,74.060799 
	C292.783051,71.163773 301.490356,74.692123 305.308411,83.030739 
	C309.165894,91.455368 306.817078,99.122101 298.536560,103.959518 
z"/>
<path fill="#FDFDFD" opacity="1.000000" stroke="none" 
	d="
M222.793091,84.327911 
	C230.645172,96.873055 231.771469,109.865906 227.110748,123.355995 
	C223.788712,132.971359 217.002609,138.648773 206.816833,140.263962 
	C196.289627,141.933273 187.641190,138.577850 181.294693,130.254761 
	C171.624542,117.572838 170.405548,103.390427 175.677414,88.673141 
	C182.291992,70.207390 209.710464,65.262894 222.793091,84.327911 
z"/>
</svg>